<svg width="177" height="188" viewBox="0 0 177 188" fill="none" xmlns="http://www.w3.org/2000/svg">
<path d="M116.452 20.0953L116.66 19.5793L112.978 16.9165L112.791 17.4325L116.452 20.0953Z" fill="#081616"/>
<path d="M59.1851 182.775L121.957 181.653C128.793 181.53 134.286 175.895 134.171 169.108L131.554 16.7154C131.439 9.92748 125.771 4.48009 118.934 4.60306L56.1623 5.72485C49.3258 5.84782 43.8328 11.4822 43.9484 18.2702L46.565 170.662C46.6827 177.477 52.3486 182.898 59.1851 182.775ZM119.026 9.32421C123.241 9.24174 126.719 12.6009 126.797 16.7859L129.414 169.178C129.492 173.363 126.105 176.82 121.89 176.903L59.1178 178.025C54.9029 178.107 51.4248 174.748 51.3468 170.563L48.7302 18.171C48.6522 13.986 52.0396 10.5285 56.2544 10.446L119.026 9.32421Z" fill="#5E4F69"/>
<path d="M59.1631 180.409L121.935 179.288C127.474 179.184 131.888 174.653 131.791 169.153L129.174 16.7614C129.076 11.2616 124.519 6.88401 118.979 6.98776L56.2055 8.08285C50.6664 8.1866 46.2521 12.7171 46.352 18.2437L48.9686 170.636C49.0395 176.138 53.597 180.515 59.1631 180.409Z" fill="white"/>
<path d="M107.506 19.6638C108.65 19.5758 109.507 18.5838 109.419 17.448C109.332 16.3123 108.334 15.4629 107.19 15.5509C106.046 15.6389 105.189 16.631 105.277 17.7667C105.364 18.9025 106.362 19.7518 107.506 19.6638Z" fill="#BFE0F3"/>
<path d="M115.61 17.3747C115.643 18.5006 114.742 19.4564 113.608 19.4899C112.474 19.5234 111.513 18.6303 111.48 17.5044C111.448 16.3786 112.349 15.4227 113.483 15.3892C114.643 15.3537 115.605 16.2468 115.61 17.3747Z" fill="#BFE0F3"/>
<path d="M119.927 19.3263C121.071 19.2383 121.927 18.2462 121.84 17.1105C121.753 15.9747 120.755 15.1254 119.611 15.2134C118.467 15.3014 117.61 16.2934 117.698 17.4292C117.785 18.5649 118.783 19.4143 119.927 19.3263Z" fill="#BFE0F3"/>
<path d="M130.877 147.409L49.1102 148.891L47.1403 33.442L128.907 31.9604L130.877 147.409Z" fill="url(#paint0_linear_412_150)"/>
<path d="M46.8815 27.9129L48.9937 151.514L130.903 150.037L128.791 26.4353L46.8815 27.9129Z" fill="#2CBDB9"/>
<path d="M59.1477 180.921L121.92 179.799C127.757 179.699 132.395 174.91 132.301 169.114L129.685 16.7221C129.591 10.9264 124.773 6.32708 118.936 6.42689L56.1929 7.57332C50.3827 7.67107 45.7179 12.4627 45.8093 18.2316L48.4259 170.624C48.5194 176.419 53.3396 181.045 59.1477 180.921ZM118.991 7.49725C124.232 7.38955 128.558 11.5701 128.658 16.7473L131.275 169.139C131.377 174.343 127.161 178.644 121.947 178.749L59.1484 179.873C53.9072 179.981 49.5813 175.8 49.4811 170.623L46.8646 18.231C46.7624 13.0271 50.9779 8.72674 56.1922 8.62111L118.991 7.49725Z" fill="#081616"/>
<path opacity="0.54" d="M63.5367 17.2167L49.8715 18.268C49.0107 18.3343 48.2579 17.6937 48.1923 16.8391C48.1266 15.9844 48.7726 15.2362 49.6334 15.17L63.2987 14.1187C64.1595 14.0525 64.9122 14.6931 64.9779 15.5477C65.0166 16.4044 64.3975 17.1505 63.5367 17.2167Z" fill="white"/>
<path opacity="0.54" d="M82.0435 15.793L68.3783 16.8443C67.5175 16.9106 66.7648 16.27 66.6991 15.4153C66.6334 14.5607 67.2795 13.8125 68.1403 13.7463L81.8055 12.695C82.6663 12.6288 83.419 13.2694 83.4847 14.124C83.5504 14.9786 82.9043 15.7268 82.0435 15.793Z" fill="white"/>
<path opacity="0.54" d="M100.551 14.3691L86.8856 15.4204C86.0248 15.4866 85.2721 14.846 85.2064 13.9914C85.1408 13.1368 85.7868 12.3886 86.6476 12.3224L100.313 11.2711C101.174 11.2048 101.926 11.8454 101.992 12.7C102.058 13.5547 101.412 14.3029 100.551 14.3691Z" fill="white"/>
<path d="M173.328 58.92H124.107C122.071 58.92 120.436 57.2959 120.436 55.2747V34.0167C120.436 31.9955 122.071 30.3714 124.107 30.3714H173.328C175.364 30.3714 177 31.9955 177 34.0167V55.2747C177 57.2959 175.364 58.92 173.328 58.92Z" fill="#755DAB"/>
<path d="M168.346 40.6212H151.151C150.315 40.6212 149.625 39.9354 149.625 39.1053C149.625 38.2752 150.315 37.5895 151.151 37.5895H168.346C169.182 37.5895 169.873 38.2752 169.873 39.1053C169.873 39.9354 169.182 40.6212 168.346 40.6212Z" fill="white"/>
<path d="M168.346 46.1792H151.151C150.315 46.1792 149.625 45.4935 149.625 44.6634C149.625 43.8333 150.315 43.1475 151.151 43.1475H168.346C169.182 43.1475 169.873 43.8333 169.873 44.6634C169.873 45.4935 169.182 46.1792 168.346 46.1792Z" fill="white"/>
<path d="M158.313 51.7378H151.151C150.315 51.7378 149.625 51.0521 149.625 50.222C149.625 49.3919 150.315 48.7061 151.151 48.7061H158.313C159.149 48.7061 159.84 49.3919 159.84 50.222C159.84 51.0521 159.149 51.7378 158.313 51.7378Z" fill="white"/>
<path d="M136.392 53.1094C141.11 53.1094 144.935 49.3121 144.935 44.6279C144.935 39.9436 141.11 36.1463 136.392 36.1463C131.674 36.1463 127.85 39.9436 127.85 44.6279C127.85 49.3121 131.674 53.1094 136.392 53.1094Z" fill="white"/>
<path d="M137.628 38.8897H135.156V50.403H137.628V38.8897Z" fill="#2CBDB9"/>
<path d="M142.182 45.8782V43.424H130.585V45.8782H142.182Z" fill="#2CBDB9"/>
<g filter="url(#filter0_d_412_150)">
<path d="M109.18 74.9614C109.444 75.2732 124.607 96.7617 124.607 96.7617L141.656 80.8242L150.376 92.0727C150.376 92.0727 132.143 115.06 129.469 115.892C126.795 116.722 118.164 115.414 118.164 115.414L106.125 101.219L109.18 74.9614Z" fill="white"/>
</g>
<path d="M124.737 101.725C124.597 101.732 124.414 100.621 124.411 99.2444C124.408 97.8785 124.459 96.7681 124.606 96.7618C124.746 96.7547 124.93 97.8651 124.932 99.2417C124.935 100.608 124.885 101.718 124.737 101.725" fill="#17282F"/>
<path d="M70.628 58.9374L68.0088 64.7099C68.0088 64.7099 54.5597 74.8508 53.3366 76.4114C52.1135 77.9711 62.9424 128.52 62.9424 128.52C62.9424 128.52 62.2443 171.912 62.9424 171.912C63.6424 171.912 72.8982 174.564 91.9378 173.315C110.976 172.068 114.47 170.351 114.47 170.351L108.53 135.541L99.4455 91.3885L83.8552 73.4465L70.628 58.9374Z" fill="white"/>
<path d="M101.273 83.9982C101.273 83.9982 99.2846 75.4287 99.4456 75.1634C99.6066 74.8972 94.9632 64.7751 94.9632 64.7751L93.4071 60.1585L72.2093 56.9551L71.1802 59.8164L99.4456 91.7182L102.341 105.41L105.334 101.677L101.273 83.9982" fill="#755DAB"/>
<path d="M120.185 148.483L115.582 99.0674L111.812 79.7863C111.306 75.9424 108.422 72.0664 108.422 72.0664L97.3866 66.3733C97.3866 66.3733 94.3984 63.0913 94.2354 62.6116L99.4458 74.4997L101.273 83.9982L102.409 105.79L108.428 135.038L111.742 171.335L124.525 169.105L120.185 148.483Z" fill="white"/>
<path d="M102.861 90.915L105.334 74.7032L97.3866 66.3731L94.2354 62.6114L99.1218 75.1633L102.861 90.915Z" fill="white"/>
<path d="M104.144 81.0699C104.091 81.0824 104.505 82.6627 105.07 84.5985C105.635 86.5352 106.137 88.0949 106.19 88.0824C106.243 88.0699 105.828 86.4905 105.264 84.5538C104.698 82.618 104.197 81.0574 104.144 81.0699Z" fill="#17282F"/>
<path d="M110.521 92.0255C110.662 92.7571 110.506 93.4825 110.222 94.081C109.939 94.6804 109.207 95.3709 108.493 95.4987C108.493 95.4987 106.777 96.0418 105.442 94.918C104.231 93.8997 103.281 91.418 103.53 89.7619C103.702 88.6229 104.483 87.4196 105.72 87.1034C107.344 86.688 108.676 87.5045 109.337 88.4907" fill="white"/>
<path d="M109.337 88.4906C109.337 88.4906 109.219 88.2208 108.825 87.8456C108.629 87.6598 108.361 87.449 108.003 87.2703C107.647 87.089 107.191 86.9514 106.669 86.9327C106.41 86.9255 106.135 86.9425 105.859 87.0023C105.583 87.0532 105.297 87.1506 105.039 87.3007C104.517 87.5973 104.092 88.0707 103.804 88.6255C103.512 89.1793 103.367 89.8287 103.397 90.4925C103.42 91.1553 103.566 91.8315 103.804 92.4971C104.184 93.519 104.714 94.499 105.588 95.1395C106.026 95.4512 106.554 95.6272 107.064 95.6835C107.577 95.7407 108.069 95.6933 108.521 95.5683L108.51 95.5709C108.888 95.4968 109.192 95.3101 109.445 95.1162C109.697 94.917 109.901 94.6973 110.061 94.4722C110.377 94.0139 110.492 93.5601 110.563 93.1912C110.625 92.8187 110.611 92.5221 110.587 92.3247C110.573 92.2255 110.56 92.1505 110.546 92.1004L110.521 92.0254C110.491 92.0263 110.615 92.4488 110.47 93.1769C110.39 93.5333 110.26 93.9817 109.95 94.4078C109.792 94.6205 109.592 94.8286 109.348 95.0153C109.104 95.1966 108.813 95.3664 108.478 95.4271L108.475 95.428L108.466 95.4307C107.637 95.6513 106.535 95.6004 105.706 95.0064C104.891 94.4052 104.363 93.4422 103.994 92.4426C103.531 91.1482 103.393 89.7689 103.972 88.6942C104.242 88.16 104.644 87.708 105.128 87.4249C105.37 87.2819 105.631 87.1899 105.895 87.1372C106.157 87.0756 106.418 87.0559 106.665 87.0586C107.161 87.0684 107.602 87.1917 107.95 87.3579C108.302 87.5222 108.569 87.7197 108.77 87.8938C109.172 88.2467 109.317 88.5022 109.337 88.4906" fill="#17282F"/>
<path d="M111.409 91.8886C111.551 92.6202 111.395 93.3456 111.111 93.9441C110.827 94.5426 110.096 95.235 109.382 95.3627C109.382 95.3627 107.666 95.9049 106.33 94.7811C105.119 93.7628 104.17 91.2812 104.419 89.625C104.591 88.486 105.372 87.2818 106.609 86.9665C108.233 86.5511 109.565 87.3676 110.226 88.3538" fill="white"/>
<path d="M110.226 88.354C110.226 88.354 110.108 88.0843 109.714 87.7082C109.518 87.5224 109.25 87.3115 108.892 87.1338C108.536 86.9524 108.079 86.8149 107.558 86.7961C107.299 86.789 107.025 86.8059 106.749 86.8658C106.472 86.9176 106.186 87.0141 105.928 87.1633C105.405 87.4598 104.981 87.9342 104.693 88.4889C104.401 89.0419 104.257 89.6922 104.286 90.3559C104.31 91.0188 104.455 91.695 104.693 92.3605C105.072 93.3816 105.603 94.3633 106.477 95.0029C106.916 95.3147 107.442 95.4907 107.952 95.5469C108.466 95.6032 108.958 95.5559 109.409 95.4317L109.399 95.4344C109.776 95.3602 110.08 95.1735 110.334 94.9797C110.586 94.7805 110.79 94.5607 110.95 94.3356C111.266 93.8782 111.381 93.4227 111.452 93.0546C111.515 92.6821 111.5 92.3855 111.476 92.1881C111.462 92.089 111.448 92.0139 111.435 91.9639L111.409 91.8888C111.38 91.8897 111.504 92.3123 111.359 93.0403C111.278 93.3968 111.149 93.8452 110.839 94.2713C110.681 94.4839 110.481 94.6929 110.236 94.8787C109.992 95.0601 109.701 95.2298 109.366 95.2915H109.363L109.355 95.2941C108.526 95.5148 107.424 95.463 106.595 94.8689C105.779 94.2695 105.252 93.3056 104.884 92.306C104.422 91.0125 104.282 89.6324 104.861 88.5568C105.131 88.0235 105.532 87.5706 106.017 87.2883C106.259 87.1454 106.52 87.0525 106.783 86.9998C107.046 86.9381 107.307 86.9194 107.554 86.9221C108.05 86.9319 108.49 87.0543 108.839 87.2213C109.191 87.3857 109.458 87.5822 109.658 87.7573C110.061 88.1102 110.206 88.3665 110.226 88.354" fill="#17282F"/>
<path d="M108.683 88.3145C109.453 87.9804 110.438 88.2832 110.978 88.8764C111.518 89.4686 111.673 90.2806 111.605 91.0426C111.57 91.4303 111.48 91.8207 111.271 92.1619C111.062 92.5032 110.721 92.7917 110.303 92.9016C109.69 93.0615 109.025 92.815 108.533 92.4487C107.741 91.8591 107.265 90.9462 107.267 90.0261C107.269 89.4115 107.57 88.7102 108.232 88.5396" fill="white"/>
<path d="M108.232 88.5395C108.231 88.5351 108.178 88.5413 108.083 88.5708C107.988 88.6021 107.854 88.6664 107.716 88.787C107.437 89.0237 107.181 89.5097 107.199 90.1261C107.208 90.7335 107.443 91.4723 108.021 92.1038C108.309 92.4147 108.676 92.7068 109.139 92.8864C109.588 93.0695 110.182 93.1168 110.661 92.8596C111.136 92.6121 111.427 92.1806 111.563 91.7572C111.699 91.3284 111.727 90.9023 111.705 90.4995C111.661 89.6937 111.295 88.9719 110.749 88.5815C110.209 88.1858 109.613 88.1054 109.238 88.1474C109.047 88.1634 108.906 88.2117 108.815 88.2447L108.683 88.3144C108.691 88.3332 108.877 88.2322 109.245 88.217C109.604 88.1974 110.163 88.2948 110.658 88.678C111.154 89.0532 111.488 89.7357 111.521 90.5084C111.537 90.8934 111.506 91.3079 111.375 91.7063C111.246 92.1029 110.978 92.4871 110.561 92.705C110.147 92.9266 109.635 92.8917 109.216 92.7256C108.79 92.563 108.441 92.2914 108.163 91.9993C107.607 91.4053 107.366 90.704 107.341 90.1225C107.306 89.5374 107.527 89.071 107.772 88.8352C108.02 88.5922 108.242 88.5592 108.232 88.5395" fill="#17282F"/>
<path d="M108.401 94.2042C108.433 94.2042 108.441 94.0844 108.529 93.921C108.614 93.7584 108.795 93.5565 109.058 93.41C109.322 93.2635 109.604 93.1831 109.807 93.1206C110.01 93.0589 110.137 93.0134 110.13 92.9884C110.124 92.9651 109.988 92.9669 109.771 92.9982C109.557 93.0312 109.25 93.0938 108.951 93.259C108.651 93.4261 108.459 93.6753 108.398 93.8763C108.332 94.0782 108.378 94.2077 108.401 94.2042" fill="#17282F"/>
<path d="M106.386 88.3664C106.373 88.3851 106.478 88.4718 106.687 88.5531C106.894 88.6353 107.209 88.6996 107.559 88.6764C107.907 88.6522 108.209 88.5459 108.4 88.4361C108.592 88.3271 108.681 88.227 108.664 88.2109C108.631 88.1672 108.189 88.4611 107.543 88.4986C106.9 88.5486 106.412 88.3181 106.386 88.3664" fill="#17282F"/>
<path d="M90.9379 100.413C89.9228 100.669 88.7977 100.008 87.8136 100.346C87.0826 100.596 86.6845 101.43 86.9876 102.074C87.2906 102.718 88.2357 103.048 88.9477 102.758C89.9608 102.344 90.1768 101.064 91.1329 100.554" fill="#17282F"/>
<path d="M82.7117 103.635C83.0127 103.548 83.3168 103.435 83.6258 103.295L83.4598 103.004C82.2847 103.541 81.1786 103.66 80.1705 103.361C78.9024 102.985 77.8073 101.973 76.9132 100.354L76.8792 100.292C76.5232 99.6516 71.5747 86.4807 70.6647 83.9714C69.2435 80.0525 72.9009 78.4034 73.0579 78.3355C73.2039 78.265 76.5162 76.7294 79.9255 80.4732C83.4948 84.393 89.7363 92.1327 90.3093 93.0858C90.3793 93.2028 90.4734 93.3449 90.5824 93.5101C91.3754 94.7134 93.0256 97.2156 91.5745 99.3524C89.9573 101.733 87.9432 101.576 87.8591 101.568L87.8191 101.891C87.9141 101.899 90.1423 102.089 91.8865 99.5203C93.4496 97.2183 91.7245 94.6027 90.8964 93.3449C90.7894 93.185 90.6974 93.0456 90.6294 92.9322C90.0523 91.9719 83.7868 84.1992 80.2075 80.2678C76.6012 76.3068 72.9279 78.0282 72.8919 78.0461C72.8569 78.0613 68.7985 79.8801 70.3187 84.0724C71.0677 86.1386 76.1751 99.757 76.5542 100.437L76.5882 100.498C77.5253 102.198 78.6924 103.264 80.0565 103.669C80.8916 103.916 81.7806 103.905 82.7117 103.635" fill="#17282F"/>
<path d="M71.4085 86.5495C71.4595 86.5504 71.2715 85.8608 71.5705 84.8013C71.7215 84.2769 72.0055 83.673 72.4586 83.0835C72.9156 82.4975 73.5477 81.9266 74.3408 81.5032C75.9399 80.6483 77.722 80.5581 78.9041 80.7466C80.1102 80.927 80.7623 81.3192 80.7803 81.2808L80.6673 81.2075C80.5883 81.1691 80.4773 81.0985 80.3182 81.0369C80.0112 80.8958 79.5372 80.7376 78.9281 80.6287C78.3201 80.5188 77.572 80.4804 76.7559 80.5786C75.9429 80.676 75.0598 80.9181 74.2428 81.3576C73.4247 81.7962 72.7756 82.3876 72.3146 82.995C71.8565 83.6069 71.5785 84.2322 71.4405 84.7727C71.3055 85.3158 71.2915 85.7696 71.3235 86.0769C71.3285 86.2315 71.3615 86.3494 71.3745 86.4298L71.4085 86.5495" fill="#17282F"/>
<path d="M68.0088 64.7099L84.5902 83.0611L99.4454 91.3885L70.628 58.9374L68.0088 64.7099" fill="white"/>
<path d="M115.707 98.4146C115.567 98.4431 114.074 93.0681 112.373 86.4112C110.67 79.7525 109.404 74.3319 109.545 74.3033C109.685 74.2747 111.179 79.648 112.881 86.3076C114.582 92.9654 115.848 98.386 115.707 98.4146" fill="#17282F"/>
<path d="M99.4454 91.3885C99.4304 91.4108 99.0264 91.2143 98.2963 90.8311C97.5062 90.4076 96.4612 89.8466 95.1781 89.1588C92.4658 87.6634 88.7575 85.6186 84.4591 83.2487L84.4251 83.2299L84.3982 83.1995C82.849 81.4915 81.1649 79.6344 79.4147 77.7039C74.8284 72.6273 70.717 68.033 67.8698 64.8099L67.8027 64.7349L67.8427 64.65C68.6678 62.9125 69.3409 61.4948 69.8399 60.4434C70.0639 59.9923 70.25 59.6216 70.401 59.317C70.535 59.0624 70.612 58.931 70.629 58.9373C70.645 58.9436 70.599 59.0847 70.495 59.3509C70.367 59.6636 70.211 60.0459 70.0209 60.5086C69.5599 61.5735 68.9368 63.0108 68.1738 64.7697L68.1478 64.6098C71.073 67.7766 75.2334 72.3351 79.8198 77.4118C81.5639 79.3476 83.24 81.2092 84.7832 82.9226L84.7222 82.8744C88.9815 85.3006 92.6548 87.3945 95.3411 88.9256C96.5932 89.6581 97.6123 90.2549 98.3843 90.7069C99.0874 91.1285 99.4604 91.367 99.4454 91.3885" fill="#17282F"/>
<path d="M101.867 94.8357C101.834 94.8312 101.872 94.4087 101.97 93.6422C102.089 92.7962 102.244 91.7046 102.431 90.3888C102.842 87.632 103.448 83.7997 104.158 79.4886L104.187 79.6316C103.871 79.109 103.538 78.556 103.2 77.995C100.661 73.7768 98.3886 69.9463 96.7664 67.1619C95.9984 65.8237 95.3593 64.7107 94.8693 63.854C94.4312 63.0679 94.2042 62.6266 94.2352 62.6114C94.2682 62.5962 94.5552 63.0089 95.0473 63.7682C95.5763 64.607 96.2634 65.696 97.0904 67.0065C98.7956 69.7507 101.12 73.5571 103.658 77.7753C103.995 78.3363 104.328 78.8892 104.643 79.4127L104.684 79.4806L104.671 79.5557C103.946 83.8659 103.278 87.6901 102.776 90.4343C102.526 91.7421 102.318 92.8266 102.157 93.6672C102.001 94.4256 101.901 94.8401 101.867 94.8357" fill="#17282F"/>
<path d="M71.4482 78.927L72.3042 78.4652L71.4451 78.9225C70.107 76.9483 68.7249 74.9062 67.7128 72.7087L67.5348 72.3246C66.5217 70.1369 65.3726 67.6579 65.8587 65.2621L65.8737 65.2004C66.1047 64.1705 66.7487 63.228 67.6958 62.5223L67.9758 62.3151L68.8009 62.3178L68.7949 63.7015L68.9759 63.8962L68.7929 64.0409V64.1044L68.7209 64.1035C68.2539 64.5233 67.9409 65.0343 67.8308 65.5685L67.8198 65.6203C67.4598 67.49 68.4809 69.6947 69.384 71.6412L69.563 72.0289C70.5161 74.0987 71.8582 76.0809 73.1563 77.998L71.4482 78.927" fill="#17282F"/>
<path d="M103.408 108.611C103.426 108.609 103.473 108.84 103.546 109.281C103.619 109.767 103.718 110.409 103.84 111.211C104.086 112.889 104.413 115.32 104.795 118.326C105.562 124.337 106.515 132.652 107.386 141.852C108.255 151.055 108.877 159.395 109.252 165.436C109.44 168.457 109.574 170.902 109.646 172.592C109.676 173.402 109.7 174.05 109.719 174.54C109.73 174.985 109.727 175.219 109.708 175.22C109.691 175.221 109.658 174.989 109.614 174.545C109.572 174.056 109.515 173.41 109.444 172.603C109.308 170.865 109.117 168.437 108.885 165.457C108.415 159.423 107.736 151.089 106.867 141.891C105.996 132.696 105.101 124.379 104.429 118.36C104.1 115.388 103.831 112.965 103.639 111.232C103.557 110.424 103.491 109.78 103.442 109.292C103.403 108.848 103.39 108.613 103.408 108.611Z" fill="#17282F"/>
<path d="M95.1961 154.333C95.2191 154.358 94.977 154.564 94.52 154.913C94.0629 155.263 93.3889 155.757 92.5418 156.35C90.8467 157.532 88.4585 159.133 85.6012 160.61C84.1681 161.342 82.75 161.957 81.4269 162.446C80.0928 162.912 78.8657 163.276 77.8076 163.485C76.7545 163.707 75.8874 163.836 75.2844 163.873C74.6823 163.92 74.3493 163.93 74.3453 163.898C74.3333 163.813 75.6594 163.685 77.7146 163.167C78.7447 162.92 79.9398 162.53 81.2419 162.05C82.535 161.547 83.9261 160.93 85.3422 160.206C88.1655 158.747 90.5737 157.199 92.3208 156.087C94.066 154.968 95.1511 154.279 95.1961 154.333Z" fill="#17282F"/>
<path d="M96.7243 157.81C96.7523 157.83 96.5602 158.086 96.1862 158.533C95.8192 158.985 95.2321 159.601 94.4561 160.321C92.9129 161.763 90.5047 163.551 87.4815 164.994C84.4522 166.43 81.447 167.216 79.2448 167.555C78.1437 167.727 77.2426 167.82 76.6186 167.839C75.9945 167.865 75.6495 167.865 75.6475 167.833C75.6395 167.75 77.0136 167.654 79.1728 167.232C81.329 166.815 84.2602 165.994 87.2365 164.583C90.2067 163.166 92.6069 161.453 94.197 160.087C95.7942 158.722 96.6503 157.758 96.7243 157.81" fill="#17282F"/>
<path d="M75.3502 168.15C75.2062 168.163 74.9652 167.068 74.8102 165.704C74.6552 164.34 74.6462 163.223 74.7882 163.21C74.9322 163.198 75.1732 164.292 75.3282 165.657C75.4823 167.02 75.4922 168.137 75.3502 168.15Z" fill="#17282F"/>
<path d="M72.9528 49.7576C72.2418 49.8049 71.5827 49.3189 71.2277 48.7151C70.8726 48.1121 70.7596 47.4055 70.6536 46.7167C70.1856 43.6732 69.7155 40.6306 69.2465 37.588C68.8495 35.0082 68.4504 32.4113 68.5394 29.8046C68.6284 27.198 69.7946 24.895 71.1077 22.6385C72.6488 19.9899 78.8873 15.3188 89.2472 17.9389" fill="#17282F"/>
<path d="M72.421 38.8111C72.283 38.7611 66.8875 37.4488 67.1636 42.337C67.4396 47.2252 72.877 45.9692 72.879 45.828C72.88 45.6878 72.421 38.8111 72.421 38.8111" fill="#F8A58D"/>
<path d="M71.1027 44.052C71.0767 44.0377 71.0107 44.1155 70.8526 44.1896C70.6986 44.2602 70.4316 44.3165 70.1416 44.2343C69.5525 44.0708 69.0195 43.2731 68.9425 42.3932C68.9035 41.9483 68.9835 41.5204 69.1405 41.1613C69.2875 40.7968 69.5325 40.5351 69.8205 40.4752C70.1066 40.4029 70.3216 40.5494 70.3966 40.6834C70.4776 40.8174 70.4486 40.9157 70.4786 40.9237C70.4936 40.9344 70.5906 40.8361 70.5346 40.636C70.5076 40.5404 70.4366 40.4279 70.3026 40.3395C70.1656 40.2501 69.9706 40.2099 69.7685 40.2394C69.3485 40.2841 68.9875 40.6477 68.8145 41.0416C68.6195 41.4382 68.5184 41.9197 68.5624 42.4191C68.6525 43.4026 69.2695 44.2995 70.0716 44.4674C70.4616 44.5398 70.7766 44.4219 70.9366 44.2995C71.0997 44.1709 71.1217 44.0592 71.1027 44.052" fill="#755DAB"/>
<path d="M100.557 47.9031C100.532 44.4469 99.8355 37.3362 99.1204 30.9053C98.3533 23.9902 91.7698 18.7608 83.9901 18.8885L83.2181 18.901C74.8934 19.4736 70.787 26.1082 71.6571 33.5254L72.8262 57.181L92.6829 66.9127L92.6169 56.3038C92.6169 56.3038 100.606 55.0585 100.557 47.9031" fill="#F8A58D"/>
<path d="M92.6258 56.2986C92.6258 56.2986 87.5714 56.7506 82.1289 53.8206C82.1289 53.8206 84.6491 59.0089 92.6288 58.2326L92.6258 56.2986" fill="#755DAB"/>
<path d="M86.4055 43.7359C86.6065 43.7216 86.6325 44.9151 87.7936 45.7432C88.9527 46.574 90.3738 46.4168 90.3888 46.5838C90.4078 46.658 90.0758 46.8205 89.4757 46.8456C88.8857 46.8733 88.0216 46.7178 87.3116 46.2113C86.6025 45.703 86.2875 45.0152 86.2325 44.5265C86.1715 44.0281 86.3145 43.7306 86.4055 43.7359Z" fill="#17282F"/>
<path d="M89.8503 18.1266C87.0181 17.1306 84.1489 17.6559 81.1376 18.0507C78.7504 18.3625 76.6712 19.0476 74.7311 20.3278C71.6868 22.3359 70.1777 25.5348 70.0157 28.9115C69.8546 32.2891 70.2457 35.2817 71.1987 38.553L71.4958 38.4922C71.3128 39.3168 71.1327 40.1913 71.4538 40.9819C71.7758 41.7716 72.8029 42.3969 73.664 42.0592C74.6721 41.6644 74.705 40.4227 74.613 39.4436C74.302 36.1062 74.358 32.8564 74.57 29.5118C74.727 27.04 76.3052 24.0144 78.4644 22.8424C82.3937 20.5064 87.5081 22.4136 89.2473 22.6843C91.9075 20.6467 94.3997 22.2403 96.0279 24.0091C95.4328 21.3426 92.6826 19.1218 89.8503 18.1266Z" fill="#17282F"/>
<path d="M89.2474 22.6842C90.9996 22.6994 92.3997 21.6301 94.3568 21.915C95.5369 22.0874 96.7241 23.8071 97.7541 25.9519C98.9272 25.3185 99.6003 24.0188 99.3823 22.8101C99.1642 21.6006 98.0692 20.5563 96.7331 20.2821C97.2221 20.5161 97.7391 20.7564 98.2932 20.7377C98.8472 20.7189 99.4253 20.3321 99.3933 19.839C99.3693 19.4808 99.0523 19.1994 98.7392 18.9761C96.9851 17.7246 94.6629 17.1278 92.4327 17.3556C90.2015 17.5843 88.0903 18.6348 86.6992 20.2079" fill="#17282F"/>
<path d="M98.28 19.7245C98.231 19.788 97.713 19.4548 96.7679 19.1903C95.8368 18.9224 94.4227 18.7776 93.0115 19.2127C91.6014 19.6513 90.5903 20.5473 90.0453 21.2726C89.4852 22.0034 89.3112 22.551 89.2272 22.5286C89.1722 22.5215 89.2202 21.9256 89.7323 21.0984C90.2293 20.2829 91.2844 19.2574 92.8405 18.7723C94.3977 18.2935 95.9378 18.515 96.8929 18.8813C97.868 19.2466 98.318 19.6879 98.28 19.7245" fill="#33535F"/>
<path d="M97.9094 25.1167C97.8174 25.0953 98.1564 24.4619 97.9224 23.4543C97.8034 22.9603 97.5344 22.3876 97.0463 21.8918C96.5633 21.3952 95.8393 21.0003 95.0092 20.8002C93.313 20.3849 91.7079 20.9217 90.7428 21.4622C89.7558 22.0116 89.2657 22.5172 89.2017 22.4645C89.1567 22.435 89.5497 21.8427 90.5388 21.1879C91.0338 20.8699 91.6869 20.5447 92.483 20.3554C93.275 20.1606 94.2161 20.1321 95.1442 20.3509C96.0683 20.5725 96.8804 21.0307 97.4114 21.6141C97.9454 22.1938 98.2025 22.8477 98.2855 23.3989C98.4415 24.5316 97.9414 25.1524 97.9094 25.1167" fill="#33535F"/>
<path d="M69.4182 36.8904C69.3852 36.8958 69.3012 36.6653 69.2092 36.2374C69.1152 35.8095 69.0322 35.1797 69.0272 34.3963C69.0062 32.8393 69.4012 30.6283 70.6883 28.504C71.9734 26.3789 73.8276 24.8728 75.2977 24.0357C76.0338 23.6105 76.6698 23.3273 77.1219 23.163C77.5729 22.9968 77.8349 22.9343 77.8479 22.9611C77.8859 23.0343 76.8928 23.4086 75.5067 24.3064C74.1256 25.1917 72.3825 26.6808 71.1464 28.7247C69.9082 30.7695 69.4692 32.8866 69.3962 34.4034C69.3142 35.931 69.5072 36.8779 69.4182 36.8904" fill="#33535F"/>
<path d="M70.6401 37.7891C70.5231 37.8338 69.987 35.3201 71.0881 32.4186C72.1542 29.5055 74.2714 27.7814 74.3344 27.8788C74.4684 27.969 72.6023 29.7673 71.5822 32.5651C70.5211 35.3495 70.8071 37.7883 70.6401 37.7891" fill="#33535F"/>
<path d="M161.16 78.6864C160.926 78.1388 159.772 78.0191 159.772 78.0191L160.003 77.7082C160.333 77.2643 160.38 76.697 160.118 76.2182L159.986 75.9967C159.608 75.4214 158.65 75.1373 158.65 75.1373C158.65 75.1373 159.498 74.1055 159.29 73.5955C159.015 72.9201 157.746 72.0608 156.675 72.2233C155.51 72.4011 152.987 73.0934 151.224 73.6759C150.529 73.9063 149.77 73.5294 149.621 72.8817C149.337 71.6454 148.787 69.7471 147.87 68.3741C146.872 66.8787 145.696 66.8242 144.987 66.9626C144.644 67.0288 144.451 67.353 144.585 67.6425C144.965 68.4661 145.703 70.1133 145.859 70.7887C146.045 71.5953 145.395 77.4081 145.395 77.4081L142.091 81.3842L149.59 91.0587L152.886 86.6824L159.962 83.898C159.962 83.898 161.3 82.3936 161.157 81.8773C161.014 81.3619 160.462 81.0438 160.462 81.0438L161.337 79.9415C161.337 79.9415 161.395 79.2349 161.16 78.6864" fill="#F8A58D"/>
<path d="M159.282 75.2597C159.285 75.2642 159.235 75.2937 159.136 75.3464C159.021 75.4063 158.876 75.4795 158.701 75.5697C158.299 75.7689 157.753 76.0387 157.087 76.3675C156.397 76.7025 155.583 77.0964 154.684 77.5332C154.226 77.7449 153.769 77.9977 153.238 78.1934C152.72 78.3836 152.046 78.4676 151.494 78.1568C151.225 78.0013 151.043 77.7485 150.963 77.4868C150.881 77.2232 150.886 76.9508 150.947 76.6962C151.07 76.1772 151.462 75.7779 151.859 75.4822C152.264 75.1847 152.693 74.9658 153.084 74.755C153.476 74.546 153.841 74.3513 154.178 74.1717C154.833 73.8278 155.371 73.5446 155.767 73.3365C155.944 73.248 156.088 73.1748 156.204 73.1158C156.305 73.0676 156.359 73.0435 156.362 73.0479C156.364 73.0524 156.317 73.0845 156.221 73.1417C156.11 73.2069 155.971 73.2873 155.801 73.3865C155.411 73.6045 154.883 73.9001 154.238 74.2619C153.905 74.4459 153.543 74.646 153.155 74.8595C152.767 75.0757 152.345 75.2964 151.956 75.5867C151.575 75.877 151.215 76.2522 151.107 76.7275C150.988 77.1866 151.109 77.7556 151.585 78.0326C151.819 78.1666 152.102 78.222 152.377 78.2157C152.655 78.2121 152.924 78.1478 153.179 78.0594C153.686 77.8745 154.154 77.6208 154.612 77.4126C155.518 76.9865 156.336 76.6024 157.032 76.2746C157.708 75.9628 158.263 75.7073 158.671 75.5188C158.852 75.4384 159.001 75.3732 159.12 75.3205C159.224 75.2758 159.28 75.2553 159.282 75.2597" fill="#755DAB"/>
<path d="M160.239 78.164C160.244 78.1729 160.124 78.2372 159.903 78.3444C159.681 78.4516 159.357 78.6008 158.951 78.7768C158.143 79.1305 157.008 79.5915 155.729 80.0453C155.409 80.1569 155.099 80.2748 154.777 80.3499C154.457 80.4258 154.12 80.4508 153.814 80.3776C153.197 80.2239 152.821 79.7523 152.755 79.3387C152.687 78.917 152.857 78.5874 153.003 78.4043C153.078 78.3105 153.153 78.2497 153.202 78.2095L153.289 78.1604C153.3 78.1702 153.188 78.248 153.058 78.4355C152.933 78.6196 152.793 78.9376 152.87 79.3208C152.944 79.6942 153.301 80.1159 153.853 80.2454C154.125 80.307 154.432 80.2838 154.736 80.2096C155.04 80.1364 155.348 80.0194 155.668 79.9077C156.944 79.4548 158.081 79.0099 158.903 78.6821C159.288 78.5276 159.614 78.3971 159.874 78.2926C160.105 78.2015 160.235 78.1541 160.239 78.164" fill="#755DAB"/>
<path d="M160.612 80.9198C160.614 80.9297 160.493 80.9708 160.273 81.0386C160.018 81.1119 159.703 81.2021 159.334 81.3084C158.538 81.5309 157.437 81.8274 156.217 82.1473C155.912 82.225 155.616 82.3125 155.311 82.359C155.009 82.4054 154.692 82.3974 154.418 82.2991C154.146 82.2062 153.92 82.0141 153.836 81.7863C153.748 81.5621 153.774 81.3361 153.843 81.1521C153.992 80.7769 154.295 80.5822 154.488 80.4705C154.69 80.3606 154.816 80.3258 154.819 80.333C154.825 80.3437 154.709 80.3964 154.525 80.5179C154.347 80.6403 154.073 80.8421 153.954 81.1843C153.899 81.3522 153.885 81.555 153.965 81.7453C154.042 81.9346 154.232 82.0919 154.474 82.1723C154.716 82.2553 154.998 82.2616 155.284 82.2151C155.571 82.1714 155.864 82.0829 156.171 82.0052C157.391 81.6854 158.497 81.4049 159.301 81.2084C159.677 81.119 159.995 81.044 160.255 80.9824C160.482 80.9332 160.608 80.91 160.612 80.9198" fill="#755DAB"/>
<path d="M160.649 83.4354C160.65 83.456 160.242 83.4908 159.582 83.531C158.924 83.5712 158.013 83.6168 157.007 83.657C156.756 83.6668 156.511 83.6766 156.273 83.6856C156.036 83.6945 155.799 83.7034 155.571 83.6632C155.345 83.6248 155.135 83.5292 154.996 83.3836C154.852 83.2398 154.809 83.0442 154.844 82.8869C154.928 82.568 155.181 82.4063 155.344 82.3304C155.516 82.2545 155.625 82.2563 155.625 82.2634C155.629 82.2759 155.527 82.2938 155.375 82.3804C155.232 82.4644 155.015 82.6341 154.96 82.9048C154.939 83.037 154.978 83.1871 155.099 83.3023C155.218 83.4193 155.399 83.4989 155.6 83.5301C155.804 83.5623 156.028 83.5516 156.265 83.5408C156.503 83.531 156.748 83.5203 156.999 83.5096C158.006 83.4685 158.917 83.4399 159.577 83.4265C160.239 83.4131 160.648 83.4149 160.649 83.4354" fill="#755DAB"/>
<path d="M153.87 81.2949C153.849 81.3378 153.096 80.9697 152.069 80.8759C151.041 80.7714 150.218 80.9876 150.207 80.9411C150.187 80.9108 151.019 80.6213 152.086 80.7285C153.155 80.8268 153.899 81.269 153.87 81.2949Z" fill="#755DAB"/>
<path d="M90.3032 121.174L109.513 96.7618L142.951 105.799L117.656 135.021L86.2568 125.902L90.3032 121.174" fill="#755DAB"/>
<path d="M133.182 104.671C133.182 105.079 132.811 105.41 132.355 105.41C131.898 105.41 131.527 105.079 131.527 104.671C131.527 104.263 131.898 103.931 132.355 103.931C132.811 103.931 133.182 104.263 133.182 104.671Z" fill="#17282F"/>
<path d="M119.819 101.34C119.819 101.748 119.448 102.08 118.991 102.08C118.535 102.08 118.164 101.748 118.164 101.34C118.164 100.932 118.535 100.6 118.991 100.6C119.448 100.6 119.819 100.932 119.819 101.34Z" fill="#17282F"/>
<path d="M106.678 124.701L108.23 124.338C108.23 124.338 108.778 122.008 109.464 121.518C110.15 121.028 117.022 118.231 118.53 117.496C120.04 116.761 125.943 114.359 126.684 115.635C127.523 117.081 125.12 118.268 123.818 118.819C122.513 119.371 118.794 120.66 119.549 121.457C120.304 122.254 128.613 121.892 128.613 121.892L129.655 120.644C129.655 120.644 131.486 122.192 131.28 123.54C131.074 124.889 130.457 125.747 130.457 125.747H129.84C129.84 125.747 130.457 126.543 129.908 127.34C129.36 128.137 128.262 129.179 128.262 129.179C128.262 129.179 127.289 131.011 124.352 131.729C124.009 131.813 110.28 132.878 110.28 132.878L105.688 133.29L106.678 124.701" fill="#F8A58D"/>
<path d="M53.3365 76.4112C53.3365 76.4112 49.8592 81.3066 49.3062 86.3109C49.0881 88.2735 54.5476 125.009 55.1647 126.662C55.7807 128.314 63.0273 132.446 65.1865 133.272C67.3447 134.097 93.7089 141.949 104.501 141.81L106.814 123.632L79.0627 119.501C79.0627 119.501 75.8234 116.747 74.1283 116.195L71.8151 95.9506L68.4238 79.7004C68.4238 79.7004 58.755 74.3611 53.3365 76.4112Z" fill="white"/>
<path d="M70.4472 94.155C70.4472 94.155 70.4852 94.2828 70.5362 94.5347C70.5872 94.8063 70.6572 95.1788 70.7482 95.6576C70.9282 96.6688 71.1872 98.1267 71.5213 100.004C72.1763 103.812 73.1214 109.313 74.3015 116.172L74.1885 116.048C75.1406 116.391 75.9467 116.945 76.7727 117.511C77.5908 118.088 78.3949 118.71 79.1939 119.376L79.0939 119.331C87.0536 120.504 96.4854 121.892 106.853 123.419L107.079 123.452L107.053 123.656C106.335 129.339 105.561 135.468 104.757 141.836L104.731 142.043L104.505 142.04C99.4836 141.98 94.3802 140.989 89.2358 139.913C82.8342 138.543 76.6727 136.915 70.7662 135.226C69.2911 134.796 67.8309 134.368 66.3938 133.912C64.9237 133.506 63.5696 132.806 62.3055 132.116C61.0274 131.418 59.7923 130.688 58.6082 129.915C57.4391 129.123 56.265 128.361 55.3269 127.321C55.0839 127.08 54.9029 126.696 54.8549 126.394C54.7709 126.068 54.7128 125.758 54.6558 125.448C54.5438 124.828 54.4338 124.209 54.3228 123.598C54.1188 122.371 53.9178 121.161 53.7198 119.968C53.3477 117.581 52.9867 115.264 52.6387 113.023C51.9586 108.54 51.3525 104.361 50.8225 100.543C50.2945 96.7251 49.8334 93.2689 49.4864 90.2272C49.4094 89.4652 49.3124 88.7336 49.2614 88.0216C49.2124 87.3257 49.1044 86.6057 49.2464 85.9554C49.4854 84.6583 49.8154 83.4907 50.1865 82.4634C50.9245 80.407 51.7396 78.8911 52.3366 77.8915C52.6337 77.3903 52.8857 77.0196 53.0567 76.7731C53.2297 76.5265 53.3367 76.4113 53.3367 76.4113C53.3367 76.4113 53.2607 76.5435 53.1027 76.7972C52.9467 77.0518 52.7107 77.4279 52.4297 77.9344C51.8646 78.9447 51.0835 80.466 50.3795 82.517C50.0264 83.5416 49.7144 84.7029 49.4914 85.9902C49.3594 86.6307 49.4754 87.2891 49.5304 88.0028C49.5874 88.7085 49.6924 89.441 49.7754 90.2004C50.1505 93.2358 50.6365 96.6876 51.1876 100.502C51.7626 104.316 52.3916 108.49 53.0657 112.971C53.4227 115.209 53.7918 117.525 54.1728 119.91C54.3738 121.1 54.5788 122.308 54.7869 123.531C54.8979 124.142 55.0109 124.756 55.1239 125.374C55.1819 125.685 55.2399 125.994 55.3169 126.285C55.3819 126.603 55.4819 126.826 55.7119 127.064C56.564 128.01 57.7471 128.79 58.8972 129.561C60.0683 130.323 61.2974 131.046 62.5635 131.736C63.8406 132.427 65.1137 133.089 66.5628 133.487C67.991 133.939 69.4511 134.365 70.9222 134.792C76.8197 136.472 82.9752 138.095 89.3578 139.461C94.4802 140.535 99.5826 141.519 104.497 141.581L104.246 141.784C105.062 135.417 105.847 129.29 106.574 123.607L106.774 123.844C96.4124 122.285 86.9856 120.867 79.0299 119.67L78.9729 119.661L78.9299 119.624C78.1458 118.966 77.3478 118.34 76.5437 117.769C75.7406 117.208 74.9276 116.655 74.0685 116.343L73.9695 116.305L73.9555 116.218C72.8424 109.35 71.9493 103.842 71.3313 100.029C71.0372 98.1472 70.8092 96.6849 70.6502 95.671C70.5802 95.1886 70.5262 94.8143 70.4862 94.5409C70.4522 94.2872 70.4472 94.155 70.4472 94.155" fill="#17282F"/>
<path d="M68.8119 88.6987C68.7409 88.7255 68.2798 87.867 67.5318 86.4895C66.7737 85.1228 65.7246 83.2129 64.0665 81.4388C62.4093 79.67 60.3702 78.5319 58.774 78.0603C57.1739 77.5672 56.0868 77.6279 56.0918 77.5386C56.0908 77.5109 56.3558 77.4689 56.8449 77.4671C57.3309 77.4644 58.041 77.5332 58.885 77.7458C60.5762 78.155 62.7464 79.3029 64.4655 81.1395C66.1787 82.9752 67.1898 84.945 67.8668 86.3529C68.5339 87.7741 68.8729 88.6746 68.8119 88.6987" fill="#17282F"/>
<path d="M64.3726 119.576C64.2616 119.52 65.8687 117.771 68.7039 116.816C71.5292 115.833 74.0324 116.173 73.9914 116.281C73.9944 116.428 71.5862 116.308 68.891 117.251C66.1827 118.159 64.4806 119.687 64.3726 119.576" fill="#17282F"/>
<path d="M67.5206 122.451C67.3936 122.437 68.0427 120.366 70.0729 118.533C72.084 116.682 74.3892 116.061 74.4062 116.173C74.4782 116.306 72.36 117.089 70.4449 118.859C68.5047 120.604 67.6687 122.512 67.5206 122.451" fill="#17282F"/>
<path d="M72.5914 34.4848L72.4233 35.1321L84.1526 38.1287L84.3207 37.4814L72.5914 34.4848Z" fill="white"/>
<path d="M92.366 37.4121C92.3558 37.2789 92.3507 37.2122 92.3404 37.079C92.192 35.1467 91.2535 33.4763 90.041 32.6312C89.396 32.1446 88.6322 31.8683 87.8268 31.9302C87.2228 31.9767 86.6291 32.1564 86.1126 32.4643C84.9558 33.2235 84.1806 34.5566 83.9059 36.2533C83.8644 36.5917 83.8229 36.93 83.7865 37.3349C83.7968 37.4682 83.8121 37.6681 83.8224 37.8013C83.8275 37.868 83.8326 37.9346 83.8428 38.0678C84.0271 40.4665 85.3267 42.4443 86.9937 43.0533C87.4117 43.2223 87.8918 43.3194 88.4287 43.2781C90.7156 43.1692 92.4826 40.6874 92.4587 37.7401C92.3814 37.612 92.3711 37.4788 92.366 37.4121ZM88.3621 42.4119C87.9594 42.4429 87.5465 42.3406 87.1956 42.1665C85.8642 41.5317 84.7864 39.8049 84.6948 37.7342C84.6385 37.0013 84.7215 36.3246 84.8768 35.7095C85.3528 33.9972 86.4738 32.7716 87.8883 32.7298C88.2238 32.704 88.5645 32.7448 88.9154 32.9189C89.0548 32.9752 89.1941 33.0315 89.2663 33.093C90.4687 33.8047 91.4071 35.4752 91.4884 37.4126C91.6932 40.0779 90.2464 42.3339 88.3621 42.4119Z" fill="white"/>
<path d="M99.9648 37.0282C99.7861 33.8248 98.3887 31.4524 96.778 31.5763C96.4425 31.6021 96.1121 31.6945 95.859 31.9151C95.859 31.9151 95.859 31.9151 95.7918 31.9202C95.6008 32.069 95.4148 32.2844 95.2288 32.4998C94.4951 33.4945 94.076 35.0684 94.0902 37.011C94.1005 37.1442 94.1056 37.2109 94.1158 37.3441C94.1261 37.4774 94.1312 37.544 94.1414 37.6773C94.1568 37.8772 94.1721 38.0771 94.1875 38.277C94.4855 40.3988 95.2846 42.0129 96.3425 42.6018C96.6263 42.781 96.8999 42.827 97.2354 42.8012C98.9803 42.667 100.138 40.165 99.9648 37.0282ZM97.3133 42.0579C97.0449 42.0786 96.694 41.9045 96.405 41.6586C95.6776 40.9773 95.0127 39.3529 94.8489 37.2207C94.8387 37.0874 94.8284 36.9542 94.8182 36.8209C94.8193 35.0782 95.1816 33.6428 95.7293 32.8634C95.7913 32.7916 95.7913 32.7916 95.8533 32.7198C96.1632 32.3609 96.4215 32.2069 96.757 32.1811C97.6966 32.1088 98.8363 33.7638 99.1651 36.2854C99.1805 36.4853 99.2009 36.7518 99.2214 37.0184C99.4518 40.0167 98.3922 42.042 97.3133 42.0579Z" fill="white"/>
<path d="M91.9659 37.0806L91.998 37.748L94.5528 37.6235L94.5206 36.956L91.9659 37.0806Z" fill="white"/>
<defs>
<filter id="filter0_d_412_150" x="104.125" y="73.9614" width="48.251" height="45.2062" filterUnits="userSpaceOnUse" color-interpolation-filters="sRGB">
<feFlood flood-opacity="0" result="BackgroundImageFix"/>
<feColorMatrix in="SourceAlpha" type="matrix" values="0 0 0 0 0 0 0 0 0 0 0 0 0 0 0 0 0 0 127 0" result="hardAlpha"/>
<feOffset dy="1"/>
<feGaussianBlur stdDeviation="1"/>
<feComposite in2="hardAlpha" operator="out"/>
<feColorMatrix type="matrix" values="0 0 0 0 0 0 0 0 0 0 0 0 0 0 0 0 0 0 0.1 0"/>
<feBlend mode="normal" in2="BackgroundImageFix" result="effect1_dropShadow_412_150"/>
<feBlend mode="normal" in="SourceGraphic" in2="effect1_dropShadow_412_150" result="shape"/>
</filter>
<linearGradient id="paint0_linear_412_150" x1="89.1784" y1="100.214" x2="87.9331" y2="31.2922" gradientUnits="userSpaceOnUse">
<stop stop-color="#F7668C"/>
<stop offset="1" stop-color="#F2C988"/>
</linearGradient>
</defs>
</svg>
