<svg width="18" height="13" viewBox="0 0 18 13" fill="none" xmlns="http://www.w3.org/2000/svg">
<path d="M9.7793 3.3457C9.7793 2.75195 9.63086 2.22005 9.33398 1.75C9.06185 1.25521 8.69076 0.871743 8.2207 0.599608C7.75065 0.302733 7.21875 0.154295 6.625 0.154295C6.03125 0.154295 5.49935 0.302733 5.0293 0.599608C4.55924 0.871743 4.17578 1.25521 3.87891 1.75C3.60677 2.22005 3.4707 2.75195 3.4707 3.3457C3.4707 3.91471 3.60677 4.44661 3.87891 4.94141C4.17578 5.41146 4.55924 5.79492 5.0293 6.0918C5.49935 6.36393 6.03125 6.5 6.625 6.5C7.21875 6.5 7.75065 6.36393 8.2207 6.0918C8.69076 5.79492 9.06185 5.41146 9.33398 4.94141C9.63086 4.44661 9.7793 3.91471 9.7793 3.3457ZM8.2207 3.3457C8.2207 3.76627 8.0599 4.13737 7.73828 4.45898C7.44141 4.75586 7.07031 4.9043 6.625 4.9043C6.17969 4.9043 5.79622 4.75586 5.47461 4.45898C5.17773 4.13737 5.0293 3.76627 5.0293 3.3457C5.0293 2.90039 5.17773 2.5293 5.47461 2.23242C5.79622 1.91081 6.17969 1.75 6.625 1.75C7.07031 1.75 7.44141 1.91081 7.73828 2.23242C8.0599 2.5293 8.2207 2.90039 8.2207 3.3457ZM0.279296 11.25V12.8457H12.9707V11.25C12.9707 10.8294 12.8223 10.4583 12.5254 10.1367C12.2285 9.79036 11.8327 9.49349 11.3379 9.24609C10.8678 8.97396 10.3483 8.76367 9.7793 8.61523C9.21029 8.44206 8.64128 8.31836 8.07227 8.24414C7.52799 8.14518 7.04557 8.0957 6.625 8.0957C6.20443 8.0957 5.70964 8.14518 5.14062 8.24414C4.59635 8.31836 4.03971 8.44206 3.4707 8.61523C2.90169 8.76367 2.36979 8.97396 1.875 9.24609C1.40495 9.49349 1.02148 9.79036 0.724609 10.1367C0.427734 10.4583 0.279296 10.8294 0.279296 11.25ZM1.875 11.25C1.92448 11.1016 2.08529 10.9408 2.35742 10.7676C2.6543 10.5944 3.03776 10.4212 3.50781 10.248C3.97786 10.0749 4.47266 9.9388 4.99219 9.83984C5.53646 9.71615 6.08073 9.6543 6.625 9.6543C7.16927 9.6543 7.70117 9.71615 8.2207 9.83984C8.76497 9.9388 9.25977 10.0749 9.70508 10.248C10.1751 10.4212 10.5586 10.5944 10.8555 10.7676C11.1523 10.9408 11.3255 11.1016 11.375 11.25H1.875ZM15.3457 8.875V6.5H17.7207V4.9043H15.3457V2.5293H13.75V4.9043H11.375V6.5H13.75V8.875H15.3457Z" fill="white"/>
</svg>
