<svg width="21" height="23" viewBox="0 0 21 23" fill="none" xmlns="http://www.w3.org/2000/svg">
<path d="M15.9108 22.9095C15.8329 22.8589 14.4638 21.4716 14.6573 21.6711L11.7564 18.6802L10.8835 18.6791C8.98438 18.6767 8.07751 18.509 6.94447 17.9508C6.40618 17.6857 3.19612 15.4983 2.86804 15.1732C2.75262 15.0588 2.5949 14.8259 2.51425 14.6507C2.38343 14.3666 2.36873 14.288 2.36873 13.8734C2.36873 13.4556 2.38289 13.3814 2.519 13.0856C2.69962 12.6932 3.00242 12.3756 3.37271 12.1902C3.61042 12.0712 3.69688 12.055 4.10215 12.0539C4.35502 12.0532 4.56199 12.0422 4.56209 12.0295C4.56218 12.0168 3.58837 11.0008 2.39806 9.77179C0.34957 7.6566 0.228249 7.52157 0.128633 7.24582C-0.210644 6.30667 0.137583 5.35313 0.980364 4.91356L1.21597 4.79067L1.02502 4.5162C0.788611 4.1764 0.693643 3.85844 0.695639 3.41341C0.700175 2.4027 1.45177 1.63028 2.43949 1.62125C2.87818 1.61723 3.18104 1.71829 3.51755 1.98096C3.65645 2.08938 3.7732 2.17125 3.777 2.16289C4.05051 1.56088 4.30078 1.27825 4.75001 1.06404C5.25519 0.823158 5.95205 0.87132 6.41089 1.17883L6.5849 1.29544L6.7028 1.03037C7.09965 0.138151 8.20269 -0.259041 9.06724 0.178961C9.30001 0.296889 9.56599 0.545172 10.565 1.57704C11.706 2.75568 11.7797 2.84242 11.7797 3.00794C11.7797 3.12666 11.7398 3.23287 11.6575 3.33353C11.5537 3.4606 11.5029 3.48291 11.3177 3.48291H11.1L9.9421 2.29844C9.30526 1.64698 8.71627 1.0789 8.63323 1.03604C8.42727 0.929742 8.16988 0.938251 7.92673 1.0594C7.57188 1.23621 7.3886 1.64605 7.48889 2.03844C7.53504 2.21902 7.76151 2.47226 9.30168 4.06556C10.2697 5.06697 11.0853 5.93404 11.1141 5.99237C11.2014 6.1692 11.1735 6.33786 11.0297 6.50351C10.9181 6.63215 10.858 6.66097 10.7014 6.66097C10.5227 6.66097 10.4773 6.62847 10.0244 6.17696C9.75741 5.91076 8.77477 4.89705 7.84075 3.92428C6.90673 2.95151 6.04816 2.09374 5.93282 2.01812C5.41898 1.68128 4.73347 1.98913 4.6681 2.58607C4.61283 3.09084 4.50541 2.95538 7.00593 5.53434C9.2877 7.88769 9.30096 7.90251 9.30096 8.10051C9.30096 8.3642 9.08381 8.58104 8.81974 8.58104C8.65094 8.58104 8.53954 8.47311 5.78965 5.64538C2.92448 2.69911 2.7749 2.56039 2.46307 2.56039C2.18763 2.56039 1.83805 2.7901 1.7011 3.06108C1.61678 3.22794 1.60813 3.62501 1.68543 3.78093C1.7167 3.84401 3.02422 5.21826 4.59104 6.83482L7.43978 9.77402V9.98815C7.43978 10.2941 7.26708 10.4746 6.97446 10.4746H6.76265L4.47134 8.12568C2.02992 5.62284 2.0264 5.61981 1.64627 5.69056C1.08893 5.79429 0.783919 6.38673 1.02055 6.90594C1.08048 7.03744 2.01802 8.03312 3.92368 9.9891C5.47172 11.578 6.76876 12.937 6.806 13.0091C6.95052 13.289 6.85774 13.6793 6.60318 13.8625C6.27371 14.0995 6.11157 14.0541 5.17225 13.461C4.59608 13.0972 4.45378 13.0279 4.24602 13.0095C3.92168 12.9808 3.7966 13.0182 3.58905 13.2057C3.19833 13.5588 3.18212 14.1624 3.55403 14.5098C3.62857 14.5794 4.4113 15.135 5.29343 15.7444C6.97953 16.9092 7.52658 17.222 8.25739 17.4389C8.95119 17.6449 9.19807 17.6706 10.7183 17.6946L12.1806 17.7178L15.1694 20.7845C15.0241 20.6266 16.4304 22.0918 16.5055 22.196C16.6906 22.4529 16.684 22.6284 16.4815 22.8369C16.2957 23.0281 16.1262 23.0497 15.9108 22.9095ZM18.043 21.4716C17.8846 21.3801 17.8178 21.2578 17.8178 21.0593C17.8178 20.8537 17.8867 20.7354 18.0608 20.6428C18.4355 20.4433 18.8575 20.8255 18.6974 21.2194C18.6627 21.3049 18.6011 21.4033 18.5604 21.438C18.444 21.5374 18.186 21.5541 18.043 21.4716ZM17.0735 18.9517C16.6867 18.8217 16.4086 18.5825 16.2219 18.2189C16.1155 18.0116 16.0973 17.9159 16.0972 17.5635C16.0971 17.2289 16.1171 17.1119 16.203 16.9457C16.3686 16.6249 16.5748 16.4136 16.8657 16.2666C17.0867 16.1549 17.1958 16.1311 17.4876 16.1311C18.0702 16.1311 18.5029 16.4199 18.7546 16.9766C19.0715 17.6774 18.7453 18.5752 18.0607 18.8869C17.7893 19.0105 17.337 19.0402 17.0735 18.9517ZM17.7806 17.9083C17.9072 17.7919 17.9335 17.7324 17.9335 17.5635C17.9335 17.3945 17.9072 17.335 17.7806 17.2186C17.6099 17.0617 17.4559 17.0421 17.2507 17.1513C17.0823 17.2409 17.0158 17.3605 17.0158 17.5737C17.0158 17.9977 17.4682 18.1956 17.7806 17.9083ZM19.3434 16.0462L16.5519 13.1694L16.5306 12.0041C16.5073 10.7248 16.4544 10.3344 16.2061 9.60971C15.8575 8.59246 15.4811 8.02083 14.4417 6.93022C13.9963 6.46289 13.6079 6.03281 13.5785 5.97448C13.4658 5.75077 13.5454 5.49098 13.7683 5.35549C14.0479 5.18549 14.1382 5.24655 15.1122 6.26336C16.08 7.27379 16.4288 7.74664 16.8001 8.55152C17.2736 9.57774 17.4346 10.3481 17.4708 11.7613L17.4969 12.7809L20.1082 15.4757C21.5504 16.964 20.8032 16.3164 20.8305 16.3921C20.8577 16.4673 20.867 16.5821 20.8511 16.6471C20.8063 16.8311 20.5704 17.0077 20.3695 17.0077C20.2039 17.0077 22.0188 18.8033 19.3434 16.0462ZM13.7019 17.3168C13.5936 17.2518 13.4779 17.0173 13.4779 16.8626C13.4779 16.7949 13.5394 16.6687 13.6146 16.5821C13.974 16.168 14.6028 16.6245 14.3543 17.1191C14.3128 17.2017 14.238 17.2918 14.1881 17.3193C14.073 17.3827 13.8096 17.3813 13.7019 17.3168ZM9.89897 16.2001C9.57895 16.1355 9.29788 15.9733 9.0949 15.7359C8.86263 15.4643 8.76062 15.1624 8.76062 14.7465C8.76062 14.1968 9.03452 13.7447 9.53347 13.4708C9.81625 13.3156 10.4907 13.3171 10.776 13.4735C11.475 13.8567 11.7462 14.7033 11.3991 15.4184C11.3191 15.583 11.1683 15.7923 11.0622 15.8858C10.7663 16.1465 10.2821 16.2773 9.89897 16.2001ZM10.3386 15.2127C10.5313 15.1299 10.6003 15.0103 10.6003 14.7596C10.6003 14.4973 10.4106 14.3104 10.1443 14.3104C9.66377 14.3104 9.51037 14.9755 9.93993 15.1964C10.1391 15.2988 10.1385 15.2988 10.3386 15.2127ZM14.3636 13.7515C14.2052 13.6601 14.1383 13.5377 14.1383 13.3393C14.1383 13.1337 14.2073 13.0154 14.3813 12.9228C14.7561 12.7233 15.178 13.1054 15.018 13.4994C14.9833 13.5849 14.9216 13.6833 14.881 13.7179C14.7645 13.8173 14.5066 13.8341 14.3636 13.7515ZM9.20201 11.2519C8.93921 11.1427 8.85919 10.7086 9.06318 10.4987C9.28211 10.2733 9.58972 10.2907 9.76951 10.5386C10.054 10.9308 9.6504 11.4381 9.20201 11.2519ZM12.3787 10.8415C11.8055 10.6311 11.4525 10.1209 11.4505 9.50007C11.4492 9.08877 11.5517 8.78631 11.7849 8.51363C12.1974 8.03124 12.8938 7.88394 13.4463 8.16219C13.7548 8.31752 13.9671 8.5512 14.1275 8.91176C14.2282 9.13826 14.2412 9.22474 14.2226 9.54517C14.1974 9.98066 14.086 10.24 13.8026 10.5231C13.4582 10.867 12.8305 11.0074 12.3787 10.8415ZM13.1441 9.81484C13.2636 9.71132 13.2892 9.65326 13.2892 9.48577C13.2892 9.22656 13.1911 9.08386 12.9649 9.01412C12.7346 8.94311 12.5083 9.05136 12.4171 9.27617C12.2215 9.7579 12.7541 10.1526 13.1441 9.81484ZM12.4295 4.81528C12.026 4.58992 12.1928 3.9199 12.6524 3.9199C13.1183 3.9199 13.2793 4.59745 12.8656 4.81763C12.6953 4.90824 12.5949 4.9077 12.4295 4.81528Z" fill="#755DAB"/>
</svg>
