<svg width="15" height="13" viewBox="0 0 15 13" fill="none" xmlns="http://www.w3.org/2000/svg">
<path d="M9.01172 1.6748V3.15137H0.0117188V1.6748H2.26172L3 0.901367H5.98828L6.76172 1.6748H9.01172ZM0.75 11.4131V3.9248H8.23828V11.4131C8.23828 11.8115 8.08594 12.1631 7.78125 12.4678C7.5 12.7725 7.16016 12.9248 6.76172 12.9248H2.26172C1.86328 12.9248 1.51172 12.7725 1.20703 12.4678C0.902344 12.1631 0.75 11.8115 0.75 11.4131ZM9.75 6.91309H14.25V8.4248H9.75V6.91309ZM9.75 3.9248H14.9883V5.40137H9.75V3.9248ZM9.75 9.90137H12.7383V11.4131H9.75V9.90137Z" fill="#FE4D97"/>
</svg>
