<svg width="64" height="64" viewBox="0 0 64 64" fill="none" xmlns="http://www.w3.org/2000/svg">
<path d="M3.9444 63.1775C3.35434 63.0899 3.13002 62.9853 2.9419 62.866L2.89933 62.8379C2.33474 62.4657 1.53987 61.6707 1.16762 61.1061C0.905468 60.7084 0.70974 60.2849 0.611018 56.7373C0.513543 53.2346 0.504224 46.8004 0.502985 34.5303L0.500018 8.96054L1.31254 7.74416C1.90848 6.85202 2.61886 6.2384 3.54138 5.84025C4.47502 5.4373 5.65608 5.24209 7.21001 5.24172L9.87667 5.24113L10.3766 5.24102V4.74113V3.02445C10.3766 2.10878 10.5789 1.48145 10.8931 1.09182C11.1933 0.719582 11.6474 0.5 12.3156 0.5C12.8814 0.5 13.3055 0.721243 13.6036 1.12173C13.9146 1.53976 14.1173 2.19534 14.1173 3.09308V4.74113V5.24113H14.6173H32H49.3827H49.8827V4.74113V3.02445C49.8827 2.10879 50.0851 1.48145 50.3993 1.09182C50.6995 0.719582 51.1536 0.5 51.8217 0.5C52.3876 0.5 52.8117 0.721244 53.1097 1.12173C53.4208 1.53976 53.6235 2.19534 53.6235 3.09308V4.74113V5.24101L54.1233 5.24113L56.79 5.24177C58.3439 5.24213 59.525 5.43734 60.4586 5.84029C61.3811 6.23843 62.0915 6.85204 62.6875 7.74419L63.5 8.96054L63.497 34.5303C63.4955 46.8004 63.4862 53.2346 63.3888 56.7373C63.2902 60.285 63.0945 60.7084 62.8324 61.1061C62.4602 61.6707 61.6653 62.4657 61.1007 62.8379C60.9019 62.969 60.6907 63.0831 60.0548 63.1775C59.3937 63.2757 58.3151 63.3463 56.3982 63.3948C52.5732 63.4918 45.5076 63.5 31.9996 63.5C18.4916 63.5 11.426 63.4918 7.60106 63.3948C5.68416 63.3462 4.60551 63.2757 3.9444 63.1775ZM59.7675 22.128L59.7703 21.6253H59.2675H32.0043H4.74111H4.24111V22.1253V40.4313C4.24111 45.4671 4.27106 50.076 4.31934 53.4452C4.34347 55.1294 4.37221 56.5061 4.40418 57.4722C4.42013 57.9544 4.43703 58.3387 4.45485 58.6092C4.46369 58.7433 4.47322 58.8569 4.48394 58.943C4.48913 58.9848 4.49589 59.0309 4.5054 59.0739C4.51 59.0947 4.51771 59.1262 4.53031 59.161L4.53089 59.1626C4.53824 59.183 4.57111 59.2744 4.65364 59.3569L5.00722 59.0034L4.65366 59.357C4.72098 59.4243 4.7908 59.4555 4.81372 59.4655C4.84536 59.4792 4.87287 59.4875 4.88972 59.4922C4.92384 59.5016 4.95572 59.5073 4.97753 59.5107C5.02343 59.518 5.07702 59.5236 5.13166 59.5282C5.24353 59.5377 5.39795 59.5463 5.58849 59.5544C5.97148 59.5705 6.52332 59.5853 7.22313 59.5986C8.62391 59.6254 10.6302 59.6466 13.0923 59.6615C18.0173 59.6914 24.7725 59.6959 32.1696 59.668L59.064 59.5665L59.5593 59.5646L59.5621 59.0693L59.6648 40.5987L59.7675 22.128ZM28.7868 39.6356L29.1361 39.2815L28.7838 38.9303L24.4452 34.6047C22.7545 32.9192 21.6882 31.7967 21.0453 30.9978C20.3857 30.1783 20.2535 29.7937 20.2535 29.5682C20.2535 28.9825 20.4497 28.545 20.7622 28.2517C21.0781 27.9552 21.5608 27.7615 22.2111 27.7615C22.5619 27.7615 22.9367 27.8645 23.6969 28.4482C24.4696 29.0414 25.5694 30.0747 27.3628 31.8421L31.6494 36.0666L32.0004 36.4125L32.3513 36.0666L36.638 31.8421C38.4314 30.0747 39.5312 29.0414 40.3039 28.4482C41.0641 27.8645 41.4389 27.7615 41.7897 27.7615C42.44 27.7615 42.9227 27.9552 43.2386 28.2517C43.5511 28.545 43.7473 28.9825 43.7473 29.5682C43.7473 29.7937 43.6151 30.1783 42.9555 30.9978C42.3125 31.7967 41.2463 32.9192 39.5556 34.6047L35.2169 38.9303L34.8647 39.2815L35.214 39.6356L39.5527 44.0334C41.3779 45.8835 42.4399 47.0102 43.0475 47.7974C43.645 48.5715 43.7473 48.9475 43.7473 49.3037C43.7473 50.3247 42.848 51.2325 41.7725 51.2568C41.7601 51.2516 41.7406 51.2428 41.7131 51.2285C41.6318 51.1863 41.5185 51.1166 41.3721 51.0152C41.0808 50.8133 40.6957 50.5117 40.2351 50.1233C39.3159 49.3483 38.1248 48.252 36.8341 46.9785L32.3516 42.5555L32.0004 42.209L31.6492 42.5555L27.1667 46.9785C25.876 48.252 24.6848 49.3483 23.7657 50.1233C23.3051 50.5117 22.9199 50.8133 22.6287 51.0152C22.4823 51.1166 22.369 51.1863 22.2877 51.2285C22.2619 51.2419 22.2432 51.2505 22.2307 51.2558C22.1027 51.2471 21.8972 51.2007 21.6512 51.1084C21.3854 51.0088 21.1191 50.8733 20.9184 50.7327L20.6315 51.1423L20.9184 50.7327C20.4865 50.4302 20.2535 49.9837 20.2535 49.3037C20.2535 48.9475 20.3558 48.5715 20.9533 47.7974C21.5609 47.0102 22.6228 45.8835 24.4481 44.0334L28.7868 39.6356ZM59.7891 9.8929L59.8051 9.37736H59.2893H56.7066H54.1239H53.6239V9.87736V11.5254C53.6239 12.4231 53.4212 13.0787 53.1101 13.4967C52.8121 13.8972 52.388 14.1185 51.8222 14.1185C51.154 14.1185 50.6999 13.8989 50.3997 13.5267C50.0855 13.137 49.8831 12.5097 49.8831 11.594V9.87736V9.37736H49.3831H32.0004H14.6177H14.1177V9.87736V11.5254C14.1177 12.4231 13.9151 13.0787 13.604 13.4967C13.3059 13.8972 12.8818 14.1185 12.316 14.1185C11.6478 14.1185 11.1937 13.8989 10.8935 13.5267C10.5793 13.137 10.377 12.5097 10.377 11.594V9.87736V9.37736H9.87697H7.30907H4.74116H4.24116V9.87736V13.3673C4.24116 14.3361 4.27134 15.2506 4.32058 15.9457C4.34512 16.2919 4.37494 16.5919 4.40964 16.82C4.42681 16.9328 4.44681 17.0392 4.47112 17.1292C4.48319 17.1739 4.49899 17.2246 4.5203 17.2745C4.53753 17.3149 4.57676 17.4001 4.6537 17.477C4.72102 17.5443 4.79084 17.5756 4.81377 17.5855C4.84541 17.5992 4.87292 17.6076 4.88977 17.6122C4.92388 17.6216 4.95576 17.6273 4.97757 17.6308C5.02348 17.6381 5.07707 17.6436 5.1317 17.6483C5.24358 17.6577 5.39799 17.6663 5.58854 17.6744C5.97153 17.6906 6.52336 17.7053 7.22318 17.7187C8.62396 17.7454 10.6302 17.7666 13.0924 17.7816C18.0173 17.8114 24.7726 17.816 32.1697 17.7881L59.064 17.6866L59.5469 17.6847L59.5619 17.2021L59.6755 13.5475L59.7891 9.8929Z" fill="#755DAB" stroke="#F8F9FC"/>
</svg>
