<svg width="14" height="18" viewBox="0 0 14 18" fill="none" xmlns="http://www.w3.org/2000/svg">
<path d="M1.5 0.75H12.5V2.59766H1.5V0.75ZM11.5977 3.5H2.40234C1.91536 3.5 1.48568 3.6862 1.11328 4.05859C0.769531 4.40234 0.597656 4.83203 0.597656 5.34766V15.4023C0.597656 15.918 0.769531 16.362 1.11328 16.7344C1.48568 17.0781 1.91536 17.25 2.40234 17.25H11.5977C12.0846 17.25 12.5 17.0781 12.8438 16.7344C13.2161 16.362 13.4023 15.918 13.4023 15.4023V5.34766C13.4023 4.83203 13.2161 4.40234 12.8438 4.05859C12.5 3.6862 12.0846 3.5 11.5977 3.5ZM10.6523 11.75H8.375V14.0273H5.625V11.75H3.34766V9H5.625V6.72266H8.375V9H10.6523V11.75Z" fill="#755DAB"/>
</svg>
