<svg width="20" height="16" viewBox="0 0 20 16" fill="none" xmlns="http://www.w3.org/2000/svg">
<path d="M12.8359 8.42969L11.8477 6.36719L8.96875 12.082C8.82552 12.4258 8.55339 12.5977 8.15234 12.5977C7.77995 12.5977 7.50781 12.4258 7.33594 12.082L5.74609 8.90234H0.847656V13.5C0.847656 14.0156 1.01953 14.4596 1.36328 14.832C1.73568 15.1758 2.16536 15.3477 2.65234 15.3477H17.3477C17.8346 15.3477 18.25 15.1758 18.5938 14.832C18.9661 14.4596 19.1523 14.0156 19.1523 13.5V8.90234H13.6523C13.2799 8.90234 13.0078 8.74479 12.8359 8.42969ZM17.3477 0.652344H2.65234C2.16536 0.652344 1.73568 0.838542 1.36328 1.21094C1.01953 1.55469 0.847656 1.98438 0.847656 2.5V7.09766H6.34766C6.72005 7.09766 6.99219 7.25521 7.16406 7.57031L8.15234 9.63281L11.0312 3.91797C11.1172 3.71745 11.2747 3.58854 11.5039 3.53125C11.7331 3.44531 11.9479 3.44531 12.1484 3.53125C12.3776 3.58854 12.5495 3.71745 12.6641 3.91797L14.2539 7.09766H19.1523V2.5C19.1523 1.98438 18.9661 1.55469 18.5938 1.21094C18.25 0.838542 17.8346 0.652344 17.3477 0.652344Z" fill="#755DAB"/>
</svg>
