<svg width="20" height="20" viewBox="0 0 20 20" fill="none" xmlns="http://www.w3.org/2000/svg">
<path d="M17.3477 8.15234V2.65234H2.65234V8.15234H17.3477ZM17.3477 12.75V10.9023H2.65234V12.75H17.3477ZM17.3477 0.847656C17.8633 0.847656 18.293 1.01953 18.6367 1.36328C18.9805 1.70703 19.1523 2.13672 19.1523 2.65234V12.75C19.1523 13.2656 18.9805 13.7096 18.6367 14.082C18.293 14.4258 17.8633 14.5977 17.3477 14.5977H13.6523V19.1523L10 17.3477L6.34766 19.1523V14.5977H2.65234C2.13672 14.5977 1.70703 14.4258 1.36328 14.082C1.01953 13.7096 0.847656 13.2656 0.847656 12.75V2.65234C0.847656 2.13672 1.01953 1.70703 1.36328 1.36328C1.70703 1.01953 2.13672 0.847656 2.65234 0.847656H17.3477Z" fill="#7B8A8A"/>
</svg>
