<svg width="20" height="22" viewBox="0 0 20 22" fill="none" xmlns="http://www.w3.org/2000/svg">
<path d="M14.5977 15.5977V14.2227C14.5977 13.5352 14.0677 12.9766 13.0078 12.5469C11.9766 12.1172 10.974 11.9023 10 11.9023C9.02604 11.9023 8.00911 12.1172 6.94922 12.5469C5.91797 12.9766 5.40234 13.5352 5.40234 14.2227V15.5977H14.5977ZM11.4609 6.78906C11.0599 6.38802 10.5729 6.1875 10 6.1875C9.42708 6.1875 8.9401 6.38802 8.53906 6.78906C8.13802 7.1901 7.9375 7.67708 7.9375 8.25C7.9375 8.82292 8.13802 9.3099 8.53906 9.71094C8.9401 10.112 9.42708 10.3125 10 10.3125C10.5729 10.3125 11.0599 10.112 11.4609 9.71094C11.862 9.3099 12.0625 8.82292 12.0625 8.25C12.0625 7.67708 11.862 7.1901 11.4609 6.78906ZM17.3477 3.65234C17.8346 3.65234 18.25 3.83854 18.5938 4.21094C18.9661 4.58333 19.1523 5.01302 19.1523 5.5V16.5C19.1523 16.987 18.9661 17.4167 18.5938 17.7891C18.25 18.1615 17.8346 18.3477 17.3477 18.3477H2.65234C2.16536 18.3477 1.73568 18.1615 1.36328 17.7891C1.01953 17.4167 0.847656 16.987 0.847656 16.5V5.5C0.847656 5.01302 1.01953 4.58333 1.36328 4.21094C1.73568 3.83854 2.16536 3.65234 2.65234 3.65234H17.3477ZM2.65234 22V20.1523H17.3477V22H2.65234ZM17.3477 0V1.84766H2.65234V0H17.3477Z" fill="#7B8A8A"/>
</svg>
