<svg width="20" height="14" viewBox="0 0 20 14" fill="none" xmlns="http://www.w3.org/2000/svg">
<path d="M18.1054 11.0783V5.52985H14.9613V11.0783H18.1054ZM18.9192 3.97627C19.1411 3.97627 19.3261 4.05025 19.474 4.19821C19.622 4.34617 19.696 4.53112 19.696 4.75306V12.6319C19.696 12.8539 19.622 13.0511 19.474 13.2238C19.3261 13.3717 19.1411 13.4457 18.9192 13.4457H14.1845C13.9625 13.4457 13.7653 13.3717 13.5926 13.2238C13.4447 13.0511 13.3707 12.8539 13.3707 12.6319V4.75306C13.3707 4.53112 13.4447 4.34617 13.5926 4.19821C13.7653 4.05025 13.9625 3.97627 14.1845 3.97627H18.9192ZM3.90128 2.38571V11.0783H11.8171V13.4457H0.757138V11.0783H2.34771V2.38571C2.34771 1.96649 2.49567 1.59659 2.79158 1.27601C3.11216 0.95543 3.48206 0.79514 3.90128 0.79514H18.1054V2.38571H3.90128Z" fill="#755DAB"/>
</svg>
