<svg width="18" height="15" viewBox="0 0 18 15" fill="none" xmlns="http://www.w3.org/2000/svg">
<path d="M8.2207 10.6543V8.2793H0.279296V6.7207H8.2207V4.3457L11.375 7.5L8.2207 10.6543ZM16.125 0.374998C16.5703 0.374998 16.9414 0.535806 17.2383 0.85742C17.5599 1.1543 17.7207 1.52539 17.7207 1.9707V13.0664C17.7207 13.487 17.5599 13.8581 17.2383 14.1797C16.9167 14.4766 16.5456 14.625 16.125 14.625H1.875C1.45443 14.625 1.08333 14.4766 0.761718 14.1797C0.440103 13.8581 0.279296 13.487 0.279296 13.0664V9.875H1.875V13.0664H16.125V1.93359H1.875V5.125H0.279296V1.9707C0.279296 1.55013 0.440103 1.17903 0.761718 0.85742C1.08333 0.535806 1.45443 0.374998 1.875 0.374998H16.125Z" fill="white"/>
</svg>
