<svg width="20" height="20" viewBox="0 0 20 20" fill="none" xmlns="http://www.w3.org/2000/svg">
<path d="M13.6523 2.65234C13.6523 2.16536 13.8242 1.75 14.168 1.40625C14.5404 1.03385 14.9844 0.847656 15.5 0.847656C16.0156 0.847656 16.4453 1.03385 16.7891 1.40625C17.1615 1.75 17.3477 2.16536 17.3477 2.65234C17.3477 3.16797 17.1615 3.61198 16.7891 3.98438C16.4453 4.32812 16.0156 4.5 15.5 4.5C14.9844 4.5 14.5404 4.32812 14.168 3.98438C13.8242 3.61198 13.6523 3.16797 13.6523 2.65234ZM17.3477 19.1523V13.6523H19.625L17.3047 6.69141C17.1615 6.29036 16.9323 5.97526 16.6172 5.74609C16.3021 5.51693 15.944 5.40234 15.543 5.40234H15.457C15.056 5.40234 14.6979 5.51693 14.3828 5.74609C14.0677 5.97526 13.8385 6.29036 13.6953 6.69141L12.9219 9.05469C13.4089 9.3125 13.8099 9.69922 14.125 10.2148C14.4401 10.7018 14.5977 11.2461 14.5977 11.8477V19.1523H17.3477ZM10.4727 9.52734C10.8451 9.52734 11.1602 9.39844 11.418 9.14062C11.7044 8.88281 11.8477 8.55339 11.8477 8.15234C11.8477 7.77995 11.7044 7.46484 11.418 7.20703C11.1602 6.92057 10.8451 6.77734 10.4727 6.77734C10.0716 6.77734 9.74219 6.92057 9.48438 7.20703C9.22656 7.46484 9.09766 7.77995 9.09766 8.15234C9.09766 8.55339 9.22656 8.88281 9.48438 9.14062C9.74219 9.39844 10.0716 9.52734 10.4727 9.52734ZM4.02734 4.5C4.54297 4.5 4.97266 4.32812 5.31641 3.98438C5.6888 3.61198 5.875 3.16797 5.875 2.65234C5.875 2.16536 5.6888 1.75 5.31641 1.40625C4.97266 1.03385 4.54297 0.847656 4.02734 0.847656C3.54036 0.847656 3.11068 1.03385 2.73828 1.40625C2.39453 1.75 2.22266 2.16536 2.22266 2.65234C2.22266 3.16797 2.39453 3.61198 2.73828 3.98438C3.11068 4.32812 3.54036 4.5 4.02734 4.5ZM5.875 19.1523V12.75H7.25V7.25C7.25 6.73438 7.0638 6.30469 6.69141 5.96094C6.34766 5.58854 5.91797 5.40234 5.40234 5.40234H2.65234C2.16536 5.40234 1.73568 5.58854 1.36328 5.96094C1.01953 6.30469 0.847656 6.73438 0.847656 7.25V12.75H2.22266V19.1523H5.875ZM11.8477 19.1523V15.5H12.75V11.8477C12.75 11.4753 12.6068 11.1602 12.3203 10.9023C12.0625 10.6159 11.7474 10.4727 11.375 10.4727H9.52734C9.15495 10.4727 8.82552 10.6159 8.53906 10.9023C8.28125 11.1602 8.15234 11.4753 8.15234 11.8477V15.5H9.09766V19.1523H11.8477Z" fill="#755DAB"/>
</svg>
