<svg width="16" height="16" viewBox="0 0 16 16" fill="none" xmlns="http://www.w3.org/2000/svg">
<path d="M4.51172 4.23828H1.48828C1.08984 4.23828 0.738281 4.39062 0.433594 4.69531C0.152344 4.97656 0.0117188 5.32812 0.0117188 5.75V10.25H1.48828V15.4883H4.51172V10.25H5.98828V5.75C5.98828 5.32812 5.83594 4.97656 5.53125 4.69531C5.25 4.39062 4.91016 4.23828 4.51172 4.23828ZM1.48828 1.98828C1.48828 1.58984 1.62891 1.25 1.91016 0.96875C2.21484 0.664062 2.57812 0.511719 3 0.511719C3.42188 0.511719 3.77344 0.664062 4.05469 0.96875C4.35938 1.25 4.51172 1.58984 4.51172 1.98828C4.51172 2.41016 4.35938 2.77344 4.05469 3.07812C3.77344 3.35938 3.42188 3.5 3 3.5C2.57812 3.5 2.21484 3.35938 1.91016 3.07812C1.62891 2.77344 1.48828 2.41016 1.48828 1.98828Z" fill="#755DAB"/>
<path d="M12 3.875C12.4583 3.875 12.8307 3.71745 13.1172 3.40234C13.4323 3.08724 13.5898 2.71484 13.5898 2.28516C13.5898 1.82682 13.4323 1.4401 13.1172 1.125C12.8307 0.809896 12.4583 0.652344 12 0.652344C11.5417 0.652344 11.1549 0.809896 10.8398 1.125C10.5534 1.4401 10.4102 1.82682 10.4102 2.28516C10.4102 2.71484 10.5534 3.08724 10.8398 3.40234C11.1549 3.71745 11.5417 3.875 12 3.875ZM13.8477 11.6523V15.3477H10.1523V11.6523H8.34766L10.4961 5.80859C10.6107 5.52214 10.7969 5.27865 11.0547 5.07812C11.3411 4.8776 11.6562 4.77734 12 4.77734C12.3438 4.77734 12.6445 4.8776 12.9023 5.07812C13.1888 5.27865 13.3893 5.52214 13.5039 5.80859L15.6523 11.6523H13.8477Z" fill="#755DAB"/>
</svg>
