<svg width="8" height="16" viewBox="0 0 8 16" fill="none" xmlns="http://www.w3.org/2000/svg">
<path d="M4 3.875C4.45833 3.875 4.83073 3.71745 5.11719 3.40234C5.43229 3.08724 5.58984 2.71484 5.58984 2.28516C5.58984 1.82682 5.43229 1.4401 5.11719 1.125C4.83073 0.809896 4.45833 0.652344 4 0.652344C3.54167 0.652344 3.15495 0.809896 2.83984 1.125C2.55339 1.4401 2.41016 1.82682 2.41016 2.28516C2.41016 2.71484 2.55339 3.08724 2.83984 3.40234C3.15495 3.71745 3.54167 3.875 4 3.875ZM5.84766 11.6523V15.3477H2.15234V11.6523H0.347656L2.49609 5.80859C2.61068 5.52214 2.79688 5.27865 3.05469 5.07812C3.34115 4.8776 3.65625 4.77734 4 4.77734C4.34375 4.77734 4.64453 4.8776 4.90234 5.07812C5.1888 5.27865 5.38932 5.52214 5.50391 5.80859L7.65234 11.6523H5.84766Z" fill="#755DAB"/>
</svg>
