<svg width="18" height="18" viewBox="0 0 18 18" fill="none" xmlns="http://www.w3.org/2000/svg">
<path d="M5.27344 12.7266C6.30469 13.7344 7.54688 14.2383 9 14.2383C10.4531 14.2383 11.6836 13.7344 12.6914 12.7266C13.7227 11.6953 14.2383 10.4531 14.2383 9C14.2383 7.54688 13.7227 6.31641 12.6914 5.30859C11.6836 4.27734 10.4531 3.76172 9 3.76172C7.54688 3.76172 6.30469 4.27734 5.27344 5.30859C4.26562 6.31641 3.76172 7.54688 3.76172 9C3.76172 10.4531 4.26562 11.6953 5.27344 12.7266ZM15.7148 8.26172H17.2617V9.73828H15.7148C15.5508 11.2148 14.8828 12.5391 13.7109 13.7109C12.5391 14.8828 11.2148 15.5508 9.73828 15.7148V17.2617H8.26172V15.7148C6.78516 15.5508 5.46094 14.8828 4.28906 13.7109C3.11719 12.5391 2.44922 11.2148 2.28516 9.73828H0.738281V8.26172H2.28516C2.44922 6.78516 3.11719 5.46094 4.28906 4.28906C5.46094 3.11719 6.78516 2.44922 8.26172 2.28516V0.738281H9.73828V2.28516C11.2148 2.44922 12.5391 3.11719 13.7109 4.28906C14.8828 5.46094 15.5508 6.78516 15.7148 8.26172ZM6.89062 6.89062C7.47656 6.30469 8.17969 6.01172 9 6.01172C9.82031 6.01172 10.5234 6.30469 11.1094 6.89062C11.6953 7.47656 11.9883 8.17969 11.9883 9C11.9883 9.82031 11.6953 10.5234 11.1094 11.1094C10.5234 11.6953 9.82031 11.9883 9 11.9883C8.17969 11.9883 7.47656 11.6953 6.89062 11.1094C6.30469 10.5234 6.01172 9.82031 6.01172 9C6.01172 8.17969 6.30469 7.47656 6.89062 6.89062Z" fill="#755DAB"/>
</svg>
