<svg width="15" height="9" viewBox="0 0 15 9" fill="none" xmlns="http://www.w3.org/2000/svg">
<path d="M9.99023 5.11523C10.5371 5.11523 11.1328 5.19336 11.7773 5.34961C12.4219 5.50586 13.0176 5.75977 13.5645 6.11133C14.1113 6.46289 14.3848 6.86328 14.3848 7.3125V8.86523H10.6348V7.3125C10.6348 6.45312 10.2246 5.73047 9.4043 5.14453C9.54102 5.125 9.73633 5.11523 9.99023 5.11523ZM3.22266 5.34961C3.86719 5.19336 4.46289 5.11523 5.00977 5.11523C5.55664 5.11523 6.15234 5.19336 6.79688 5.34961C7.44141 5.50586 8.02734 5.75977 8.55469 6.11133C9.10156 6.46289 9.375 6.86328 9.375 7.3125V8.86523H0.615234V7.3125C0.615234 6.86328 0.888672 6.46289 1.43555 6.11133C1.98242 5.75977 2.57812 5.50586 3.22266 5.34961ZM6.29883 3.32812C5.94727 3.69922 5.51758 3.88477 5.00977 3.88477C4.50195 3.88477 4.0625 3.69922 3.69141 3.32812C3.32031 2.95703 3.13477 2.51758 3.13477 2.00977C3.13477 1.50195 3.32031 1.0625 3.69141 0.691406C4.0625 0.320312 4.50195 0.134766 5.00977 0.134766C5.51758 0.134766 5.94727 0.320312 6.29883 0.691406C6.66992 1.0625 6.85547 1.50195 6.85547 2.00977C6.85547 2.51758 6.66992 2.95703 6.29883 3.32812ZM11.3086 3.32812C10.9375 3.69922 10.498 3.88477 9.99023 3.88477C9.48242 3.88477 9.04297 3.69922 8.67188 3.32812C8.30078 2.95703 8.11523 2.51758 8.11523 2.00977C8.11523 1.50195 8.30078 1.0625 8.67188 0.691406C9.04297 0.320312 9.48242 0.134766 9.99023 0.134766C10.498 0.134766 10.9375 0.320312 11.3086 0.691406C11.6797 1.0625 11.8652 1.50195 11.8652 2.00977C11.8652 2.51758 11.6797 2.95703 11.3086 3.32812Z" fill="#755DAB"/>
</svg>
