<svg width="18" height="18" viewBox="0 0 18 18" fill="none" xmlns="http://www.w3.org/2000/svg">
<path d="M5.77734 10.375L2.59766 14.5H15.4023L11.2773 9L8.09766 13.125L5.77734 10.375ZM17.25 15.4023C17.25 15.8893 17.0638 16.319 16.6914 16.6914C16.319 17.0638 15.8893 17.25 15.4023 17.25H2.59766C2.11068 17.25 1.68099 17.0638 1.30859 16.6914C0.936198 16.319 0.75 15.8893 0.75 15.4023V2.59766C0.75 2.11068 0.936198 1.68099 1.30859 1.30859C1.68099 0.936198 2.11068 0.75 2.59766 0.75H15.4023C15.8893 0.75 16.319 0.936198 16.6914 1.30859C17.0638 1.68099 17.25 2.11068 17.25 2.59766V15.4023Z" fill="#755DAB"/>
</svg>
