<svg width="19" height="20" viewBox="0 0 19 20" fill="none" xmlns="http://www.w3.org/2000/svg">
<path d="M9.09766 4.02734H6.34766V2.65234H6.77734C7.03516 2.65234 7.25 2.56641 7.42188 2.39453C7.6224 2.22266 7.72266 2.00781 7.72266 1.75C7.72266 1.49219 7.6224 1.27734 7.42188 1.10547C7.25 0.933594 7.03516 0.847656 6.77734 0.847656H4.02734C3.79818 0.847656 3.58333 0.933594 3.38281 1.10547C3.21094 1.27734 3.125 1.49219 3.125 1.75C3.125 2.00781 3.21094 2.22266 3.38281 2.39453C3.58333 2.56641 3.79818 2.65234 4.02734 2.65234H4.5V4.02734H1.75C1.49219 4.02734 1.27734 4.1276 1.10547 4.32812C0.933594 4.5 0.847656 4.71484 0.847656 4.97266C0.847656 5.20182 0.933594 5.41667 1.10547 5.61719C1.27734 5.78906 1.49219 5.875 1.75 5.875V12.75C1.75 13.2656 1.92188 13.7096 2.26562 14.082C2.63802 14.4258 3.08203 14.5977 3.59766 14.5977H4.5V18.25L6.34766 19.625V14.5977H7.25C7.76562 14.5977 8.19531 14.4258 8.53906 14.082C8.91146 13.7096 9.09766 13.2656 9.09766 12.75V5.875C9.32682 5.875 9.52734 5.78906 9.69922 5.61719C9.89974 5.41667 10 5.20182 10 4.97266C10 4.71484 9.89974 4.5 9.69922 4.32812C9.52734 4.1276 9.32682 4.02734 9.09766 4.02734ZM7.25 7.25H5.66016C5.45964 7.25 5.28776 7.32161 5.14453 7.46484C5.02995 7.57943 4.97266 7.73698 4.97266 7.9375C4.97266 8.13802 5.02995 8.3099 5.14453 8.45312C5.28776 8.56771 5.45964 8.625 5.66016 8.625H7.25V10H5.66016C5.45964 10 5.28776 10.0716 5.14453 10.2148C5.02995 10.3294 4.97266 10.487 4.97266 10.6875C4.97266 10.888 5.02995 11.0599 5.14453 11.2031C5.28776 11.3177 5.45964 11.375 5.66016 11.375H7.25V12.75H3.59766V5.875H7.25V7.25ZM16.875 8.625V8.15234C17.1328 8.15234 17.3477 8.06641 17.5195 7.89453C17.6914 7.72266 17.7773 7.50781 17.7773 7.25C17.7773 6.99219 17.6914 6.77734 17.5195 6.60547C17.3477 6.43359 17.1328 6.34766 16.875 6.34766H12.2773C12.0482 6.34766 11.8333 6.43359 11.6328 6.60547C11.4609 6.77734 11.375 6.99219 11.375 7.25C11.375 7.50781 11.4609 7.72266 11.6328 7.89453C11.8333 8.06641 12.0482 8.15234 12.2773 8.15234V8.625C12.2773 8.73958 12.2057 8.86849 12.0625 9.01172C11.9479 9.15495 11.7904 9.32682 11.5898 9.52734C11.418 9.72786 11.2604 9.98568 11.1172 10.3008C10.974 10.5872 10.9023 10.9453 10.9023 11.375V17.3477C10.9023 17.8346 11.0742 18.2643 11.418 18.6367C11.7904 18.9805 12.2344 19.1523 12.75 19.1523H16.4023C16.918 19.1523 17.3477 18.9805 17.6914 18.6367C18.0638 18.2643 18.25 17.8346 18.25 17.3477V11.375C18.25 10.9453 18.1784 10.5872 18.0352 10.3008C17.8919 9.98568 17.7344 9.72786 17.5625 9.52734C17.3906 9.32682 17.2331 9.15495 17.0898 9.01172C16.9466 8.86849 16.875 8.73958 16.875 8.625ZM14.125 8.625V8.15234H15.0273V8.625C15.0273 8.9974 15.099 9.3125 15.2422 9.57031C15.3854 9.79948 15.543 10.0143 15.7148 10.2148C15.9154 10.3867 16.0729 10.5729 16.1875 10.7734C16.3307 10.9453 16.4023 11.1458 16.4023 11.375V11.8477H12.75C12.75 11.7331 12.75 11.6471 12.75 11.5898C12.75 11.5039 12.75 11.4323 12.75 11.375C12.75 11.1458 12.8216 10.9453 12.9648 10.7734C13.1081 10.5729 13.2656 10.3867 13.4375 10.2148C13.6094 10.0143 13.7669 9.79948 13.9102 9.57031C14.0534 9.3125 14.125 8.9974 14.125 8.625ZM12.75 17.3477C12.75 17.3477 12.75 17.2188 12.75 16.9609C12.75 16.7031 12.75 16.3737 12.75 15.9727H16.4023V17.3477H12.75Z" fill="#755DAB"/>
</svg>
