<svg width="14" height="15" viewBox="0 0 14 15" fill="none" xmlns="http://www.w3.org/2000/svg">
<path d="M12.2383 10.25V8.73828H10.7617V10.25H12.2383ZM12.2383 13.2383V11.7617H10.7617V13.2383H12.2383ZM7.73828 4.23828V2.76172H6.26172V4.23828H7.73828ZM7.73828 7.26172V5.75H6.26172V7.26172H7.73828ZM7.73828 10.25V8.73828H6.26172V10.25H7.73828ZM7.73828 13.2383V11.7617H6.26172V13.2383H7.73828ZM3.23828 7.26172V5.75H1.76172V7.26172H3.23828ZM3.23828 10.25V8.73828H1.76172V10.25H3.23828ZM3.23828 13.2383V11.7617H1.76172V13.2383H3.23828ZM9.25 7.26172H13.75V14.75H0.25V4.23828H4.75V2.76172L7 0.511719L9.25 2.76172V7.26172Z" fill="#755DAB"/>
</svg>
