<svg width="20" height="20" viewBox="0 0 20 20" fill="none" xmlns="http://www.w3.org/2000/svg">
<path d="M11.8477 9.52734V6.77734H12.75V9.52734H11.8477ZM2.65234 4.5V17.3477H15.5V19.1523H2.65234C2.16536 19.1523 1.73568 18.9805 1.36328 18.6367C1.01953 18.2643 0.847656 17.8346 0.847656 17.3477V4.5H2.65234ZM7.25 7.72266V6.77734H8.15234V7.72266H7.25ZM17.7773 6.77734V5.40234H15.0273V10.9023H16.4023V9.09766H17.7773V7.72266H16.4023V6.77734H17.7773ZM14.125 9.52734V6.77734C14.125 6.40495 13.9961 6.08984 13.7383 5.83203C13.4805 5.54557 13.151 5.40234 12.75 5.40234H10.4727V10.9023H12.75C13.151 10.9023 13.4805 10.7734 13.7383 10.5156C13.9961 10.2292 14.125 9.89974 14.125 9.52734ZM9.52734 7.72266V6.77734C9.52734 6.40495 9.38411 6.08984 9.09766 5.83203C8.83984 5.54557 8.52474 5.40234 8.15234 5.40234H5.875V10.9023H7.25V9.09766H8.15234C8.52474 9.09766 8.83984 8.96875 9.09766 8.71094C9.38411 8.42448 9.52734 8.09505 9.52734 7.72266ZM17.3477 0.847656C17.8346 0.847656 18.25 1.03385 18.5938 1.40625C18.9661 1.75 19.1523 2.16536 19.1523 2.65234V13.6523C19.1523 14.1393 18.9661 14.569 18.5938 14.9414C18.25 15.3138 17.8346 15.5 17.3477 15.5H6.34766C5.86068 15.5 5.43099 15.3138 5.05859 14.9414C4.6862 14.569 4.5 14.1393 4.5 13.6523V2.65234C4.5 2.16536 4.6862 1.75 5.05859 1.40625C5.43099 1.03385 5.86068 0.847656 6.34766 0.847656H17.3477Z" fill="#755DAB"/>
</svg>
