<svg width="12" height="18" viewBox="0 0 12 18" fill="none" xmlns="http://www.w3.org/2000/svg">
<path d="M9.9375 13.5V2.98828H2.0625V13.5H9.9375ZM7.51172 15.75V15.0117H4.48828V15.75H7.51172ZM8.98828 0.738281C9.59766 0.738281 10.125 0.960937 10.5703 1.40625C11.0156 1.85156 11.2383 2.37891 11.2383 2.98828V15.0117C11.2383 15.6211 11.0156 16.1484 10.5703 16.5938C10.125 17.0391 9.59766 17.2617 8.98828 17.2617H3.01172C2.40234 17.2617 1.875 17.0391 1.42969 16.5938C0.984375 16.1484 0.761719 15.6211 0.761719 15.0117V2.98828C0.761719 2.37891 0.984375 1.85156 1.42969 1.40625C1.875 0.960937 2.40234 0.738281 3.01172 0.738281H8.98828Z" fill="#755DAB"/>
</svg>
