<svg width="17" height="16" viewBox="0 0 17 16" fill="none" xmlns="http://www.w3.org/2000/svg">
<path d="M9.02554 3.96108V8.10395L12.5766 10.2124L11.9847 11.2111L7.84186 8.69579V3.96108H9.02554ZM4.14287 12.3948C5.40053 13.6278 6.89246 14.2443 8.61865 14.2443C10.3448 14.2443 11.8244 13.6278 13.0574 12.3948C14.3151 11.1371 14.9439 9.6452 14.9439 7.919C14.9439 6.19281 14.3151 4.71321 13.0574 3.48021C11.8244 2.22255 10.3448 1.59372 8.61865 1.59372C6.89246 1.59372 5.40053 2.22255 4.14287 3.48021C2.90987 4.71321 2.29337 6.19281 2.29337 7.919C2.29337 9.6452 2.90987 11.1371 4.14287 12.3948ZM3.03317 2.37051C4.58675 0.816935 6.44858 0.0401466 8.61865 0.0401466C10.7887 0.0401466 12.6382 0.816935 14.1671 2.37051C15.7207 3.89943 16.4975 5.74893 16.4975 7.919C16.4975 10.0891 15.7207 11.9509 14.1671 13.5045C12.6382 15.0334 10.7887 15.7979 8.61865 15.7979C6.44858 15.7979 4.58675 15.0334 3.03317 13.5045C1.50425 11.9509 0.739795 10.0891 0.739795 7.919C0.739795 5.74893 1.50425 3.89943 3.03317 2.37051Z" fill="#755DAB"/>
</svg>
