<svg width="16" height="20" viewBox="0 0 16 20" fill="none" xmlns="http://www.w3.org/2000/svg">
<path d="M6.625 10.9023H4.34766V8.15234H6.625V5.875H9.375V8.15234H11.6523V10.9023H9.375V13.2227H6.625V10.9023ZM8 0.847656L0.652344 3.59766V9.18359C0.652344 10.3294 0.838542 11.4466 1.21094 12.5352C1.58333 13.6237 2.09896 14.6263 2.75781 15.543C3.41667 16.431 4.1901 17.1901 5.07812 17.8203C5.96615 18.4505 6.9401 18.8945 8 19.1523C9.0599 18.8945 10.0339 18.4505 10.9219 17.8203C11.8099 17.1901 12.5833 16.431 13.2422 15.543C13.901 14.6263 14.4167 13.6237 14.7891 12.5352C15.1615 11.4466 15.3477 10.3294 15.3477 9.18359V3.59766L8 0.847656Z" fill="#755DAB"/>
</svg>
