<svg width="21" height="18" viewBox="0 0 21 18" fill="none" xmlns="http://www.w3.org/2000/svg">
<path d="M1.75 0.75H12.75V2.59766H1.75V0.75ZM11.8477 3.5H2.65234C2.16536 3.5 1.73568 3.6862 1.36328 4.05859C1.01953 4.40234 0.847656 4.83203 0.847656 5.34766V15.4023C0.847656 15.918 1.01953 16.362 1.36328 16.7344C1.73568 17.0781 2.16536 17.25 2.65234 17.25H11.8477C12.3346 17.25 12.75 17.0781 13.0938 16.7344C13.4661 16.362 13.6523 15.918 13.6523 15.4023V5.34766C13.6523 4.83203 13.4661 4.40234 13.0938 4.05859C12.75 3.6862 12.3346 3.5 11.8477 3.5ZM10.9023 11.75H8.625V14.0273H5.875V11.75H3.59766V9H5.875V6.72266H8.625V9H10.9023V11.75ZM17.3477 3.5C16.832 3.5 16.3594 3.67188 15.9297 4.01562C15.5286 4.33073 15.1992 4.76042 14.9414 5.30469C14.7122 5.84896 14.5977 6.46484 14.5977 7.15234C14.5977 7.98307 14.7695 8.71354 15.1133 9.34375C15.457 9.94531 15.8867 10.375 16.4023 10.6328V16.3477C16.4023 16.5768 16.4883 16.7917 16.6602 16.9922C16.8607 17.1641 17.0898 17.25 17.3477 17.25C17.5768 17.25 17.7773 17.1641 17.9492 16.9922C18.1497 16.7917 18.25 16.5768 18.25 16.3477V10.6328C18.7943 10.375 19.2383 9.94531 19.582 9.34375C19.9258 8.71354 20.0977 7.98307 20.0977 7.15234C20.0977 6.46484 19.9688 5.84896 19.7109 5.30469C19.4818 4.76042 19.1523 4.33073 18.7227 4.01562C18.3216 3.67188 17.8633 3.5 17.3477 3.5Z" fill="#755DAB"/>
</svg>
