<svg width="15" height="13" viewBox="0 0 15 13" fill="none" xmlns="http://www.w3.org/2000/svg">
<path d="M9.93164 9.63477H11.9531L10.9277 6.91016L9.93164 9.63477ZM11.5723 5.24023L14.3848 12.7402H13.125L12.4219 10.8652H9.46289L8.75977 12.7402H7.5L10.3125 5.24023H11.5723ZM8.05664 8.4043L7.55859 9.69336L5.625 7.75977L2.49023 10.8652L1.61133 9.98633L4.80469 6.85156C4.02344 5.99219 3.39844 5.04492 2.92969 4.00977H4.18945C4.59961 4.79102 5.07812 5.48437 5.625 6.08984C6.52344 5.09375 7.1875 3.98047 7.61719 2.75H0.615234V1.49023H5.00977V0.259766H6.24023V1.49023H10.6348V2.75H8.78906C8.59375 3.375 8.27148 4.08789 7.82227 4.88867C7.37305 5.66992 6.92383 6.31445 6.47461 6.82227L6.44531 6.85156L8.05664 8.4043Z" fill="#755DAB"/>
</svg>
