<svg width="32" height="32" viewBox="0 0 32 32" fill="none" xmlns="http://www.w3.org/2000/svg">
<path fill-rule="evenodd" clip-rule="evenodd" d="M11.2876 6.98162C10.9902 7.38332 11.0243 7.95632 11.4001 8.31996C11.8001 8.71996 12.4534 8.71996 12.8534 8.31996L14.9734 6.18663V11.7066H17.0268V6.18663L19.1468 8.31996L19.2618 8.41913C19.6635 8.71665 20.2365 8.6836 20.6001 8.31996C20.8001 8.11996 20.9068 7.85329 20.9068 7.58663C20.9068 7.33329 20.8001 7.06663 20.6001 6.86663L16.7201 2.97329L16.5991 2.8646C16.4268 2.73489 16.2134 2.66663 16.0001 2.66663C15.7201 2.66663 15.4668 2.77329 15.2668 2.97329L11.3868 6.86663L11.2876 6.98162ZM8.30805 11.7135C5.17038 11.8617 2.6665 14.5011 2.6665 17.7166V24.3367L2.67295 24.6201C2.81863 27.8132 5.41355 30.3736 8.59984 30.3736H23.4132L23.6916 30.367C26.8293 30.2188 29.3332 27.579 29.3332 24.3503V17.7437L29.3267 17.4593C29.1803 14.2544 26.5732 11.7069 23.3998 11.7069H17.0265V19.8464L17.017 19.9895C16.9481 20.5034 16.5132 20.891 15.9998 20.891C15.4265 20.891 14.9732 20.4298 14.9732 19.8464V11.7069H8.5865L8.30805 11.7135Z" fill="#755DAB"/>
</svg>
