<svg width="64" height="64" viewBox="0 0 64 64" fill="none" xmlns="http://www.w3.org/2000/svg">
<g clip-path="url(#clip0_7_4972)">
<path fill-rule="evenodd" clip-rule="evenodd" d="M53.1806 7.28276L56.716 10.8182L58.4837 12.5859C59.456 13.5581 61.0469 13.5581 62.0191 12.5859C62.9914 11.6137 62.9914 10.0227 62.0191 9.05046L54.9482 1.97963C53.976 1.00728 52.385 1.00728 51.4128 1.97963C50.4405 2.95186 50.4405 4.54282 51.4128 5.51505L53.1806 7.28276Z" fill="white"/>
<path fill-rule="evenodd" clip-rule="evenodd" d="M46.8708 13.5913L53.1742 7.28793L56.7091 10.8228L50.4058 17.1262L46.8708 13.5913Z" fill="white"/>
<path fill-rule="evenodd" clip-rule="evenodd" d="M50.4129 17.1225L46.8775 13.5871L43.342 10.0517C42.3698 9.07945 40.7788 9.07945 39.8066 10.0517C38.8343 11.0239 38.8343 12.6149 39.8066 13.5871L43.342 17.1225L46.8774 20.6579L50.4128 24.1933C51.3851 25.1656 52.976 25.1656 53.9482 24.1933C54.9205 23.2211 54.9205 21.6302 53.9482 20.6579L50.4129 17.1225Z" fill="white"/>
<path fill-rule="evenodd" clip-rule="evenodd" d="M33.8191 19.5704L39.7995 13.59L43.3345 17.1249L37.354 23.1054L33.8191 19.5704Z" fill="#2CBDB9"/>
<path fill-rule="evenodd" clip-rule="evenodd" d="M37.3533 23.1058L43.3337 17.1254L46.8687 20.6603L40.8882 26.6408L37.3533 23.1058Z" fill="white"/>
<path fill-rule="evenodd" clip-rule="evenodd" d="M40.8882 26.6411L46.8687 20.6607L50.4036 24.1956L44.4231 30.176L40.8882 26.6411Z" fill="#2CBDB9"/>
<path fill-rule="evenodd" clip-rule="evenodd" d="M44.4304 30.1749L40.8949 26.6393L37.3595 23.1039L33.8241 19.5685L30.2886 23.104L33.824 26.6394L37.3594 30.175L40.8948 33.7104L44.4304 30.1749Z" fill="white"/>
<path fill-rule="evenodd" clip-rule="evenodd" d="M16.8129 43.6508L33.8242 26.6394L30.2888 23.104L13.2774 40.1154C10.3606 43.0322 10.3606 47.8049 13.2774 50.7217C16.1943 53.6385 20.9674 53.638 23.8838 50.7217L36.3209 38.2846C36.2412 37.987 36.1613 37.6893 36.0816 37.3914C35.8662 36.5833 36.6188 35.8645 37.4045 36.0862C37.6976 36.1647 37.9906 36.2433 38.2838 36.3218L40.8951 33.7104L37.3596 30.175L20.3483 47.1862C19.3831 48.1514 17.7781 48.1514 16.8129 47.1862C15.8475 46.221 15.8483 44.6154 16.8129 43.6508Z" fill="#2CBDB9"/>
<path fill-rule="evenodd" clip-rule="evenodd" d="M33.8245 26.6394L16.8131 43.6507C15.8485 44.6153 15.8477 46.2208 16.8131 47.1862C17.7783 48.1514 19.3833 48.1515 20.3485 47.1862L37.3599 30.1748L33.8245 26.6394Z" fill="white"/>
<path fill-rule="evenodd" clip-rule="evenodd" d="M37.2694 41.8221C35.9881 43.9113 35.249 46.369 35.249 48.9994C35.249 56.5931 41.405 62.7491 48.9987 62.7491C56.5924 62.7491 62.7484 56.5931 62.7484 48.9994C62.7484 41.4057 56.5924 35.2498 48.9987 35.2498C46.3679 35.2498 43.9101 35.989 41.8206 37.2706C40.6415 36.9542 39.4624 36.6378 38.2833 36.3217C37.9902 36.2432 37.6972 36.1646 37.4041 36.0861C36.6182 35.8644 35.8658 36.5832 36.0811 37.3913C36.1609 37.6892 36.2407 37.9868 36.3205 38.2846C36.6367 39.4643 36.953 40.6431 37.2694 41.8221ZM48.9987 53.9993C46.2374 53.9993 43.9988 51.7609 43.9988 48.9994C43.9988 46.238 46.2373 43.9996 48.9987 43.9996C51.7601 43.9996 53.9986 46.238 53.9986 48.9994C53.9986 51.7609 51.7601 53.9993 48.9987 53.9993Z" fill="white"/>
<path d="M50.149 53.8401C52.8358 53.2049 54.499 50.512 53.8639 47.8252C53.2288 45.1384 50.5358 43.4752 47.849 44.1103C45.1622 44.7454 43.499 47.4383 44.1341 50.1251C44.7692 52.812 47.4622 54.4752 50.149 53.8401Z" fill="#2CBDB9"/>
<path d="M48.9993 33.9998C46.4114 33.9998 43.8787 34.6648 41.6394 35.9277L40.6981 35.6753L50.5638 25.8098C51.9816 26.481 53.6871 26.2189 54.8317 25.0774C56.2938 23.6153 56.2938 21.2364 54.8317 19.7742L52.1801 17.1226L56.7166 12.5861L57.6005 13.4699C59.0627 14.932 61.4416 14.932 62.9037 13.4699C64.3657 12.0078 64.3657 9.62889 62.9037 8.16668L55.8327 1.09559C55.1264 0.389235 54.1847 0.000244141 53.1811 0.000244141C52.1776 0.000244141 51.2359 0.389235 50.5294 1.09559C49.0674 2.55768 49.0676 4.93663 50.5295 6.39872L51.4134 7.28257L46.8767 11.8192L44.2251 9.16753C42.8341 7.71669 40.3129 7.71681 38.9218 9.16753C37.7695 10.3199 37.5253 12.0418 38.1894 13.4354L12.3938 39.2314C9.34874 42.1578 8.995 47.3365 11.5728 50.6588L0.366329 61.8653C-0.121784 62.3534 -0.121784 63.1449 0.366329 63.6331C0.854568 64.1212 1.64592 64.1212 2.13416 63.6331L13.3406 52.4268C16.6631 55.0045 21.8418 54.6503 24.768 51.6057L35.6745 40.699C35.7587 41.0128 35.8429 41.3267 35.9271 41.6404C30.2758 51.4628 37.6528 64.0985 48.9996 63.9991C68.8975 63.1758 68.8935 34.8211 48.9993 33.9998ZM32.0567 23.1041L33.8245 21.3362L42.6631 30.1748L40.8953 31.9425L32.0567 23.1041ZM41.5735 17.1226L37.36 21.3361L35.5924 19.5685L39.8059 15.355L41.5735 17.1226ZM44.4308 28.4071L42.6631 26.6395L46.8767 22.426L48.6443 24.1936L44.4308 28.4071ZM40.8954 24.8717L39.1277 23.104L43.3412 18.8904L45.1089 20.6581L40.8954 24.8717ZM52.2974 2.86343C52.7577 2.38244 53.6045 2.38256 54.0649 2.86343L61.1359 9.93426C61.6233 10.4216 61.6233 11.2147 61.1359 11.7021C60.6489 12.1893 59.8558 12.1897 59.3682 11.7021L52.2974 4.63114C51.81 4.14365 51.81 3.35079 52.2974 2.86343ZM48.6446 13.5872L53.1812 9.05053L54.9488 10.8181L50.4122 15.3548L48.6446 13.5872ZM40.6899 10.9355C41.1502 10.4546 41.997 10.4546 42.4575 10.9355L53.064 21.5419C53.5513 22.0292 53.5513 22.8222 53.064 23.3096C52.5771 23.7966 51.7849 23.7971 51.2975 23.3107C51.2971 23.3103 51.2968 23.3098 51.2963 23.3094C51.2955 23.3087 51.2946 23.3078 51.2938 23.3071L40.6946 12.7081C40.693 12.7064 40.6915 12.7048 40.6899 12.7032C40.689 12.7023 40.6883 12.7016 40.6874 12.7007C40.2085 12.24 40.2096 11.3951 40.6899 10.9355ZM23 49.8378C20.6886 52.2501 16.4729 52.2501 14.1615 49.8378C11.7488 47.5261 11.7489 43.311 14.1615 40.9993L30.289 24.8719L32.0566 26.6395L27.9707 30.7255C27.4826 31.2136 27.4826 32.0051 27.9707 32.4932C28.4589 32.9813 29.2503 32.9813 29.7385 32.4932L33.8244 28.4072L35.5921 30.1749L19.4646 46.3024C19.0126 46.7764 18.1489 46.7763 17.6969 46.3023C17.4662 46.0717 17.3393 45.7578 17.3393 45.4184C17.3394 45.0791 17.4664 44.7652 17.6969 44.5347L21.7835 40.448C22.2716 39.9599 22.2716 39.1685 21.7835 38.6803C21.2952 38.1922 20.504 38.1922 20.0156 38.6803L15.9291 42.767C14.4856 44.1492 14.4856 46.6879 15.9291 48.0701C16.6321 48.7731 17.5738 49.1601 18.5808 49.1602C19.5878 49.1602 20.5295 48.7731 21.2323 48.0702L37.3597 31.9429L39.1273 33.7105L37.9101 34.9277L37.7347 34.8807C36.9388 34.6594 36.0776 34.8836 35.4863 35.4664C34.8855 36.0584 34.6565 36.8984 34.8743 37.7151C34.8918 37.7805 34.9093 37.8459 34.9268 37.9111L23 49.8378ZM48.9993 61.4992C39.3428 61.5829 33.2257 50.6522 38.3356 42.4757C38.5151 42.1831 38.5663 41.8298 38.4773 41.4983C38.1081 40.1224 37.7391 38.7467 37.3705 37.371L41.4976 38.4778C41.8289 38.5667 42.1825 38.5155 42.475 38.3361C50.6539 33.225 61.5831 39.3444 61.4991 48.9996C61.499 55.8918 55.8918 61.4992 48.9993 61.4992Z" fill="#755DAB"/>
<path d="M56.4986 47.1245H56.4976C55.9521 47.1245 55.4613 47.3575 55.1188 47.7293C54.9564 46.9461 54.6472 46.2161 54.2212 45.5696C54.7315 45.5907 55.2404 45.4084 55.6278 45.022C56.36 44.2898 56.36 43.1027 55.6278 42.3704C54.8957 41.6382 53.7084 41.6382 52.9762 42.3704L52.9756 42.3711C52.5891 42.7576 52.4067 43.2707 52.4284 43.7768C51.7817 43.3508 51.0518 43.0416 50.2685 42.8793C51.5129 41.7453 50.7048 39.6215 48.9988 39.6246C47.9633 39.6246 47.1239 40.4641 47.1239 41.4996V41.5006C47.1239 42.0461 47.3568 42.5369 47.7287 42.8794C46.9456 43.0417 46.2156 43.351 45.569 43.777C45.5906 43.2707 45.408 42.7572 45.0214 42.3706C44.2893 41.6383 43.1021 41.6383 42.3698 42.3706C41.6376 43.1028 41.6376 44.2899 42.3698 45.0221L42.3705 45.0228C42.7578 45.409 43.2659 45.5911 43.7762 45.57C43.3502 46.2166 43.0409 46.9466 42.8787 47.7298C41.7449 46.4855 39.6209 47.2936 39.624 48.9995C39.624 50.035 40.4635 50.8745 41.499 50.8745H41.5C42.0455 50.8745 42.5363 50.6415 42.8788 50.2696C43.0412 51.0529 43.3504 51.7829 43.7764 52.4293C43.2699 52.4077 42.7565 52.5903 42.37 52.9769C41.6377 53.7092 41.6377 54.8963 42.37 55.6285C43.1021 56.3607 44.2894 56.3607 45.0215 55.6285L45.0222 55.6279C45.4086 55.2414 45.591 54.7283 45.5694 54.2222C46.216 54.6482 46.946 54.9574 47.7292 55.1196C46.4849 56.2535 47.2931 58.3774 48.9991 58.3743C50.0345 58.3743 50.874 57.5348 50.874 56.4994V56.4985C50.874 55.953 50.641 55.4621 50.2692 55.1196C51.0523 54.9574 51.7822 54.648 52.4289 54.222C52.4072 54.7284 52.5899 55.2419 52.9765 55.6285C53.7086 56.3607 54.8959 56.3607 55.628 55.6285C56.3603 54.8963 56.3603 53.7092 55.628 52.9769L55.6274 52.9763C55.2409 52.5898 54.7278 52.4075 54.2217 52.4291C54.6477 51.7825 54.9569 51.0524 55.1192 50.2693C56.253 51.5136 58.377 50.7055 58.3738 48.9995C58.3736 47.9639 57.5341 47.1245 56.4986 47.1245ZM48.9987 52.7493C46.931 52.7493 45.2488 51.0671 45.2488 48.9994C45.4548 44.0247 52.5434 44.0262 52.7486 48.9994C52.7486 51.0671 51.0664 52.7493 48.9987 52.7493Z" fill="#755DAB"/>
<path d="M24.0356 36.5121C24.545 36.9755 25.3357 36.9399 25.8014 36.428L25.802 36.4274C26.2664 35.9166 26.2284 35.1264 25.7176 34.662C25.2066 34.1976 24.4159 34.2355 23.9515 34.7464C23.4872 35.2571 23.5247 36.0478 24.0356 36.5121Z" fill="#755DAB"/>
</g>
<defs>
<clipPath id="clip0_7_4972">
<rect width="64" height="64" fill="white"/>
</clipPath>
</defs>
</svg>
