<svg width="64" height="64" viewBox="0 0 64 64" fill="none" xmlns="http://www.w3.org/2000/svg">
<g clip-path="url(#clip0_7_4963)">
<path fill-rule="evenodd" clip-rule="evenodd" d="M38.2594 25.5092C41.3579 25.5092 43.893 22.786 43.893 19.4577V18.449C43.893 11.1706 20.1069 11.1706 20.1069 18.449V19.4577C20.1069 22.786 22.642 25.5092 25.7405 25.5092C28.8582 25.5092 29.002 23.4733 31.9999 23.4733C34.9979 23.4733 35.1418 25.5092 38.2594 25.5092Z" fill="#2CBDB9"/>
<path fill-rule="evenodd" clip-rule="evenodd" d="M38.2594 25.5093C35.1418 25.5093 34.9977 23.4733 31.9999 23.4733C29.002 23.4733 28.8582 25.5093 25.7405 25.5093C22.642 25.5093 20.1069 22.7861 20.1069 19.4578V23.8391C20.1069 30.3803 25.4588 35.7322 31.9999 35.7322C38.5411 35.7322 43.893 30.3803 43.893 23.8391V19.4578C43.893 22.7861 41.3579 25.5093 38.2594 25.5093Z" fill="white"/>
<path fill-rule="evenodd" clip-rule="evenodd" d="M32.0004 35.732C25.4592 35.732 20.1074 30.3801 20.1074 23.839V19.4576V18.449C20.1074 11.1706 43.8934 11.1706 43.8934 18.449V19.4576V23.839C43.8934 30.3801 38.5415 35.732 32.0004 35.732ZM58.2903 62.7481V50.4103C58.2903 42.6473 51.978 36.2882 44.2326 36.2097C47.4942 33.0221 49.5269 28.5818 49.5269 23.6891V18.6814C49.5269 9.04185 41.64 1.15491 32.0002 1.15491C22.3607 1.15491 14.4737 9.04185 14.4737 18.6814V23.6891C14.4737 28.5819 16.5064 33.0221 19.768 36.2097C12.0228 36.2883 5.71045 42.6475 5.71045 50.4103V62.7481H16.9779H32.0001H47.0229H58.2903Z" fill="white"/>
<path d="M46.816 35.1998C49.3872 31.9152 50.7792 27.9103 50.7792 23.689V18.6814C49.7448 -6.23666 14.2475 -6.21763 13.2224 18.6814V23.689C13.2224 27.9104 14.6144 31.9153 17.1856 35.1998C9.97045 36.499 4.45923 42.8513 4.45923 50.4103V62.7481C4.45923 63.4396 5.01983 64 5.71112 64H58.2907C58.982 64 59.5426 63.4396 59.5426 62.7481V50.4103C59.5426 42.8511 54.0313 36.4989 46.816 35.1998ZM32.0009 2.40692C40.8158 2.40692 48.0162 9.45109 48.2687 18.2058H45.1397C45.0543 16.5275 44.0851 15.1973 42.5672 14.1904L43.061 12.7716C43.2882 12.1186 42.9432 11.405 42.2902 11.1777C41.6368 10.9504 40.9235 11.2955 40.6965 11.9485L40.3092 13.0607C39.7132 12.8351 39.0786 12.6393 38.4155 12.4725L38.5903 11.3414C38.6959 10.6582 38.2276 10.0187 37.5443 9.91304C36.8624 9.8075 36.2216 10.2757 36.1159 10.9591L35.9549 12.0013C35.0737 11.8799 34.1669 11.8013 33.2531 11.7638V10.6569C33.1868 8.9959 30.8149 8.99715 30.7493 10.6569V11.7638C29.8354 11.8013 28.9286 11.8799 28.0474 12.0013L27.8863 10.959C27.7807 10.2757 27.1397 9.80788 26.4579 9.91304C25.7746 10.0187 25.3063 10.6583 25.4119 11.3416L25.5867 12.4725C24.9236 12.6393 24.2891 12.835 23.693 13.0607L23.3059 11.9485C23.0788 11.2956 22.3653 10.9504 21.7121 11.1777C21.0591 11.4049 20.714 12.1185 20.9413 12.7715L21.4351 14.1904C19.9171 15.1973 18.9479 16.5275 18.8625 18.2058H15.7335C15.9857 9.45109 23.1861 2.40692 32.0009 2.40692ZM32.0009 34.4801C26.5798 34.4801 22.0925 30.4052 21.4412 25.1576C23.8598 27.2703 27.3863 27.1758 29.6114 25.5326C30.3485 25.0638 30.8811 24.7251 32.0009 24.7251C33.1207 24.7251 33.6533 25.0638 34.3904 25.5326C36.6085 27.1762 40.1528 27.2676 42.5607 25.1576C41.9093 30.4053 37.422 34.4801 32.0009 34.4801ZM24.2973 15.5141C28.2137 13.8364 35.788 13.8364 39.7043 15.5143C41.0444 16.061 42.6419 17.0139 42.6419 18.4491V19.4577C42.6545 23.2919 38.6633 25.6009 35.7339 23.42C33.522 21.8194 30.4735 21.8233 28.2675 23.42C25.337 25.6018 21.3464 23.2899 21.3596 19.4577V18.4491C21.3598 17.0139 22.9572 16.0608 24.2973 15.5141ZM6.96302 50.4103C6.96302 43.3421 12.7133 37.5333 19.7814 37.4615C20.2881 37.4564 20.7416 37.1464 20.9304 36.6762C21.1193 36.2061 21.006 35.6684 20.6437 35.3144C17.4728 32.2154 15.7264 28.0868 15.7264 23.6891V20.7096H18.8561V23.8391C18.8561 30.6651 24.0859 36.2925 30.7491 36.9248V39.9158C29.0705 39.7869 27.4333 39.398 25.8666 38.7547C25.2265 38.4919 24.4957 38.7976 24.2329 39.4372C23.9703 40.0768 24.276 40.8082 24.9156 41.0708C26.7855 41.8386 28.7426 42.2929 30.7491 42.4261V61.4962H18.2306V56.9268C18.1645 55.2658 15.7924 55.2671 15.7268 56.9268V61.4962H6.96302V50.4103ZM57.0388 61.4962H48.2752V56.9268C48.209 55.2658 45.837 55.2671 45.7714 56.9268V61.4962H33.2528V42.4261C35.2593 42.2929 37.2164 41.8387 39.0864 41.0708C39.726 40.8082 40.0317 40.0768 39.7691 39.4372C39.5063 38.7976 38.7753 38.492 38.1353 38.7547C36.5688 39.3979 34.9315 39.7869 33.2528 39.9157V36.9247C39.916 36.2922 45.1458 30.6649 45.1458 23.839V20.7095H48.2756V23.689C48.2756 28.0865 46.5292 32.2152 43.3582 35.3142C42.9958 35.6684 42.8826 36.206 43.0716 36.676C43.2603 37.1463 43.7139 37.4562 44.2205 37.4614C51.2886 37.5331 57.0389 43.3419 57.0389 50.4102V61.4962H57.0388Z" fill="#755DAB"/>
<path d="M16.9783 52.5453C18.6393 52.4791 18.6381 50.1071 16.9783 50.0415H16.9774C15.3165 50.1077 15.3187 52.4799 16.9783 52.5453Z" fill="#755DAB"/>
</g>
<defs>
<clipPath id="clip0_7_4963">
<rect width="64" height="64" fill="white"/>
</clipPath>
</defs>
</svg>
