<svg width="64" height="64" viewBox="0 0 64 64" fill="none" xmlns="http://www.w3.org/2000/svg">
<g clip-path="url(#clip0_7_4990)">
<path fill-rule="evenodd" clip-rule="evenodd" d="M4.0625 35.2501C2.51575 35.2501 1.25 36.5157 1.25 38.0626V54.9375C1.25 56.4844 2.51562 57.75 4.0625 57.75H59.9375C61.4844 57.75 62.75 56.4844 62.75 54.9375V38.0626C62.75 36.5157 61.4844 35.2501 59.9375 35.2501C37.4701 35.2501 18.9583 35.2501 4.0625 35.2501ZM24.3752 46.5C24.3752 44.9531 25.6407 43.6876 27.1877 43.6876H30.7186H35.7188H53.0622C54.609 43.6876 55.8748 44.9535 55.8746 46.5001C55.8746 48.0466 54.6087 49.3126 53.0622 49.3126H35.7189H30.7188H27.1879C25.6413 49.3125 24.3752 48.047 24.3752 46.5ZM10.9376 43.6876H15.3126C16.8595 43.6876 18.1251 44.9532 18.1251 46.5001C18.1251 48.047 16.8595 49.3126 15.3126 49.3126H10.9376C9.39075 49.3126 8.12512 48.047 8.12512 46.5001C8.12525 44.9532 9.39075 43.6876 10.9376 43.6876Z" fill="white"/>
<path fill-rule="evenodd" clip-rule="evenodd" d="M15.3127 43.6876H10.9377C9.39087 43.6876 8.12524 44.9532 8.12524 46.5001C8.12524 48.047 9.39087 49.3126 10.9377 49.3126H15.3127C16.8596 49.3126 18.1252 48.047 18.1252 46.5001C18.1252 44.9532 16.8596 43.6876 15.3127 43.6876Z" fill="white"/>
<path fill-rule="evenodd" clip-rule="evenodd" d="M27.1877 43.6876C25.6407 43.6876 24.3752 44.9532 24.3752 46.5C24.3752 48.0469 25.6411 49.3125 27.1877 49.3125H30.7186V43.6876H27.1877Z" fill="white"/>
<path fill-rule="evenodd" clip-rule="evenodd" d="M30.7188 43.6876H35.7189V49.3125H30.7188V43.6876Z" fill="#2CBDB9"/>
<path fill-rule="evenodd" clip-rule="evenodd" d="M35.718 43.6875V49.3124H53.0615C54.608 49.3124 55.8739 48.0465 55.8739 46.4999C55.8739 44.9534 54.6083 43.6874 53.0615 43.6874H35.718V43.6875Z" fill="white"/>
<path fill-rule="evenodd" clip-rule="evenodd" d="M59.9375 57.7499H4.0625C2.51562 57.7499 1.25 56.4843 1.25 54.9374V59.9375C1.25 61.4844 2.51562 62.75 4.0625 62.75H59.9375C61.4844 62.75 62.75 61.4844 62.75 59.9375V54.9374C62.75 56.4844 61.4844 57.7499 59.9375 57.7499Z" fill="#2CBDB9"/>
<path d="M29.7165 29.7212C35.0854 24.3524 35.0854 15.6476 29.7165 10.2788C24.3476 4.90985 15.6429 4.90985 10.274 10.2788C4.90509 15.6476 4.90509 24.3524 10.274 29.7212C15.6429 35.0901 24.3476 35.0901 29.7165 29.7212Z" fill="white"/>
<path fill-rule="evenodd" clip-rule="evenodd" d="M20 33.75C12.4061 33.75 6.25 27.5939 6.25 20C6.25 12.4061 12.4061 6.25 20 6.25C27.5939 6.25 33.75 12.4061 33.75 20C33.75 27.5939 27.5939 33.75 20 33.75ZM9.09138 35.2501H30.9086C35.819 31.7384 38.75 26.0636 38.75 20C38.75 9.64462 30.3554 1.25 20 1.25C9.64462 1.25 1.25 9.64462 1.25 20C1.25 26.0636 4.181 31.7383 9.09138 35.2501Z" fill="#2CBDB9"/>
<path d="M59.9366 34H34.2779C46.607 21.4784 37.6227 -0.0266003 19.9989 2.46996e-05C2.37564 -0.0266003 -6.60948 21.4814 5.72027 34H4.06177C1.82164 34 -0.000732422 35.8224 -0.000732422 38.0625V59.9375C-0.000732422 62.1776 1.82164 64 4.06177 64H59.9366C62.1767 64 63.9991 62.1776 63.9991 59.9375V38.0625C63.9991 35.8224 62.1767 34 59.9366 34ZM2.49914 19.9999C2.49914 10.3504 10.3496 2.4999 19.9991 2.4999C36.7321 2.53865 43.8375 23.952 30.4988 34H25.3854C40.6695 27.8851 36.6771 5.29352 19.9989 4.99977C3.31839 5.29478 -0.669232 27.8881 14.6128 34H9.49951C5.11439 30.711 2.49914 25.4841 2.49914 19.9999ZM10.2563 25.6249C9.92189 25.0455 9.19339 24.8351 8.60401 25.1373C8.05776 23.9303 7.69776 22.6217 7.56089 21.2484C9.13726 21.1184 9.13601 18.8809 7.56089 18.7515C7.69764 17.3783 8.05764 16.0697 8.60389 14.8626C9.18501 15.163 9.92039 14.9583 10.2561 14.3751C10.5901 13.7966 10.4093 13.0623 9.85564 12.7024C10.6451 11.6082 11.607 10.6461 12.7014 9.85665C13.607 11.1543 15.5365 10.0228 14.8615 8.6049C16.0685 8.05852 17.3771 7.69865 18.7505 7.56177C18.8805 9.13828 21.1181 9.13702 21.2475 7.56177C22.6209 7.69852 23.9294 8.05852 25.1364 8.60477C24.8341 9.19365 25.0444 9.9224 25.6239 10.2571C26.1905 10.5875 26.9341 10.4164 27.2966 9.85665C28.3909 10.6461 29.3529 11.6082 30.1424 12.7024C29.5888 13.062 29.4079 13.7965 29.7419 14.375C30.0775 14.9583 30.813 15.163 31.3941 14.8626C31.9404 16.0697 32.3004 17.3783 32.4371 18.7515C30.8608 18.8815 30.862 21.119 32.4371 21.2484C32.3003 22.6218 31.9404 23.9303 31.394 25.1373C30.8049 24.8351 30.0764 25.0454 29.7418 25.6249C29.4078 26.2034 29.5886 26.9378 30.1423 27.2974C29.3528 28.3916 28.3908 29.3537 27.2965 30.1432C26.937 29.5898 26.2028 29.4088 25.624 29.7426C25.0444 30.0771 24.8341 30.8059 25.1364 31.3949C23.9294 31.9411 22.6208 32.3011 21.2475 32.4379C21.1175 30.8615 18.88 30.8628 18.7505 32.4379C17.3773 32.3011 16.0686 31.9411 14.8616 31.3949C15.1638 30.806 14.9535 30.0774 14.374 29.7426C13.7954 29.4086 13.0611 29.5896 12.7014 30.143C11.6071 29.3535 10.6451 28.3915 9.85564 27.2973C10.4094 26.9378 10.5903 26.2034 10.2563 25.6249ZM59.9366 61.5H4.06177C3.20014 61.5 2.49927 60.7991 2.49927 59.9375V58.6874C2.98052 58.8886 3.50839 58.9999 4.06177 58.9999H26.3738C28.0323 58.9338 28.031 56.5654 26.3738 56.4999H4.06177C3.20014 56.4999 2.49927 55.799 2.49927 54.9374V38.0625C2.49927 37.2009 3.20014 36.5 4.06177 36.5H59.9366C60.7982 36.5 61.4991 37.2009 61.4991 38.0625V54.9374C61.4991 55.799 60.7982 56.4999 59.9366 56.4999H37.6238C35.9653 56.566 35.9665 58.9344 37.6238 58.9999H59.9366C60.49 58.9999 61.0179 58.8886 61.4991 58.6874V59.9375C61.4991 60.7991 60.7981 61.5 59.9366 61.5Z" fill="#755DAB"/>
<path d="M15.3123 42.4375H10.9373C5.54644 42.6612 5.55069 50.3406 10.9373 50.5624H15.3123C20.7029 50.3387 20.6989 42.6593 15.3123 42.4375ZM15.3123 48.0624H10.9373C8.86407 47.9762 8.86544 45.0229 10.9373 44.9375H15.3123C17.3857 45.0236 17.3839 47.9771 15.3123 48.0624Z" fill="#755DAB"/>
<path d="M57.1236 46.4999C57.1236 44.2599 55.3012 42.4375 53.0612 42.4375H27.1866C21.7958 42.6612 21.7998 50.3406 27.1866 50.5624H53.0612C55.3012 50.5624 57.1236 48.74 57.1236 46.4999ZM54.6236 46.5C54.6236 47.3615 53.9227 48.0624 53.0612 48.0624H36.9677V44.9375H53.0612C53.9226 44.9375 54.6236 45.6385 54.6236 46.5ZM34.4677 48.0624H31.9676V44.9375H34.4677V48.0624ZM25.6241 46.4999C25.6241 45.6384 26.325 44.9375 27.1866 44.9375H29.4676V48.0624H27.1866C26.325 48.0624 25.6241 47.3615 25.6241 46.4999Z" fill="#755DAB"/>
<path d="M31.9993 56.4999H31.9983C31.308 56.4999 30.7488 57.0596 30.7488 57.7499C30.8149 59.4077 33.1836 59.4077 33.2493 57.7499C33.2493 57.0596 32.6895 56.4999 31.9993 56.4999Z" fill="#755DAB"/>
<path d="M20 21.2499H26.2498C27.9082 21.1837 27.907 18.8154 26.2498 18.7499H21.25V12.5C21.1839 10.8415 18.8155 10.8427 18.75 12.5V19.9999C18.75 20.6902 19.3096 21.2499 20 21.2499Z" fill="#755DAB"/>
<path d="M43.2488 21.2499C43.9391 21.2499 44.4988 20.6902 44.4988 19.9999C44.4345 15.6317 49.1072 12.4996 53.1192 14.2188C52.6342 14.4908 52.3743 15.0651 52.5228 15.6278C52.6963 16.3008 53.4008 16.6947 54.0503 16.5176L56.3708 15.9054C57.0235 15.7471 57.4447 15.0238 57.2606 14.3779L56.6483 12.0573C56.4722 11.3897 55.7877 10.9917 55.1208 11.1676C54.6963 11.2796 54.3808 11.5969 54.2525 11.9847C48.5863 9.42357 41.9285 13.7798 41.9988 20.0002C41.9988 20.6903 42.5585 21.2499 43.2488 21.2499Z" fill="#755DAB"/>
<path d="M50.7491 26.2499C49.9353 26.2499 49.1279 26.0876 48.3786 25.781C48.8636 25.509 49.1235 24.9348 48.975 24.372C48.799 23.7044 48.1145 23.306 47.4475 23.4823L45.127 24.0944C44.4744 24.2528 44.0531 24.976 44.2373 25.6219L44.8495 27.9425C45.0233 28.6155 45.7275 29.0094 46.377 28.8323C46.8015 28.7203 47.1171 28.4029 47.2454 28.0151C52.9116 30.5761 59.5693 26.22 59.499 19.9996C59.499 19.3094 58.9394 18.7498 58.249 18.7498C57.5587 18.7498 56.999 19.3095 56.999 19.9998C56.9992 23.4463 54.1954 26.2499 50.7491 26.2499Z" fill="#755DAB"/>
</g>
<defs>
<clipPath id="clip0_7_4990">
<rect width="64" height="64" fill="white"/>
</clipPath>
</defs>
</svg>
