<svg width="64" height="64" viewBox="0 0 64 64" fill="none" xmlns="http://www.w3.org/2000/svg">
<path d="M18.954 49.4627C15.911 49.4627 13.5807 46.7556 14.0335 43.7465C15.102 36.645 21.2036 31.3926 28.3851 31.3926H35.6186C42.8001 31.3926 48.9017 36.6448 49.9702 43.7465C50.423 46.7556 48.0927 49.4627 45.0497 49.4627H18.954Z" fill="white"/>
<path d="M19.8291 46.4279V53.6369C19.8291 54.8859 20.6665 55.9767 21.871 56.3075C24.2952 56.9732 26.2612 58.7456 27.1921 61.0476C27.6081 62.0763 28.6059 62.7499 29.7154 62.7499H34.2819C35.3914 62.7499 36.3892 62.0763 36.8051 61.0476C37.736 58.7456 39.702 56.9732 42.1262 56.3075C43.3307 55.9767 44.1681 54.8859 44.1681 53.6369V46.4279C44.1681 45.3976 43.333 44.5625 42.3027 44.5625H21.6945C20.6644 44.5625 19.8291 45.3976 19.8291 46.4279Z" fill="#2CBDB9"/>
<path d="M15.6535 50.3844C13.0632 51.8799 12.3957 55.3217 14.2389 57.6772L16.9158 61.0978C18.2379 62.7872 20.6019 63.2458 22.4597 62.1732C24.3175 61.1006 25.1024 58.8241 24.3003 56.8343L22.6764 52.8058C21.5583 50.0317 18.2439 48.8889 15.6535 50.3844Z" fill="white"/>
<path d="M48.3439 50.3844C50.9343 51.8799 51.6018 55.3217 49.7586 57.6772L47.0817 61.0978C45.7596 62.7872 43.3956 63.2458 41.5378 62.1732C39.6799 61.1006 38.8951 58.8241 39.6972 56.8343L41.3211 52.8058C42.4392 50.0317 45.7536 48.8889 48.3439 50.3844Z" fill="white"/>
<path d="M31.9996 35.0001C39.2324 35.0001 45.0958 29.1367 45.0958 21.9039C45.0958 14.671 39.2324 8.80762 31.9996 8.80762C24.7667 8.80762 18.9033 14.671 18.9033 21.9039C18.9033 29.1367 24.7667 35.0001 31.9996 35.0001Z" fill="white"/>
<path d="M37.2619 59.9094C36.6214 59.6525 35.8934 59.9638 35.6365 60.6047C35.4219 61.14 34.8776 61.4998 34.2824 61.4998H29.7159C29.1206 61.4998 28.5764 61.14 28.3618 60.6047C28.1049 59.9638 27.3773 59.6532 26.7364 59.9094C26.0956 60.1664 25.7844 60.894 26.0413 61.5348C26.6416 63.0323 28.0839 63.9998 29.7159 63.9998H34.2824C35.9144 63.9998 37.3566 63.0323 37.9569 61.5348C38.2139 60.894 37.9026 60.1664 37.2619 59.9094Z" fill="#755DAB"/>
<path d="M51.9428 53.4702C51.6033 51.7197 50.5249 50.2043 48.9832 49.3092C49.2636 49.0802 49.5266 48.827 49.7666 48.5481C50.9505 47.1728 51.4747 45.3546 51.2046 43.5602C50.766 40.6447 49.5251 37.9206 47.6162 35.6823C46.187 34.0064 44.4302 32.6559 42.4641 31.7069C44.8702 29.1401 46.3462 25.6914 46.3462 21.904C46.3461 15.3497 41.9277 9.80787 35.9131 8.1005C36.7324 7.12238 37.1794 5.90038 37.1794 4.60913C37.1795 2.06763 35.1117 0 32.5704 0C32.5702 0 32.5701 0 32.57 0C31.5441 0 30.5832 0.333625 29.8646 0.93925C29.0703 1.6085 28.633 2.54912 28.6329 3.58775C28.6329 4.278 29.1925 4.83775 29.8829 4.83775C30.5731 4.83775 31.1329 4.27812 31.1329 3.58775C31.1329 3.29037 31.2481 3.0425 31.4756 2.85075C31.7441 2.6245 32.1327 2.49988 32.5701 2.49988H32.5702C33.7332 2.49988 34.6795 3.44587 34.6795 4.60887C34.6795 5.39662 34.3727 6.13713 33.8157 6.69413C33.2587 7.251 32.5184 7.55775 31.7309 7.55775C31.7307 7.55775 31.7307 7.55775 31.7306 7.55775C31.7 7.55775 31.67 7.56012 31.64 7.56238C23.8955 7.75437 17.6543 14.114 17.6542 21.9039C17.6542 25.6912 19.1302 29.14 21.5363 31.7068C19.5703 32.6558 17.8136 34.0061 16.3843 35.6821C14.4755 37.9205 13.2346 40.6446 12.7958 43.56C12.5258 45.3545 13.05 47.1726 14.2338 48.548C14.4738 48.8269 14.7368 49.0802 15.0172 49.3091C13.4756 50.2041 12.397 51.7196 12.0576 53.4701C11.7172 55.2251 12.154 57.0392 13.2556 58.4471L15.9325 61.8677C17.014 63.2497 18.6568 63.9929 20.3232 63.9929C21.2692 63.9929 22.223 63.7534 23.0857 63.2552C25.4683 61.8796 26.4893 58.9181 25.4607 56.3666L23.8368 52.3381C23.7283 52.069 23.6001 51.8109 23.457 51.5629H32.6252C33.3156 51.5629 33.8752 51.0031 33.8752 50.3129C33.8752 49.6226 33.3156 49.0629 32.6252 49.0629H21.0807V46.4277C21.0807 46.0884 21.3567 45.8124 21.6961 45.8124H42.3045C42.6437 45.8124 42.9198 46.0884 42.9198 46.4277V49.2357C41.6796 49.9156 40.7005 51.0061 40.1635 52.3381L38.5396 56.3665C37.511 58.9181 38.532 61.8796 40.9146 63.2552C41.7775 63.7534 42.7309 63.9929 43.6771 63.9929C45.3433 63.9929 46.9865 63.2496 48.068 61.8677L50.7447 58.4471C51.8466 57.0392 52.2832 55.2253 51.9428 53.4702ZM32.0002 10.0579C38.532 10.058 43.8462 15.3721 43.8464 21.904C43.8464 28.4359 38.5322 33.75 32.0002 33.7501C25.4683 33.75 20.1541 28.4359 20.1541 21.904C20.1542 15.3721 25.4685 10.058 32.0002 10.0579ZM15.268 43.9321C15.9836 39.1755 19.1551 35.2454 23.6075 33.5314C25.969 35.2406 28.8687 36.25 32.0002 36.25C35.1317 36.25 38.0315 35.2406 40.393 33.5314C44.8453 35.2454 48.0168 39.1755 48.7325 43.9321C48.894 45.006 48.5803 46.094 47.8718 46.9171C47.2449 47.6456 46.3663 48.0984 45.4197 48.193V46.4279C45.4197 45.1577 44.6553 44.0634 43.5627 43.5789V42.0625C43.5627 41.3722 43.0031 40.8125 42.3127 40.8125C41.6224 40.8125 41.0627 41.3722 41.0627 42.0625V43.3125H22.946V42.0625C22.946 41.3722 22.3863 40.8125 21.696 40.8125C21.0056 40.8125 20.446 41.3722 20.446 42.0625V43.5751C19.3488 44.0578 18.5806 45.1545 18.5806 46.4279V48.193C17.634 48.0984 16.7556 47.6456 16.1285 46.9171C15.4201 46.094 15.1065 45.006 15.268 43.9321ZM21.8358 61.0904C20.5256 61.847 18.834 61.5191 17.9013 60.3273L15.2245 56.9066C14.5691 56.0692 14.3093 54.9902 14.5118 53.9463C14.7143 52.9023 15.3587 51.9985 16.2797 51.4668C17.2006 50.935 18.3055 50.8291 19.3108 51.1755C20.3162 51.5221 21.1208 52.2868 21.5185 53.2729L23.1423 57.3015C23.708 58.7049 23.1462 60.3337 21.8358 61.0904ZM48.776 56.9065L46.0992 60.3271C45.1666 61.5187 43.4752 61.8467 42.1647 61.0902C40.8542 60.3336 40.2926 58.7048 40.8583 57.3011L42.4822 53.2726C42.8798 52.2864 43.6845 51.5219 44.6898 51.1753C45.0792 51.0411 45.4835 50.9748 45.8862 50.9748C46.5234 50.9748 47.1567 51.1409 47.721 51.4666C48.642 51.9984 49.2862 52.9021 49.4888 53.9461C49.6911 54.9901 49.4314 56.0691 48.776 56.9065Z" fill="#755DAB"/>
<path d="M38.4748 51.1961C38.7073 50.9638 38.8411 50.6413 38.8411 50.3125C38.8411 49.9837 38.7073 49.6612 38.4748 49.4287C38.2423 49.1962 37.9198 49.0625 37.5911 49.0625C37.2623 49.0625 36.9398 49.1961 36.7073 49.4287C36.4748 49.6614 36.3411 49.9837 36.3411 50.3125C36.3411 50.6425 36.4748 50.9638 36.7073 51.1961C36.9398 51.4299 37.2623 51.5625 37.5911 51.5625C37.9198 51.5625 38.2423 51.4299 38.4748 51.1961Z" fill="#755DAB"/>
<path d="M26.4957 22.7882C26.6548 22.6291 26.914 22.6291 27.0732 22.7882C27.3173 23.0322 27.6372 23.1543 27.9571 23.1543C28.277 23.1543 28.597 23.0322 28.841 22.7882C29.3291 22.3001 29.3291 21.5086 28.841 21.0203C27.7071 19.8865 25.8621 19.8865 24.728 21.0203C24.2398 21.5085 24.2397 22.2998 24.728 22.7881C25.2161 23.2763 26.0076 23.2763 26.4957 22.7882Z" fill="#755DAB"/>
<path d="M36.0429 23.1537C36.3628 23.1537 36.6828 23.0316 36.9268 22.7876C37.0859 22.6286 37.3451 22.6284 37.5043 22.7876C37.9924 23.2759 38.7839 23.2757 39.2721 22.7875C39.7602 22.2994 39.7602 21.508 39.2721 21.0197C38.1381 19.886 36.2929 19.886 35.1591 21.0197C34.6709 21.5079 34.6709 22.2994 35.1591 22.7876C35.4031 23.0317 35.7231 23.1537 36.0429 23.1537Z" fill="#755DAB"/>
</svg>
