<svg width="66" height="73" viewBox="0 0 66 73" fill="none" xmlns="http://www.w3.org/2000/svg">
<path d="M40.1613 26.7063C40.0919 26.637 40.0352 25.0735 40.0352 23.2319V19.8836H40.5614H41.0876L41.1392 21.3503L41.1909 22.8171H41.7243H42.2576L42.3092 21.3503L42.3609 19.8836H42.8909H43.4209L43.3726 23.306L43.3243 26.7285H42.8798C42.4502 26.7285 42.4324 26.6807 42.3465 25.3061L42.2576 23.8838H41.7242H41.1908L41.1019 25.3061C41.0231 26.5678 40.972 26.7344 40.6501 26.7805C40.4505 26.8094 40.2305 26.7737 40.1612 26.7063H40.1613ZM44.2034 26.5891C44.1553 26.4636 44.1378 24.9235 44.1646 23.1667L44.2133 19.9724L45.0905 19.9166C46.8967 19.8023 47.3246 20.1518 47.3246 21.741C47.3246 22.5289 47.2441 22.9291 47.0535 23.0872C46.8117 23.2879 46.8156 23.349 47.0895 23.6517C47.3226 23.9093 47.3987 24.3211 47.4051 25.3596C47.4134 26.7031 47.4055 26.7282 46.9691 26.7282C46.5505 26.7282 46.5188 26.6605 46.4245 25.5648C46.3095 24.2298 46.1947 23.9724 45.7141 23.9724C45.4083 23.9724 45.369 24.1025 45.369 25.1135C45.369 25.7411 45.3204 26.3812 45.2611 26.5359C45.1319 26.8724 44.3278 26.9127 44.2035 26.5889L44.2034 26.5891ZM46.355 22.3024C46.4917 21.5737 46.1981 20.9503 45.7183 20.9503C45.4133 20.9503 45.3689 21.0746 45.3689 21.9281C45.3689 22.8478 45.3949 22.9059 45.8053 22.9059C46.1608 22.9059 46.2628 22.7939 46.355 22.3024V22.3024ZM48.6156 26.5455C48.2283 26.2741 47.7883 25.1183 47.964 24.8339C48.015 24.7514 48.2421 24.6839 48.4685 24.6839C48.7859 24.6839 48.9053 24.8091 48.9895 25.2299C49.0777 25.6711 49.1758 25.7649 49.5006 25.7188C49.8032 25.6758 49.9157 25.5272 49.9558 25.1175C49.9978 24.6877 49.875 24.4444 49.3726 23.9618C47.959 22.6039 47.608 21.1841 48.4722 20.3199C48.9635 19.8285 50.0395 19.7287 50.5623 20.1259C50.9316 20.4065 51.2845 21.2786 51.1599 21.6032C51.0423 21.9097 50.1693 21.9126 50.1693 21.6032C50.1693 21.1705 49.7291 20.7446 49.409 20.8674C48.7992 21.1014 49.0345 21.9631 49.9815 22.9644C50.9948 24.0359 51.3036 24.7088 51.1523 25.5155C50.9469 26.6106 49.5312 27.1835 48.6156 26.5422V26.5455ZM32.744 25.3506C31.5622 24.5462 31.4185 24.1767 31.3543 21.7753L31.2961 19.6025L32.7394 15.6983C33.5332 13.5509 34.2169 11.694 34.2587 11.5718C34.3085 11.4263 34.7128 11.3496 35.4294 11.3496H36.5239L36.4226 11.856C36.3669 12.1346 35.9169 13.3835 35.4226 14.6313C34.9282 15.8792 34.5238 16.9953 34.5238 17.1117C34.5238 17.2442 34.7395 17.3004 35.1016 17.2623C35.8813 17.1804 36.7873 17.7702 37.1257 18.5801C37.3322 19.0743 37.3815 19.7753 37.3372 21.5863C37.2868 23.6503 37.2326 24.0113 36.9076 24.4493C36.2318 25.3601 35.463 25.7506 34.346 25.7506C33.5869 25.7506 33.184 25.65 32.7441 25.3506H32.744ZM34.7577 23.5905C35.3545 23.2764 35.407 23.1063 35.41 21.4787C35.4133 19.7134 35.1635 19.1724 34.346 19.1724C33.5545 19.1724 33.2788 19.7239 33.2816 21.301C33.2843 22.9613 33.385 23.349 33.8725 23.5849C34.3711 23.826 34.3109 23.8257 34.7577 23.5916V23.5905Z" fill="#2CBDB9"/>
<path d="M30.3456 34.8116C29.5633 34.6154 28.0432 34.0244 26.9676 33.4981C22.8631 31.49 20.08 28.1977 18.6145 23.617C17.9239 21.4583 17.8017 18.2114 18.3176 15.7243C19.3851 10.5776 23.2596 5.96272 28.0343 4.15077C29.9335 3.43002 29.8016 3.6012 29.9011 1.73033L29.99 0.0598545L34.0666 0.012197C37.2093 -0.024761 38.176 0.0188671 38.2864 0.189949C38.3652 0.31406 38.4308 1.10495 38.4323 1.94745L38.435 3.4793L39.5462 3.87631C43.9918 5.46442 47.7936 9.25122 49.2802 13.5719C49.8046 15.0964 49.4166 15.9723 48.2169 15.9723C47.5354 15.9723 46.7912 15.4077 46.7912 14.8907C46.7912 14.4713 45.5065 12.0483 44.7484 11.0381L44.0476 10.1042L43.147 10.9937C42.1754 11.9532 41.7562 12.0856 41.4575 11.5275C41.2233 11.0901 41.3853 10.762 42.2429 9.93701C42.5932 9.60002 42.8767 9.23994 42.8728 9.13692C42.8626 8.85873 41.3522 7.79416 40.0325 7.1349C38.7762 6.50722 36.4237 5.83822 35.4731 5.83822H34.8792V6.88529C34.8792 8.19555 34.4636 8.85355 33.845 8.52254C33.5031 8.33957 33.4569 8.16743 33.4569 7.0765V5.83822H32.7902C30.9924 5.84561 27.4022 7.26946 25.9008 8.57119L25.1897 9.18778L26.0342 10.0513C26.8999 10.9365 27.0392 11.2932 26.6653 11.6671C26.2914 12.0411 25.9347 11.9017 25.0495 11.036L24.186 10.1915L23.5766 10.9026C22.2877 12.407 20.8442 15.9891 20.8364 17.7031L20.8338 18.2808H21.8808C23.1396 18.2808 23.9071 18.74 23.5712 19.2921C23.4226 19.5364 23.0785 19.6358 22.1489 19.7032L20.9227 19.7921L20.941 20.7799C20.9746 22.5894 22.6495 26.5298 23.841 27.6028C24.2221 27.946 24.2235 27.9455 25.0678 27.114C25.9348 26.26 26.292 26.1216 26.6653 26.4948C27.0391 26.8686 26.8998 27.2254 26.0341 28.1117L25.1896 28.9765L25.9008 29.6003C27.3453 30.8675 30.9942 32.3263 32.7191 32.3263H33.4413L33.4935 31.0374C33.5427 29.8227 33.5708 29.7448 33.9802 29.6871C34.614 29.5976 34.8791 30.0888 34.8791 31.3527V32.4445L35.8394 32.3143C36.3676 32.2427 37.2677 32.0485 37.8396 31.883C38.8498 31.5906 41.1966 30.509 41.5374 30.1787C41.6303 30.0888 41.9963 30.015 42.3509 30.015C43.5951 30.015 44.1906 31.304 43.3686 32.2177C42.7962 32.854 40.9277 33.8147 38.9683 34.4803C37.3997 35.0131 37.0829 35.058 34.5235 35.1099C32.2261 35.1563 31.5313 35.1032 30.3455 34.8092L30.3456 34.8116Z" fill="#755DAB"/>
<path d="M64.9747 61.0903C64.711 61.8311 64.2605 62.4365 63.6364 62.8886C62.6224 63.6232 64.0956 63.5796 40.25 63.5796L18.5085 63.5796L18.5085 63.988C18.5085 64.4446 18.214 64.8155 17.7613 64.9291C17.6039 64.9687 16.1716 64.9804 14.5786 64.9553C11.9344 64.9135 11.6258 64.8872 11.0354 64.6537C9.63581 64.1 8.43927 62.7511 8.06849 61.3088C7.85463 60.477 7.82447 57.7183 8.01907 56.7882C8.3231 55.335 9.35413 54.0667 10.7809 53.3909L11.5654 53.0192L14.724 52.9833C17.6658 52.9499 17.9011 52.9624 18.152 53.1656C18.312 53.2951 18.4517 53.5703 18.4961 53.8432L18.5708 54.3028L40.5648 54.3611C60.8042 54.4148 62.5933 54.4351 62.9895 54.6148C63.6192 54.9004 64.4608 55.7248 64.8105 56.3985C65.0934 56.9435 65.1185 57.115 65.1525 58.737C65.1833 60.2043 65.1547 60.5849 64.9747 61.0903ZM63.0407 57.3621C62.9527 57.1556 62.7385 56.8554 62.5646 56.6949L62.2484 56.4032L40.3785 56.3731L18.5085 56.3431L18.5085 58.9704L18.5085 61.5977L40.3003 61.5677L62.0922 61.5376L62.455 61.2787C63.0527 60.8524 63.1951 60.4151 63.1981 58.9958C63.1998 58.1848 63.1439 57.6042 63.0407 57.3621ZM14.3368 54.9459C12.2835 54.9468 12.1125 54.964 11.5572 55.2226C10.8357 55.5586 10.2743 56.2106 10.0451 56.9789C9.83904 57.6696 9.81244 60.1465 10.0037 60.8354C10.2072 61.5685 10.7217 62.2122 11.4081 62.5924C12.0303 62.937 12.0389 62.9382 14.2785 62.9762L16.5248 63.0143L16.5248 58.9795L16.5248 54.9448L14.3368 54.9461L14.3368 54.9459Z" fill="#755DAB"/>
<path d="M61.815 48.0693C62.0957 48.0165 62.5808 47.7951 62.8931 47.5773C63.3488 47.2595 63.5312 47.0455 63.8161 46.4932C64.6442 44.8886 64.1131 43.2098 62.5139 42.3777C61.8481 42.0312 61.7203 42.0113 60.1957 42.0163C55.0607 42.033 43.7747 42.2746 43.3003 42.3779C42.549 42.5416 41.9278 43.0037 41.4426 43.7598L41.0403 44.3867L30.3671 44.5482C24.4969 44.6371 17.9999 44.7368 15.9293 44.7697C12.4653 44.8249 12.1449 44.8087 11.9175 44.5673C11.5439 44.1708 11.1651 44.1101 9.2438 44.1392C8.27404 44.1539 6.43637 44.1819 5.16009 44.2015C3.88381 44.2211 2.68316 44.2799 2.49196 44.3322C1.45591 44.6154 0.991184 46.0298 1.63427 46.9426C2.15062 47.6754 2.44093 47.7132 6.98842 47.6399L11.2334 47.5713L11.7944 47.194C12.2947 46.8575 12.4873 46.8152 13.5765 46.8027C14.2481 46.795 16.6481 46.7589 18.9099 46.7224C21.1717 46.6859 27.0961 46.5934 32.0754 46.5169L41.1285 46.3778L41.3864 46.8428C41.7419 47.4839 42.5309 48.1151 43.1917 48.2872C43.7452 48.4314 60.9607 48.2299 61.815 48.0693Z" fill="#755DAB"/>
<path d="M60.2984 59.9651L60.6411 59.6225C61.0779 59.1857 61.0994 58.6667 60.6973 58.2647L60.4109 57.9783L47.7651 57.9783L35.1192 57.9783L34.8425 58.2729C34.4878 58.6504 34.4853 59.3039 34.8373 59.6559L35.085 59.9037L47.6917 59.9343L60.2984 59.9651Z" fill="#2CBDB9"/>
<path d="M29.7728 59.9622C30.3424 59.9622 30.4739 59.9172 30.77 59.6211C31.1501 59.241 31.1936 58.9432 30.9404 58.4536C30.7287 58.0443 30.5622 57.9785 29.738 57.9785C28.9017 57.9785 28.5439 58.2659 28.5439 58.9377C28.5439 59.6343 28.9373 59.9622 29.7728 59.9622Z" fill="#2CBDB9"/>
<path d="M24.5218 59.9622C25.0913 59.9622 25.2228 59.9172 25.519 59.6211C25.9542 59.1859 25.9751 58.6664 25.5736 58.2649C25.3285 58.0198 25.1783 57.9785 24.5319 57.9785C23.8549 57.9785 23.7515 58.0104 23.5347 58.286C23.199 58.7128 23.2183 59.3148 23.5793 59.6758C23.8155 59.912 23.9808 59.9622 24.5218 59.9622Z" fill="#2CBDB9"/>
</svg>
