<svg width="48" height="67" viewBox="0 0 48 67" fill="none" xmlns="http://www.w3.org/2000/svg">
<path d="M47.1557 15.6408C47.1557 20.0571 43.5756 23.6371 39.1594 23.6371C34.7431 23.6371 31.1631 20.0571 31.1631 15.6408C31.1631 11.2246 34.7431 7.64453 39.1594 7.64453C43.5756 7.64453 47.1557 11.2246 47.1557 15.6408ZM33.8661 15.6408C33.8661 18.5642 36.236 20.9341 39.1594 20.9341C42.0828 20.9341 44.4527 18.5642 44.4527 15.6408C44.4527 12.7174 42.0828 10.3476 39.1594 10.3476C36.236 10.3476 33.8661 12.7174 33.8661 15.6408Z" fill="#2CBDB9"/>
<path d="M40.1001 2H31.6334L20.3445 36.337M19.8741 61.2667L28.3408 65.5H11.4075L19.8741 61.2667Z" stroke="#2CBDB9" stroke-width="3" stroke-linecap="round" stroke-linejoin="round"/>
<path d="M19.8741 40.1002V61.2669M19.8741 40.1002L9.44753 26.9299M19.8741 40.1002L30.3006 26.9299M9.44753 26.9299L2 17.5225H37.7481L30.3006 26.9299M9.44753 26.9299H30.3006" stroke="#755DAB" stroke-width="3" stroke-linecap="round" stroke-linejoin="round"/>
</svg>
