<svg width="64" height="64" viewBox="0 0 64 64" fill="none" xmlns="http://www.w3.org/2000/svg">
<path fill-rule="evenodd" clip-rule="evenodd" d="M23.3096 19.7736L19.8741 16.3381C20.3358 14.6088 19.8444 12.7729 18.5784 11.5069C16.6258 9.55432 13.4599 9.55432 11.5074 11.5069C9.55481 13.4596 9.55481 16.6254 11.5074 18.5781C12.7734 19.8441 14.6093 20.3355 16.3386 19.8737L19.7741 23.3092C20.7471 21.9428 21.9433 20.7466 23.3096 19.7736Z" fill="#2CBDB9"/>
<path fill-rule="evenodd" clip-rule="evenodd" d="M19.7738 40.6914L16.3383 44.1269C14.6091 43.6652 12.7732 44.1565 11.5072 45.4225C9.55457 47.3752 9.55457 50.541 11.5072 52.4937C13.4598 54.4463 16.6257 54.4463 18.5782 52.4937C19.8442 51.2277 20.3356 49.3918 19.8738 47.6625L23.3093 44.227C21.9431 43.254 20.7468 42.0578 19.7738 40.6914Z" fill="#2CBDB9"/>
<path fill-rule="evenodd" clip-rule="evenodd" d="M40.6936 44.227L44.1291 47.6625C43.6674 49.3918 44.1587 51.2277 45.4247 52.4937C47.3774 54.4463 50.5431 54.4463 52.4957 52.4937C54.4483 50.541 54.4483 47.3752 52.4957 45.4225C51.2297 44.1565 49.3939 43.6652 47.6646 44.1269L44.2291 40.6914C43.2562 42.0578 42.06 43.254 40.6936 44.227Z" fill="#2CBDB9"/>
<path fill-rule="evenodd" clip-rule="evenodd" d="M44.2254 23.3087L47.6609 19.8732C49.3902 20.335 51.2261 19.8436 52.4921 18.5776C54.4447 16.625 54.4447 13.4591 52.4921 11.5065C50.5394 9.55384 47.3736 9.55384 45.4211 11.5065C44.1551 12.7725 43.6637 14.6083 44.1254 16.3376L40.6899 19.7731C42.0562 20.7461 43.2524 21.9423 44.2254 23.3087Z" fill="#2CBDB9"/>
<path d="M29.0962 28.6355C30.4411 28.3206 31.276 26.9753 30.9612 25.6304C30.6464 24.2856 29.3011 23.4506 27.9562 23.7654C26.6114 24.0803 25.7764 25.4256 26.0912 26.7704C26.406 28.1153 27.7514 28.9503 29.0962 28.6355Z" fill="#2CBDB9"/>
<path fill-rule="evenodd" clip-rule="evenodd" d="M31.0132 26.198C31.0132 27.5788 29.894 28.698 28.5132 28.698C27.1325 28.698 26.0133 27.5788 26.0133 26.198C26.0133 24.8173 27.1325 23.698 28.5132 23.698C29.8939 23.698 31.0132 24.8173 31.0132 26.198ZM46.7922 29.5C45.7383 23.219 40.7816 18.2623 34.5008 17.2084V10.5823C36.0501 9.68609 37.0008 8.04047 37.0008 6.24998C37.0008 3.48862 34.7622 1.25 32.0009 1.25C29.2395 1.25 27.0009 3.48862 27.0009 6.24998C27.0009 8.04035 27.9516 9.68609 29.5009 10.5823V17.2084C23.2201 18.2624 18.2634 23.2192 17.2095 29.5H10.5832C9.68694 27.9508 8.0412 27 6.25096 27C3.48947 27 1.25098 29.2386 1.25098 32C1.25098 34.7614 3.48959 37 6.25096 37C8.04133 37 9.68694 36.0492 10.5832 34.5H17.2093C18.2633 40.7807 23.2199 45.7375 29.5009 46.7913V53.4177C27.9516 54.3139 27.0009 55.9595 27.0009 57.7499C27.0009 60.5114 29.2395 62.7499 32.0009 62.7499C34.7622 62.7499 37.0008 60.5114 37.0008 57.7499C37.0008 55.9595 36.0501 54.3139 34.5008 53.4177V46.7916C40.7816 45.7376 45.7383 40.7808 46.7922 34.5H53.4185C54.3148 36.0492 55.9605 37 57.7508 37C60.5121 37 62.7507 34.7614 62.7507 32C62.7507 29.2386 60.5122 27 57.7508 27C55.9604 27 54.3148 27.9508 53.4185 29.5H46.7922ZM35.1507 32.048C37.2218 32.048 38.9007 33.7269 38.9007 35.798C38.9007 37.8691 37.2218 39.548 35.1507 39.548C33.0796 39.548 31.4007 37.8691 31.4007 35.798C31.4007 33.727 33.0796 32.048 35.1507 32.048Z" fill="white"/>
<path d="M35.1504 39.5483C37.2215 39.5483 38.9004 37.8694 38.9004 35.7983C38.9004 33.7273 37.2215 32.0483 35.1504 32.0483C33.0793 32.0483 31.4004 33.7273 31.4004 35.7983C31.4004 37.8694 33.0793 39.5483 35.1504 39.5483Z" fill="#2CBDB9"/>
<path d="M57.75 25.75C55.7763 25.75 53.9208 26.6921 52.7488 28.25H47.8139C47.4091 26.5333 46.7342 24.9234 45.8361 23.4674L48.0733 21.2302C50.0034 21.5028 51.9818 20.8572 53.3775 19.4615C55.8144 17.0247 55.8144 13.0596 53.3775 10.6228C51.0513 8.19834 46.8649 8.19822 44.5388 10.6228C43.1431 12.0185 42.4972 13.9966 42.7702 15.9269L40.533 18.1641C39.0768 17.2659 37.467 16.5909 35.7502 16.1861V11.2512C40.5091 7.63997 37.9955 0.0361249 31.9999 0C26.004 0.0362499 23.491 7.64097 28.25 11.2512V16.1859C26.5333 16.5908 24.9234 17.2658 23.4673 18.1639L21.23 15.9268C21.5029 13.9964 20.857 12.0183 19.4614 10.6227C18.9013 10.0626 18.2512 9.61996 17.5293 9.30696C16.8962 9.03271 16.1599 9.32334 15.8853 9.95671C15.6108 10.5901 15.9017 11.3262 16.5351 11.6007C16.9672 11.788 17.3569 12.0537 17.6937 12.3905C18.6381 13.3347 19.0104 14.7237 18.6656 16.0152C18.5504 16.4462 18.6738 16.9059 18.9893 17.2216L21.4237 19.6559C20.79 20.1989 20.1989 20.79 19.6559 21.4237L17.2216 18.9893C16.9061 18.6738 16.4462 18.5506 16.0152 18.6656C14.7236 19.0104 13.3347 18.6379 12.3905 17.6937C12.0537 17.3569 11.7881 16.9673 11.601 16.5357C11.3263 15.9023 10.5906 15.6117 9.95683 15.8861C9.32346 16.1607 9.03259 16.8967 9.30721 17.5302C9.61996 18.2516 10.0626 18.9014 10.6226 19.4615C12.0182 20.8572 13.9959 21.5032 15.9267 21.2302L18.1639 23.4674C17.2659 24.9235 16.5909 26.5333 16.1861 28.25H11.2512C7.63997 23.4909 0.0361249 26.0044 0 32C0.0363749 37.9958 7.64084 40.5088 11.2512 35.75H16.1859C16.5908 37.4669 17.2658 39.0767 18.1639 40.5327L15.9268 42.7698C13.9967 42.4965 12.0183 43.1428 10.6227 44.5384C8.19809 46.8648 8.19809 51.0509 10.6227 53.3772C12.9491 55.8018 17.1352 55.8018 19.4615 53.3772C20.8572 51.9815 21.503 50.0033 21.2302 48.0729L23.4674 45.8358C24.9235 46.7338 26.5333 47.4088 28.25 47.8137V52.7487C23.4909 56.3599 26.0045 63.9636 32.0001 63.9997C37.996 63.9635 40.509 56.3589 35.75 52.7487V47.8139C37.4669 47.4091 39.0767 46.7341 40.5327 45.8359L42.7698 48.0729C42.497 50.0033 43.1428 51.9815 44.5384 53.377C46.8649 55.8017 51.0508 55.8018 53.3773 53.3769C55.8142 50.94 55.8142 46.9751 53.3773 44.5382C51.9817 43.1426 50.0034 42.4968 48.0731 42.7696L45.8358 40.5323C46.7338 39.0762 47.4088 37.4665 47.8137 35.7496H52.7485C56.3605 40.5091 63.9635 37.9946 63.9997 31.9995C64 28.5538 61.1963 25.75 57.75 25.75ZM45.0107 17.2216C45.3262 16.9061 45.4497 16.4462 45.3346 16.0152C44.9897 14.7237 45.3621 13.3348 46.3064 12.3905C47.7023 10.9357 50.2139 10.9357 51.6097 12.3905C53.0718 13.8526 53.0718 16.2316 51.6097 17.6937C50.6654 18.6381 49.2763 19.0104 47.9848 18.6656C47.5541 18.5506 47.0941 18.6738 46.7784 18.9893L44.3441 21.4237C43.8011 20.79 43.21 20.1989 42.5763 19.6559L45.0107 17.2216ZM18.9893 46.7784C18.6738 47.0939 18.5504 47.5537 18.6656 47.9848C19.0104 49.2764 18.6381 50.6653 17.6937 51.6097C16.2979 53.0645 13.7862 53.0644 12.3905 51.6097C10.9356 50.2139 10.9357 47.7022 12.3905 46.3064C13.3348 45.3621 14.7237 44.9897 16.0152 45.3346C16.4467 45.4497 16.9062 45.3263 17.2216 45.0108L19.6559 42.5765C20.1989 43.2101 20.79 43.8011 21.4237 44.3441L18.9893 46.7784ZM46.7784 45.0107C47.0939 45.3262 47.5538 45.4494 47.9848 45.3344C51.688 44.3822 54.2894 48.8759 51.6095 51.6095C50.2137 53.0644 47.7022 53.0643 46.3063 51.6095C45.3619 50.6653 44.9896 49.2763 45.3346 47.9848C45.4497 47.5537 45.3263 47.0939 45.0107 46.7784L42.5763 44.3442C43.21 43.8012 43.8011 43.2101 44.3441 42.5765L46.7784 45.0107ZM57.75 35.75C56.4145 35.75 55.169 35.0312 54.4997 33.8741C54.2763 33.4879 53.8639 33.25 53.4177 33.25H46.7913C46.1808 33.25 45.6596 33.691 45.5586 34.2931C44.5904 40.0632 40.0632 44.5906 34.2931 45.5588C33.691 45.6599 33.25 46.1811 33.25 46.7916V53.4177C33.25 53.8638 33.4879 54.2763 33.8741 54.4997C37.1652 56.4446 35.8289 61.4616 32 61.4999C28.1708 61.4615 26.835 56.4441 30.126 54.4997C30.5123 54.2762 30.7501 53.8638 30.7501 53.4177V46.7913C30.7501 46.1808 30.3091 45.6596 29.707 45.5586C23.9369 44.5904 19.4095 40.0632 18.4414 34.2931C18.3403 33.691 17.8192 33.25 17.2087 33.25H10.5823C10.1361 33.25 9.72371 33.4879 9.50034 33.8741C7.55522 37.1651 2.53824 35.8289 2.49999 31.9999C2.53849 28.1706 7.55584 26.835 9.50034 30.1259C9.72371 30.5121 10.1361 30.75 10.5823 30.75H17.2087C17.8192 30.75 18.3404 30.309 18.4414 29.7069C19.4097 23.9368 23.9369 19.4095 29.7069 18.4413C30.309 18.3402 30.75 17.8191 30.75 17.2086V10.5823C30.75 10.1361 30.5121 9.72371 30.1259 9.50034C26.8348 7.55522 28.171 2.53824 32 2.49999C35.8292 2.53836 37.165 7.55584 33.874 9.50021C33.4877 9.72371 33.2499 10.136 33.2499 10.5822V17.2083C33.2499 17.8188 33.6909 18.3401 34.293 18.4411C40.0631 19.4093 44.5903 23.9367 45.5584 29.7066C45.6596 30.3088 46.1807 30.7498 46.7912 30.7498H53.4175C53.8637 30.7498 54.2762 30.5119 54.4995 30.1256C56.4451 26.8341 61.4615 28.1711 61.4999 31.9997C61.5 34.0677 59.8178 35.75 57.75 35.75Z" fill="#755DAB"/>
<path d="M32.2638 26.1982C32.2638 24.1305 30.5815 22.4482 28.5138 22.4482C23.5389 22.6542 23.5404 29.743 28.5138 29.9482C30.5815 29.9482 32.2638 28.266 32.2638 26.1982ZM28.5138 27.4482C27.8245 27.4482 27.2638 26.8875 27.2638 26.1982C27.3324 24.54 29.6954 24.5405 29.7638 26.1982C29.7638 26.8875 29.203 27.4482 28.5138 27.4482Z" fill="#755DAB"/>
<path d="M35.1504 30.7983C32.3934 30.7983 30.1504 33.0413 30.1504 35.7983C30.425 42.4316 39.8768 42.4296 40.1505 35.7983C40.1505 33.0413 37.9074 30.7983 35.1504 30.7983ZM35.1504 38.2985C33.7719 38.2985 32.6504 37.177 32.6504 35.7985C32.7878 32.4817 37.5137 32.4828 37.6505 35.7985C37.6505 37.1768 36.5289 38.2985 35.1504 38.2985Z" fill="#755DAB"/>
<path d="M24.9522 34H24.9513C24.2609 34 23.7017 34.5596 23.7017 35.25C23.7677 36.9079 26.1365 36.9079 26.2022 35.25C26.2022 34.5596 25.6425 34 24.9522 34Z" fill="#755DAB"/>
<path d="M38.1509 27.0498C39.8094 26.9838 39.8082 24.6152 38.1509 24.5498H38.15C36.4914 24.6161 36.4935 26.9846 38.1509 27.0498Z" fill="#755DAB"/>
<path d="M11.5062 12.7563C13.1647 12.6903 13.1634 10.3217 11.5062 10.2563H11.5052C9.84654 10.3225 9.84891 12.6911 11.5062 12.7563Z" fill="#755DAB"/>
</svg>
