<svg width="50" height="56" viewBox="0 0 50 56" fill="none" xmlns="http://www.w3.org/2000/svg">
<path d="M14.1765 55.127C9.08523 53.6715 4.34403 49.6779 1.89208 44.7797C0.355792 41.7107 -0.00720986 40.1382 0.000107684 36.584C0.0128573 30.3799 1.93158 26.5203 9.18797 18.1016C10.9559 16.0505 13.0204 13.5171 13.7756 12.4718C15.3857 10.2435 17.0118 6.92008 17.54 4.77842C17.9726 3.02418 18.4602 2.37562 19.3464 2.37562C20.3522 2.37562 20.7492 2.85522 21.2529 4.67868C22.5098 9.22948 24.1995 11.735 32.0177 20.6411C34.0904 23.0022 36.5892 26.8925 37.4246 29.0586C40.2604 36.4121 38.7293 44.1927 33.3709 49.6583C30.6045 52.4801 27.5091 54.3505 24.1769 55.214C22.0838 55.7564 16.1989 55.7053 14.1765 55.127ZM21.2236 52.2528C23.6593 51.9473 25.7541 51.1776 27.8647 49.8123C31.7209 47.3177 34.2393 43.701 35.133 39.3745C35.6008 37.1094 35.6019 36.4141 35.142 33.9874C34.448 30.3294 32.7136 27.2072 28.7398 22.4623C27.4327 20.9016 25.8186 18.9735 25.1528 18.1777C23.225 15.8734 21.1205 12.9557 20.2692 11.4071C19.8369 10.6208 19.4082 9.97749 19.3165 9.97749C19.2248 9.97749 19.0789 10.2009 18.9922 10.474C18.5168 11.9717 15.0335 16.5826 9.85569 22.5681C7.19977 25.6382 5.28475 28.6098 4.37177 31.0777C3.37594 33.7694 3.12667 37.8127 3.80041 40.345C4.8991 44.4745 7.76794 48.1567 11.5765 50.3259C13.6254 51.4927 15.5198 52.0396 19.0052 52.4702C19.1393 52.4864 20.1378 52.3885 21.224 52.2528H21.2236ZM18.7611 50.5995C12.9576 49.7267 7.96518 45.5901 6.07112 40.0849C5.44293 38.2591 5.04662 35.3339 5.32739 34.5954C5.60103 33.8756 6.45856 33.2581 7.1844 33.2581C8.02938 33.2581 8.90241 34.2729 8.90241 35.2548C8.90241 36.694 9.39442 38.5417 10.2685 40.3849C12.1267 44.3035 16.908 47.5116 20.8896 47.5116C22.0286 47.5116 22.5504 47.8112 22.9057 48.6688C23.3004 49.6218 22.9207 50.2735 21.7872 50.5882C20.8079 50.8602 20.5015 50.8613 18.7611 50.5999V50.5995ZM39.8788 36.6995C39.4166 36.2373 39.2982 35.9054 39.3551 35.2318C39.4222 34.4385 39.57 34.2756 41.0261 33.3901C43.2562 32.034 44.6624 30.5738 45.6142 28.6258C48.0291 23.6827 46.9222 19.6102 41.3201 12.8282C40.5107 11.8483 39.3261 10.2447 38.6876 9.26475C38.0491 8.28483 37.4462 7.42962 37.3478 7.36426C37.2494 7.29871 36.6618 8.0005 36.042 8.92323C33.995 11.9707 30.735 15.9131 30.1381 16.0629C29.1712 16.3056 28.3777 15.9603 28.0364 15.1485C27.6344 14.1926 27.7016 14.0212 29.3076 11.9063C32.5604 7.62267 33.2179 6.67444 33.9979 5.14252C34.4538 4.24717 35.0375 2.83256 35.295 1.99881C35.7914 0.391822 36.1955 0 37.357 0C38.2443 0 38.6972 0.538896 39.0542 2.01919C39.5088 3.90416 40.812 6.35469 42.6233 8.73033C46.9847 14.4509 47.6472 15.3707 48.3348 16.6607C49.7215 19.2624 50 20.4482 50 23.7499C50 28.3922 49.036 30.8745 46.08 33.8441C44.5309 35.4004 41.6374 37.2966 40.8119 37.2966C40.6272 37.2966 40.2073 37.0279 39.8788 36.6995Z" fill="#2CBDB9"/>
<path fill-rule="evenodd" clip-rule="evenodd" d="M1.89208 44.7797C4.34403 49.6779 9.08523 53.6714 14.1765 55.127C16.1989 55.7053 22.0838 55.7564 24.1769 55.214C27.5091 54.3505 30.6045 52.4801 33.3709 49.6583C38.7293 44.1927 40.2604 36.4121 37.4246 29.0586C36.5892 26.8925 34.0904 23.0022 32.0177 20.6411C24.1995 11.735 22.5098 9.22948 21.2529 4.67868C20.7492 2.85522 20.3522 2.37562 19.3464 2.37562C18.4602 2.37562 17.9726 3.02418 17.54 4.77842C17.0118 6.92008 15.3857 10.2435 13.7756 12.4718C13.0204 13.5171 10.9559 16.0506 9.18797 18.1016C1.93158 26.5203 0.0128573 30.3799 0.000107684 36.584C-0.00720986 40.1382 0.355792 41.7107 1.89208 44.7797ZM27.8647 49.8123C25.7541 51.1776 23.6593 51.9473 21.2236 52.2528H21.224C20.1378 52.3885 19.1393 52.4864 19.0052 52.4702C15.5198 52.0396 13.6254 51.4927 11.5765 50.3259C7.76794 48.1567 4.8991 44.4745 3.80041 40.345C3.12667 37.8127 3.37594 33.7694 4.37177 31.0777C5.28475 28.6099 7.19977 25.6382 9.85569 22.5681C15.0335 16.5826 18.5168 11.9717 18.9922 10.474C19.0789 10.2009 19.2248 9.97749 19.3165 9.97749C19.4082 9.97749 19.8369 10.6208 20.2692 11.4071C21.1205 12.9557 23.225 15.8734 25.1528 18.1777C25.8186 18.9735 27.4327 20.9016 28.7398 22.4623C32.7136 27.2072 34.448 30.3294 35.142 33.9874C35.6019 36.4141 35.6008 37.1094 35.133 39.3745C34.2393 43.701 31.7209 47.3177 27.8647 49.8123ZM39.3551 35.2318C39.2982 35.9054 39.4166 36.2373 39.8788 36.6995C40.2073 37.0279 40.6272 37.2966 40.8119 37.2966C41.6374 37.2966 44.5309 35.4004 46.08 33.8441C49.036 30.8745 50 28.3922 50 23.7499C50 20.4482 49.7215 19.2624 48.3348 16.6607C47.6472 15.3707 46.9847 14.4509 42.6233 8.73033C40.812 6.35469 39.5088 3.90416 39.0542 2.01919C38.6972 0.538896 38.2443 0 37.357 0C36.1955 0 35.7914 0.391822 35.295 1.99881C35.0375 2.83256 34.4538 4.24717 33.9979 5.14252C33.2179 6.67444 32.5604 7.62267 29.3076 11.9063C27.7016 14.0212 27.6344 14.1926 28.0364 15.1485C28.3777 15.9603 29.1712 16.3056 30.1381 16.0629C30.735 15.9131 33.995 11.9707 36.042 8.92323C36.6618 8.0005 37.2494 7.29871 37.3478 7.36426C37.4462 7.42962 38.0491 8.28483 38.6876 9.26475C39.3261 10.2447 40.5107 11.8483 41.3201 12.8282C46.9222 19.6102 48.0291 23.6827 45.6142 28.6258C44.6624 30.5738 43.2562 32.034 41.0261 33.3901C39.57 34.2756 39.4222 34.4385 39.3551 35.2318Z" fill="#755DAB"/>
</svg>
