<svg width="64" height="46" viewBox="0 0 64 46" fill="none" xmlns="http://www.w3.org/2000/svg">
<path d="M23.0007 16.5259C7.2136 16.8068 0.675781 28.0292 0.675781 28.0292C0.675781 28.0292 7.2136 39.2516 23.0007 39.5325C38.7877 39.2516 45.3256 28.0291 45.3256 28.0291C45.3256 28.0291 38.7877 16.8068 23.0007 16.5259Z" fill="white"/>
<path d="M42.5475 24.5889C42.7528 24.8904 42.8533 25.0628 42.8533 25.0628C42.8533 25.0628 36.3154 36.2852 20.5284 36.5661C10.5358 36.3883 4.25016 31.8275 0.981201 28.5031C2.43524 30.6391 9.16657 39.2863 23.0004 39.5324C38.7874 39.2515 45.3252 28.0291 45.3252 28.0291C45.3252 28.0291 44.4431 26.5167 42.5475 24.5889Z" fill="#F7FBFE"/>
<path d="M23.0004 39.5326C29.3536 39.5326 34.5039 34.3824 34.5039 28.0292C34.5039 21.6761 29.3536 16.5259 23.0004 16.5259C16.6471 16.5259 11.4968 21.6761 11.4968 28.0292C11.4968 34.3824 16.6471 39.5326 23.0004 39.5326Z" fill="#2CBDB9"/>
<path d="M23.0009 34.456C19.4569 34.456 16.5737 31.5729 16.5737 28.0291C16.5737 24.4852 19.4569 21.6021 23.0009 21.6021C26.5447 21.6021 29.4279 24.4852 29.4279 28.0291C29.4279 31.5729 26.5447 34.456 23.0009 34.456Z" fill="white"/>
<path d="M26.8394 27.2997C25.1249 27.2997 23.73 25.9049 23.73 24.1904C23.73 22.4759 25.1248 21.0811 26.8394 21.0811C28.5539 21.0811 29.9487 22.4759 29.9487 24.1904C29.9487 25.9049 28.5539 27.2997 26.8394 27.2997Z" fill="white"/>
<path d="M29.5157 18.5483C30.7909 20.4005 31.538 22.6445 31.538 25.0631C31.538 31.4162 26.3877 36.5665 20.0344 36.5665C17.6157 36.5665 15.3718 35.8194 13.5195 34.5443C15.5938 37.5572 19.0663 39.5328 23.0008 39.5328C29.354 39.5328 34.5044 34.3826 34.5044 28.0295C34.5044 24.095 32.5287 20.6225 29.5157 18.5483Z" fill="#2CBDB9"/>
<path d="M45.9056 27.6901C45.8363 27.571 44.1644 24.7404 40.498 21.8535C38.3503 20.1625 35.9586 18.8031 33.3892 17.813C29.9997 16.507 26.1513 15.8561 23.0148 15.8522C23.0133 15.8522 23.012 15.8521 23.0106 15.8521C23.0088 15.8521 23.0071 15.8521 23.0055 15.8521C23.0032 15.8521 23.0009 15.8521 22.9986 15.8521C22.9963 15.8521 22.994 15.8521 22.9917 15.8521C22.99 15.8521 22.9883 15.8521 22.9867 15.8521C22.985 15.8521 22.9833 15.8522 22.9816 15.8522C17.9341 15.8592 12.4095 17.295 7.73261 20.27C7.41862 20.4697 7.326 20.8861 7.52571 21.2001C7.72542 21.514 8.14182 21.6066 8.4559 21.407C10.7389 19.9548 13.2135 18.8749 15.858 18.1718C12.8084 20.387 10.8213 23.9801 10.8213 28.0292C10.8213 32.0669 12.7973 35.6513 15.8325 37.868C11.6432 36.7427 8.50845 34.851 6.38081 33.1839C3.61576 31.0173 2.02166 28.8464 1.47355 28.0293C1.99462 27.2522 3.45881 25.2544 5.97231 23.2014C6.26051 22.9661 6.30328 22.5415 6.0679 22.2534C5.83243 21.9652 5.40812 21.9223 5.11983 22.1578C1.71468 24.9392 0.156252 27.5792 0.091568 27.6901C-0.0305227 27.8997 -0.0305227 28.1589 0.091568 28.3685C0.160923 28.4875 1.83273 31.3181 5.49922 34.205C7.6469 35.896 10.0387 37.2554 12.608 38.2455C15.9975 39.5516 19.8459 40.2025 22.9824 40.2063C22.9839 40.2063 22.9852 40.2064 22.9867 40.2064C22.9906 40.2065 22.9947 40.2065 22.9986 40.2065C23.0026 40.2065 23.0066 40.2065 23.0106 40.2064C23.0118 40.2064 23.0132 40.2063 23.0144 40.2063C24.3075 40.2047 26.0753 40.0107 26.0753 40.0107C31.6528 39.3882 36.5972 37.3616 40.7713 33.9871C41.0607 33.7531 41.1057 33.3289 40.8716 33.0396C40.6378 32.7501 40.2136 32.7053 39.9241 32.9392C37.0361 35.2739 33.7567 36.93 30.1373 37.8883C33.188 35.6733 35.176 32.0794 35.176 28.0295C35.176 23.9917 33.2 20.4073 30.1649 18.1907C34.354 19.3159 37.4888 21.2077 39.6164 22.8748C42.3817 25.0416 43.9758 27.2126 44.5238 28.0297C44.1752 28.5504 43.4053 29.6172 42.1865 30.8741C41.9274 31.1412 41.934 31.5678 42.2012 31.8267C42.4681 32.0858 42.8949 32.0793 43.1538 31.812C44.9871 29.9215 45.868 28.4328 45.9046 28.3703C46.0276 28.1603 46.0282 27.9003 45.9056 27.6901ZM33.8284 28.0293C33.8284 33.6728 29.4158 38.7421 22.9986 38.8588C16.6002 38.7427 12.1689 33.6888 12.1689 28.0293C12.1689 22.3967 16.5687 17.3164 22.9986 17.1998C29.397 17.3158 33.8284 22.3696 33.8284 28.0293Z" fill="#755DAB"/>
<path d="M22.9984 20.9282C19.083 20.9282 15.8975 24.1136 15.8975 28.029C15.8975 31.9444 19.083 35.1297 22.9984 35.1297C26.9138 35.1297 30.0992 31.9444 30.0992 28.029C30.0992 27.4801 30.034 26.9328 29.907 26.397C30.3551 25.7753 30.6202 25.0134 30.6202 24.1903C30.6202 22.1042 28.9231 20.4072 26.8371 20.4072C26.014 20.4072 25.2521 20.6722 24.6304 21.1204C24.0948 20.9934 23.5475 20.9282 22.9984 20.9282ZM22.9984 33.7822C19.826 33.7822 17.245 31.2012 17.245 28.029C17.245 24.8566 19.826 22.2757 22.9984 22.2757C23.1861 22.2757 23.3736 22.2851 23.5602 22.3035C23.56 22.3038 23.5598 22.3041 23.5597 22.3044C23.2145 22.9018 23.054 23.5606 23.054 24.1904C23.054 25.6244 23.8562 26.8747 25.0354 27.5161C26.2161 28.1583 27.6151 28.1068 28.721 27.4689C28.722 27.4683 28.7231 27.4678 28.7241 27.4672C28.7425 27.6539 28.7518 27.8414 28.7518 28.029C28.7517 31.2012 26.1708 33.7822 22.9984 33.7822ZM28.6687 25.7928C28.6675 25.7941 28.666 25.7953 28.6649 25.7966C27.1752 27.4892 24.4015 26.4179 24.4015 24.1904C24.4015 22.8601 25.4852 21.7548 26.837 21.7548C28.9318 21.7548 30.0377 24.2301 28.6687 25.7928Z" fill="#755DAB"/>
<path fill-rule="evenodd" clip-rule="evenodd" d="M40.3058 44.2372C42.799 44.7975 45.6946 43.9111 47.9459 41.8789C52.316 37.9366 49.4662 35.2651 56.9918 28.2718C60.4196 25.0833 62.8008 22.3481 63.0631 17.9295C63.7788 5.92677 53.9484 -2.24064 42.4272 2.06595C40.0154 2.96748 37.8253 4.42673 36.2489 6.4667C32.9203 10.7732 33.4627 15.4847 36.2922 20.9117C37.5935 23.4076 38.7497 26.2548 38.0978 30.5842C37.8609 32.1556 37.1937 33.5639 36.6079 34.8169C35.0519 38.1454 36.3227 43.3408 40.3058 44.2372Z" fill="white"/>
<path d="M62.1579 10.7552C61.6808 10.8918 61.4049 11.3892 61.5415 11.8661C62.0812 13.7516 62.2912 15.7737 62.1654 17.8763C61.9341 21.7733 60.0353 24.2131 56.3794 27.6138C51.9636 31.7172 50.9584 34.4779 50.1506 36.6962C49.5498 38.3462 49.0753 39.6495 47.3431 41.2122C45.3265 43.0326 42.7051 43.8559 40.5022 43.3608C38.8713 42.9939 37.9867 41.8114 37.5319 40.8842C36.6837 39.1552 36.6391 36.8699 37.421 35.1974L37.4511 35.133C38.052 33.8478 38.7331 32.3913 38.9853 30.718C39.695 26.0051 38.3781 22.9707 37.0879 20.4965C34.1494 14.8601 34.1096 10.7025 36.9588 7.01611C38.343 5.22482 40.3425 3.80412 42.7408 2.90753C48.3941 0.794165 53.8536 1.70513 57.7192 5.40684C58.0776 5.74993 58.6464 5.73762 58.9895 5.37935C59.3327 5.02098 59.3204 4.4523 58.962 4.10912C56.8911 2.12611 54.2991 0.797938 51.4664 0.26834C48.4597 -0.293601 45.3124 0.0279316 42.1117 1.22458C39.3996 2.23841 37.1262 3.86116 35.5372 5.91739C32.2467 10.1747 32.2331 15.0713 35.4946 21.3272C36.6537 23.5503 37.8377 26.2718 37.2085 30.4504C36.9951 31.8661 36.3726 33.1974 35.8234 34.3719L35.7932 34.4365C34.7777 36.6087 34.8271 39.4502 35.9187 41.6755C36.8061 43.4845 38.2938 44.7055 40.1079 45.1138C40.675 45.2412 41.2564 45.3037 41.8437 45.3036C44.1608 45.3036 46.5688 44.3316 48.5467 42.546C50.6106 40.6841 51.2073 39.0456 51.839 37.3108C52.6194 35.1677 53.5038 32.7387 57.6028 28.9296C60.9074 25.8558 63.6666 22.9104 63.959 17.9832C64.0969 15.6774 63.8647 13.4529 63.2688 11.3715C63.1323 10.8946 62.6351 10.6186 62.1579 10.7552Z" fill="#755DAB"/>
<path d="M40.4459 35.6179C39.9964 35.4078 39.4617 35.602 39.2516 36.0515C38.2604 38.1726 38.8354 39.4886 39.2662 40.0844C39.8708 40.9201 40.9066 41.3879 42.1053 41.3878C42.2923 41.3878 42.4833 41.3765 42.6772 41.3533C44.4148 41.1459 46.6847 39.9151 47.8444 37.0829C48.0324 36.6238 47.8126 36.0991 47.3534 35.9112C46.8943 35.7231 46.3696 35.9431 46.1816 36.4021C45.3173 38.5133 43.6946 39.4223 42.4643 39.5692C41.6846 39.6624 41.0332 39.4611 40.7221 39.0313C40.3776 38.5549 40.4335 37.7668 40.8794 36.8122C41.0896 36.3626 40.8954 35.828 40.4459 35.6179Z" fill="#755DAB"/>
<path d="M48.409 29.317C48.0425 29.6514 48.0165 30.2197 48.351 30.5861C48.5282 30.7803 48.7711 30.8789 49.0149 30.8789C49.2311 30.8789 49.4479 30.8014 49.6202 30.6441C55.8024 25.0029 58.5467 21.0567 58.7962 17.4501C58.9259 15.6099 58.752 13.903 58.2792 12.3757C57.177 8.83206 54.4344 6.31946 50.7546 5.48234C46.8357 4.59079 42.6777 5.76363 40.1613 8.47046C38.5705 10.182 37.2364 12.978 38.2624 15.6923C39.3742 18.6379 42.4143 20.1202 44.7107 19.8506C45.8396 19.7186 46.5858 20.1143 46.8676 20.9954C47.3278 22.4332 46.4571 24.6611 44.2039 25.9005C43.7691 26.1396 43.6106 26.686 43.8496 27.1207C44.0888 27.5554 44.6351 27.7139 45.0698 27.4749C48.2499 25.7258 49.2513 22.5489 48.579 20.4479C48.035 18.7481 46.4732 17.8356 44.5017 18.0661C42.9257 18.2507 40.7342 17.1534 39.9432 15.0575C39.2076 13.1113 40.2533 11.0107 41.4773 9.6938C43.5332 7.48224 47.1009 6.49402 50.3559 7.23438C52.1413 7.64054 55.3219 8.91795 56.563 12.9081C56.9693 14.2209 57.1177 15.7066 57.0038 17.325C56.7918 20.3879 54.1411 24.0864 48.409 29.317Z" fill="#755DAB"/>
<path d="M60.2059 8.57428C60.3811 8.74937 60.6101 8.83678 60.8392 8.83678C61.0692 8.83678 61.2994 8.74874 61.4751 8.57302C61.8259 8.22221 61.8247 7.6521 61.4739 7.3012C61.123 6.95038 60.5542 6.95038 60.2033 7.3012C59.8525 7.65201 59.8525 8.22086 60.2033 8.57176L60.2059 8.57428Z" fill="#755DAB"/>
<path d="M48.8068 11.1638C49.0138 10.9526 49.0137 10.6104 48.8065 10.3994C48.5994 10.1884 48.2636 10.1885 48.0566 10.3997C46.0296 12.468 46.0296 15.832 48.0568 17.8987C48.1604 18.0043 48.296 18.057 48.4317 18.057C48.5674 18.057 48.7032 18.0042 48.8067 17.8987C49.0137 17.6876 49.0138 17.3453 48.8067 17.1342C47.1927 15.4889 47.1928 12.8106 48.8068 11.1638Z" fill="#755DAB"/>
<path d="M50.3274 12.6865C50.543 12.4765 50.543 12.136 50.3274 11.926C50.1118 11.7161 49.7622 11.7161 49.5466 11.926C48.2879 13.1519 48.2879 15.1465 49.5466 16.3724C49.6544 16.4774 49.7957 16.5299 49.937 16.5299C50.0783 16.5299 50.2196 16.4774 50.3274 16.3724C50.543 16.1624 50.543 15.8219 50.3274 15.6119C49.4992 14.8054 49.4992 13.4931 50.3274 12.6865Z" fill="#755DAB"/>
</svg>
