<svg width="56" height="59" viewBox="0 0 56 59" fill="none" xmlns="http://www.w3.org/2000/svg">
<path d="M21.8477 58.2372C20.8674 57.8077 20.5733 57.0052 20.2727 53.9383C20.0004 51.1607 19.9518 51.1268 15.985 50.9658C12.9056 50.8409 12.5132 50.7648 11.516 50.0997C9.86247 48.9966 9.55965 48.0722 9.22664 43.1101C8.89948 38.235 8.56796 37.0849 7.42115 36.8472C4.60398 36.2634 3.34542 35.4949 2.72147 33.9775C2.06884 32.3903 2.5042 30.8304 4.86194 26.3075L7.07328 22.0652V19.0145V15.9639L5.23694 15.775C1.39457 15.3799 0 14.6702 0 13.11C0 11.8923 1.24487 10.862 3.73572 10.0184L5.8315 9.30859L6.3806 9.86174C6.80272 10.287 6.86348 10.5207 6.64327 10.8723C6.27849 11.455 5.94313 11.6412 3.94474 12.3715C2.44032 12.9212 2.36911 12.9832 3.03611 13.1645C3.43414 13.2726 4.59961 13.4462 5.62604 13.55L7.49228 13.7388L7.95396 12.2285C8.34255 10.9572 8.36492 10.5033 8.09532 9.36005C7.78632 8.04961 7.71225 7.97088 5.9959 7.13036C2.18582 5.26465 0.617532 3.76374 0.975845 2.32569C1.20297 1.41401 2.21598 0.900484 4.24246 0.669509C6.10615 0.457075 11.9322 1.00053 12.46 1.43596C12.6546 1.5965 12.777 2.04681 12.732 2.43657L12.6503 3.14512L8.02547 3.06129C2.76409 2.96703 2.74395 2.98976 6.46777 4.84946L8.44666 5.83794L9.18824 5.1414C10.2777 4.11807 10.9738 3.82964 12.3551 3.82964C13.308 3.82964 13.9399 3.60536 15.108 2.85267C18.4341 0.709374 21.7687 -0.0123727 28.286 0.000160006C37.2881 0.0177679 42.0425 1.21227 45.9914 4.45006C46.806 5.11802 47.8401 5.85573 48.2893 6.08929C48.7386 6.32285 49.339 6.77331 49.6237 7.09015C50.2684 7.80773 50.4655 7.80655 52.2123 7.07561C53.924 6.35908 53.6809 6.12878 50.9405 5.87005C48.4314 5.63317 47.4336 4.77232 48.5685 3.82357C49.2212 3.27793 53.1298 3.67434 54.6641 4.44184C55.7699 4.99504 55.9153 5.17566 55.9904 6.08879C56.0995 7.41663 55.2962 8.1958 52.7485 9.23311C51.718 9.65269 50.8157 10.181 50.7434 10.4071C50.6711 10.6332 50.8911 11.7016 51.2322 12.7815C51.7693 14.482 51.887 14.6655 52.1109 14.1517C52.5401 13.167 53.4552 13.2677 54.6523 14.4312C56.152 15.8889 56.2761 16.5166 55.2658 17.5342C54.6718 18.1326 54.1942 18.3543 53.4996 18.3543H52.5475L52.7021 22.9574C52.9354 29.9048 52.7965 30.3777 48.3765 37.684C47.3888 39.3167 47.0347 40.2256 46.7946 41.7453C46.3741 44.4067 46.3587 44.4382 45.5292 44.3384C44.3812 44.2003 44.1821 43.5925 44.5593 41.377C44.9319 39.1884 45.5862 37.7575 47.7277 34.448C50.3792 30.3504 50.77 28.6706 50.4627 22.6918C50.2306 18.1773 50.6059 18.5617 45.9763 18.0962C42.8341 17.7804 35.6596 16.438 30.6249 15.224C29.1392 14.8657 27.7926 14.6173 27.6323 14.672C26.9419 14.9074 17.7278 15.6882 13.7385 15.8492L9.38573 16.025L9.24971 19.5875L9.11368 23.1501L6.86926 27.4214C5.63485 29.7706 4.62487 31.9997 4.62487 32.375C4.62487 33.3115 5.62213 34.1538 6.99895 34.38C9.52664 34.7954 10.8564 36.3513 11.1106 39.1908L11.2901 41.1952L12.7863 41.5047C15.6573 42.0989 16.8411 43.1663 15.7963 44.2188C15.2745 44.7444 15.2041 44.7495 14.3168 44.3232C13.8044 44.0771 12.9366 43.7908 12.3884 43.6873L11.3915 43.4989L11.5754 45.2455C11.9042 48.3682 12.4896 48.7728 16.6807 48.7744C18.9655 48.7752 19.607 48.8706 20.3382 49.3198C21.5527 50.0658 22.2192 51.277 22.4269 53.1154C22.5233 53.9679 22.668 55.0043 22.7487 55.4188L22.8954 56.1725H35.112H47.3286L46.7653 54.7338C46.0665 52.949 44.8897 48.5725 44.8888 47.7553C44.8884 47.4215 45.1329 47.0164 45.4322 46.855C46.4382 46.3127 46.8991 46.9078 47.5481 49.5886C47.8819 50.9674 48.5343 53.0623 48.9978 54.2439C49.761 56.1894 49.8058 56.465 49.4727 57.1649C48.7759 58.6287 48.7505 58.6313 35.2304 58.6241C25.1644 58.6137 22.5462 58.5435 21.8477 58.2372ZM49.7834 15.9567C49.7826 15.8437 49.6517 15.2788 49.4926 14.7014C49.2636 13.871 49.1077 13.6928 48.7459 13.8485C46.4897 14.8193 44.7219 14.5824 43.2641 13.1139L42.4277 12.2714L38.5816 12.9817C36.4662 13.3724 34.6969 13.7307 34.6498 13.7782C34.5286 13.9003 40.6231 15.0678 44.344 15.6353C47.7654 16.1571 49.7858 16.2765 49.7834 15.9567ZM53.2989 16.0907C53.2366 16.0514 52.9101 15.7857 52.5734 15.5001C51.9686 14.9872 51.9613 14.9881 51.9613 15.5717C51.9613 16.0288 52.1253 16.1623 52.6868 16.1623C53.0858 16.1623 53.3613 16.1301 53.2989 16.0907ZM19.7962 13.2431C21.0332 13.1458 22.0071 13.0273 21.9605 12.9804C21.914 12.9338 20.4949 12.4589 18.8072 11.9258C16.0609 11.0585 15.6952 11.0005 15.3249 11.3735C14.3721 12.3334 13.2692 12.6712 11.647 12.5005C10.7656 12.4072 10.0658 12.4435 10.0658 12.5812C10.0658 12.7173 9.98388 13.0438 9.88368 13.3067C9.71368 13.753 9.96316 13.7728 13.6243 13.6027C15.7819 13.5022 18.5592 13.3407 19.7962 13.2431ZM32.1507 11.7833C34.048 11.4883 36.9927 10.9829 38.6946 10.6602L41.789 10.0733L42.254 8.7543C42.5126 8.02077 43.0954 7.11626 43.5669 6.71666C44.3798 6.02757 44.3936 5.98166 43.9032 5.59999C42.9246 4.83818 40.1159 3.56227 38.3589 3.08127C36.8586 2.67038 35.3948 2.59702 28.7012 2.59702C20.046 2.59702 19.9228 2.61669 16.7333 4.49949L15.5086 5.22245L15.9702 5.93213C16.2241 6.32241 16.4991 7.13783 16.5814 7.74395C16.7158 8.73383 16.842 8.88588 17.8192 9.23576C19.518 9.84396 27.8376 12.2779 28.2931 12.3001C28.5175 12.3114 30.2535 12.0784 32.1507 11.7833ZM47.9486 11.4614C49.0476 10.153 48.0886 7.94094 46.4225 7.94094C44.0917 7.94094 43.5174 11.2963 45.7042 12.1368C46.3675 12.3917 47.4376 12.0695 47.9486 11.4614ZM13.7509 9.73468C14.1718 9.31064 14.4186 8.74883 14.4186 8.2148C14.4186 7.15832 13.3571 6.02253 12.3697 6.02253C11.4975 6.02253 10.0658 7.38484 10.0658 8.2148C10.0658 9.04485 11.4975 10.4072 12.3697 10.4072C12.7644 10.4072 13.3814 10.1068 13.7509 9.73468Z" fill="#755DAB"/>
<path d="M26.5538 32.2359C26.9433 33.4408 27.2938 33.9798 27.9931 34.4501C29.3014 35.3296 30.7748 35.2791 31.8403 34.3179C32.5005 33.7225 32.7189 33.2479 32.8809 32.057C33.0219 31.0202 33.3955 30.0793 34.0778 29.0425C36.3435 25.5993 35.9004 21.1181 33.1546 19.7071C31.7117 18.9655 29.4503 18.8888 28.4523 19.5475C26.3584 20.9295 25.6501 25.1658 27.5612 24.8766C28.1854 24.7822 28.3983 24.4395 28.8891 22.7396C29.2407 21.5214 29.261 21.5058 30.5349 21.4229C31.6124 21.3532 31.937 21.4527 32.5073 22.0271C33.0936 22.6177 33.1898 22.9616 33.1898 24.4658C33.1898 26.0559 33.0857 26.3788 32.0587 27.9725C31.2631 29.207 30.8898 30.1124 30.8003 31.0244C30.5715 33.3573 29.3425 33.4731 28.565 31.2349C28.0146 29.6505 27.3978 29.2744 26.6255 30.0524L26.0388 30.6433L26.5538 32.2359Z" fill="#2CBDB9"/>
<path d="M11.8611 24.428C11.3416 25.1752 11.2919 26.2021 11.766 26.3947V26.3932C12.4591 26.6749 12.987 26.56 13.4701 26.0224L13.9663 25.4701L14.5762 26.0472C15.2664 26.7004 15.9859 26.6659 16.4283 25.9582C16.6509 25.6021 16.6404 25.3551 16.3876 24.999C15.7483 24.0982 15.7128 23.8137 16.1756 23.2986C16.4302 23.0152 16.5981 22.4956 16.5486 22.1441C16.4328 21.32 15.1466 21.1151 14.3943 21.8008C13.9013 22.2517 13.8472 22.2516 13.3527 21.8008C12.6303 21.1422 11.5862 21.3337 11.472 22.1456C11.4226 22.4972 11.5878 23.0137 11.8392 23.2935C12.2597 23.7615 12.2614 23.8524 11.8611 24.428Z" fill="#2CBDB9"/>
<path d="M12.8872 17.1215C11.5884 17.8261 11.2437 18.5199 11.8545 19.1998C12.4232 19.8329 12.7527 19.8552 13.521 19.3131C14.0406 18.9464 14.2993 18.9465 15.8705 19.3136C17.7269 19.7473 18.3556 19.6751 18.6132 18.9989C18.7967 18.5173 18.391 17.6528 17.8947 17.4673C17.7035 17.3958 16.7134 17.1721 15.6945 16.9704C13.9886 16.6325 13.7664 16.6446 12.8872 17.1215Z" fill="#2CBDB9"/>
</svg>
