<svg width="64" height="64" viewBox="0 0 64 64" fill="none" xmlns="http://www.w3.org/2000/svg">
<g clip-path="url(#clip0_7_5035)">
<path d="M25.0299 46.9164H18.9448C13.0955 46.9164 8.35376 42.1746 8.35376 36.3254V11.875H35.6209V36.3254C35.6209 42.1746 30.8791 46.9164 25.0299 46.9164Z" fill="white"/>
<path d="M25.0299 46.9164H18.9448C13.0955 46.9164 8.35376 42.1746 8.35376 36.3254V18.4366H35.6209V36.3254C35.6209 42.1746 30.8791 46.9164 25.0299 46.9164Z" fill="#2CBDB9"/>
<path d="M28.614 35.6613C28.614 32.2102 24.9531 27.6442 24.9531 27.6442C24.9531 27.6442 21.2922 32.2102 21.2922 35.6613C21.2922 39.1124 23.312 40.1417 24.9531 40.1417C26.5942 40.1417 28.614 39.1124 28.614 35.6613Z" fill="white"/>
<path d="M55.6467 0H29.8957C29.1984 0 28.6333 0.56525 28.6333 1.26237C28.6333 4.4395 26.0273 6.107 23.25 6.48075V4.16437C23.25 3.46725 22.6849 2.902 21.9877 2.902C21.2904 2.902 20.7253 3.46725 20.7253 4.16437V6.46875C17.9787 6.0735 15.4233 4.4085 15.4233 1.2625C15.4233 0.56525 14.8582 0 14.161 0C13.4638 0 12.8987 0.56525 12.8987 1.26237C12.8987 3.70563 13.9253 5.75825 15.8677 7.1985C17.2 8.1865 18.8909 8.81425 20.7253 9.01637V10.939H8.35417C7.65692 10.939 7.0918 11.5042 7.0918 12.2014V36.2207C7.0918 42.8145 12.4562 48.1789 19.0499 48.1789H20.7253V50.7972H17.9902C17.2929 50.7972 16.7278 51.3625 16.7278 52.0596C16.7278 52.7567 17.2929 53.322 17.9902 53.322H20.7253V55.6054C20.7253 59.1205 23.585 61.9804 27.1002 61.9804H29.8774C33.3925 61.9804 36.2524 59.1206 36.2524 55.6054C36.2524 53.4824 37.9795 51.7551 40.1025 51.7551H41.4912C43.6142 51.7551 45.3414 53.4824 45.3414 55.6054V56.8046C45.3414 57.5018 45.9065 58.067 46.6038 58.067C47.301 58.067 47.8662 57.5018 47.8662 56.8046V55.6054C47.8662 52.0902 45.0064 49.2304 41.4912 49.2304H40.1025C36.5874 49.2304 33.7277 52.0901 33.7277 55.6054C33.7277 57.7284 32.0004 59.4556 29.8774 59.4556H27.1002C24.9772 59.4556 23.25 57.7284 23.25 55.6054V53.322H25.9852C26.6824 53.322 27.2475 52.7567 27.2475 52.0596C27.2475 51.3625 26.6824 50.7972 25.9852 50.7972H23.25V48.1787H24.9254C31.5192 48.1787 36.8837 42.8144 36.8837 36.2206V12.2014C36.8837 11.5042 36.3185 10.939 35.6213 10.939H23.25V9.02413C25.1157 8.83175 26.837 8.201 28.189 7.1985C29.7868 6.01375 30.7649 4.41475 31.0617 2.52475H54.3843V62.7376C54.3843 63.4347 54.9494 64 55.6467 64C56.3439 64 56.909 63.4347 56.909 62.7376V1.26237C56.909 0.56525 56.3439 0 55.6467 0V0ZM34.3589 36.2206C34.3589 41.4223 30.127 45.654 24.9254 45.654H19.0499C14.5294 45.654 10.743 42.4573 9.82855 38.206H14.3713C15.0685 38.206 15.6337 37.6408 15.6337 36.9436C15.6337 36.2465 15.0685 35.6813 14.3713 35.6813H9.61655V33.1565H14.3714C15.0687 33.1565 15.6338 32.5913 15.6338 31.8941C15.6338 31.197 15.0687 30.6318 14.3714 30.6318H9.61655V28.107H14.3714C15.0687 28.107 15.6338 27.5417 15.6338 26.8446C15.6338 26.1475 15.0687 25.5823 14.3714 25.5823H9.61655V19.7754H24.0063C24.7035 19.7754 25.2687 19.2101 25.2687 18.513C25.2687 17.8159 24.7035 17.2506 24.0063 17.2506H9.61655V13.4635H34.3589V36.2206Z" fill="#755DAB"/>
<path d="M23.9686 26.518C23.8078 26.7186 20.0303 31.4743 20.0303 35.3248C20.0303 39.5635 22.6824 41.0675 24.9535 41.0675C27.2246 41.0675 29.8768 39.5635 29.8768 35.3248C29.8768 31.4743 26.0993 26.7186 25.9384 26.518C25.4413 25.898 24.466 25.898 23.9686 26.518ZM27.352 35.3247C27.352 38.1246 25.8493 38.5426 24.9535 38.5426C24.0578 38.5426 22.555 38.1246 22.555 35.3247C22.555 33.5143 23.8795 31.089 24.9535 29.4665C26.0276 31.0893 27.352 33.5146 27.352 35.3247Z" fill="#755DAB"/>
<path d="M46.604 63.652C47.2944 63.652 47.854 63.0923 47.854 62.402C47.854 61.7116 47.2944 61.152 46.604 61.152C45.9136 61.152 45.354 61.7116 45.354 62.402C45.354 63.0923 45.9136 63.652 46.604 63.652Z" fill="#755DAB"/>
<path d="M29.6885 19.7427C30.3788 19.7427 30.9385 19.183 30.9385 18.4927C30.9385 17.8023 30.3788 17.2427 29.6885 17.2427C28.9981 17.2427 28.4385 17.8023 28.4385 18.4927C28.4385 19.183 28.9981 19.7427 29.6885 19.7427Z" fill="#755DAB"/>
</g>
<defs>
<clipPath id="clip0_7_5035">
<rect width="64" height="64" fill="white"/>
</clipPath>
</defs>
</svg>
