<svg width="64" height="64" viewBox="0 0 64 64" fill="none" xmlns="http://www.w3.org/2000/svg">
<g clip-path="url(#clip0_7_5298)">
<path d="M57.3805 38.4043H34.8433V16.7216C34.8433 11.4715 39.0994 7.21533 44.3495 7.21533H47.8743C53.1244 7.21533 57.3805 11.4715 57.3805 16.7216V38.4043Z" fill="#755DAB"/>
<path d="M47.8768 7.21533H45.4136C50.6637 7.21533 54.9198 11.4715 54.9198 16.7216V38.4042H57.3831V16.7216C57.3831 11.4715 53.1269 7.21533 47.8768 7.21533Z" fill="#755DAB"/>
<path d="M27.5934 15.4423H8.27881L8.29356 7.30457C8.29356 5.40882 9.83031 3.87207 11.7261 3.87207H24.1756C26.0713 3.87207 27.6081 5.40882 27.6081 7.30457L27.5934 15.4423Z" fill="#755DAB"/>
<path d="M24.1759 3.87207H21.7126C23.6084 3.87207 25.1451 5.40882 25.1451 7.30457L25.1304 15.4423H27.5936L27.6084 7.30457C27.6084 5.40895 26.0716 3.87207 24.1759 3.87207Z" fill="#755DAB"/>
<path d="M29.1579 60.1267H6.62061V33.2071L14.8802 31.4604H21.0224L29.1579 33.2071V60.1267Z" fill="#F7F9FA"/>
<path d="M21.0234 31.4604H18.5603L26.6957 33.2071V60.1267H29.1589V33.2071L21.0234 31.4604Z" fill="white"/>
<path d="M11.0022 12.2483L9.31909 15.4423V21.8244C9.31909 24.2457 11.2818 26.2084 13.7032 26.2084H22.2025C24.6237 26.2084 26.5865 24.2457 26.5865 21.8244V15.4423L24.9227 12.2851C24.4345 11.3586 23.367 10.8971 22.3575 11.1762L18.8043 12.1586C18.4325 12.2614 18.0402 12.2659 17.666 12.1716L13.518 11.1263C12.5211 10.8752 11.4816 11.3387 11.0022 12.2483Z" fill="white"/>
<path d="M24.92 12.2854C24.4317 11.3589 23.3642 10.8974 22.3547 11.1765L21.5865 11.3889C21.9465 11.5935 22.2526 11.8982 22.4567 12.2854L24.1205 15.4427V21.8248C24.1205 24.2461 22.1576 26.2089 19.7363 26.2089H22.1996C24.6208 26.2089 26.5837 24.2462 26.5837 21.8248V15.4427L24.92 12.2854Z" fill="white"/>
<path d="M9.31785 20.6566H8.16035C6.72035 20.6566 5.55298 19.4893 5.55298 18.0493C5.55298 16.6093 6.72035 15.4419 8.16035 15.4419H9.31785V20.6566Z" fill="white"/>
<path d="M8.15865 15.4419C7.78265 15.4419 7.42615 15.523 7.10327 15.6663V20.4324C7.42615 20.5756 7.78265 20.6568 8.15865 20.6568H9.31614V15.4419H8.15865Z" fill="white"/>
<path d="M27.7422 20.6578H26.5847V15.4429H27.7422C29.1822 15.4429 30.3496 16.6102 30.3496 18.0502C30.3496 19.4904 29.1822 20.6578 27.7422 20.6578Z" fill="white"/>
<path d="M27.7422 15.4419H26.5847V15.6663C27.4986 16.0716 28.1368 16.9853 28.1368 18.0493C28.1368 19.1134 27.4986 20.027 26.5847 20.4323V20.6566H27.7422C29.1822 20.6566 30.3496 19.4893 30.3496 18.0493C30.3496 16.6093 29.1822 15.4419 27.7422 15.4419Z" fill="white"/>
<path d="M14.8792 26.208H21.0213V31.4598L17.9503 33.5959L14.8792 31.4598V26.208Z" fill="white"/>
<path d="M18.5592 26.208V31.4598L16.7197 32.7392L17.9514 33.5959L21.0224 31.4598V26.208H18.5592Z" fill="white"/>
<path d="M6.6206 33.207C3.2086 34.4515 0.938477 37.6959 0.938477 41.3278V45.4283H6.6206V33.207Z" fill="#2CBDB9"/>
<path d="M6.62145 33.207C5.7117 33.5388 4.8842 34.0139 4.1582 34.5995V45.4282H6.62145V33.207Z" fill="#2CBDB9"/>
<path d="M0.938477 45.4277H6.6206V60.1262H0.938477V45.4277Z" fill="white"/>
<path d="M4.1582 45.4277H6.62145V60.1262H4.1582V45.4277Z" fill="white"/>
<path d="M29.1587 33.207C32.5707 34.4515 34.8408 37.6959 34.8408 41.3278V45.4283H29.1587V33.207Z" fill="#2CBDB9"/>
<path d="M39.3809 24.0541H36.383C34.943 24.0541 33.7756 22.8867 33.7756 21.4467C33.7756 20.0067 34.943 18.8394 36.383 18.8394H37.5405L39.3809 24.0541Z" fill="white"/>
<path d="M37.5406 18.8394H36.3831C36.0075 18.8394 35.6512 18.9204 35.3286 19.0634L35.3447 23.838C35.6631 23.9764 36.0139 24.0542 36.3831 24.0542H39.381L37.5406 18.8394Z" fill="white"/>
<path d="M55.9672 24.0542H52.8711L54.8098 18.8394H55.9673C57.4073 18.8394 58.5747 20.0067 58.5747 21.4467C58.5746 22.8869 57.4072 24.0542 55.9672 24.0542Z" fill="white"/>
<path d="M55.9676 18.8394H54.8101L54.7383 19.0327C55.6905 19.4211 56.3623 20.3549 56.3623 21.4467C56.3623 22.8867 55.1949 24.0541 53.7549 24.0541H55.9676C57.4076 24.0541 58.575 22.8867 58.575 21.4467C58.575 20.0067 57.4076 18.8394 55.9676 18.8394Z" fill="white"/>
<path d="M34.8433 36.6035C31.4313 37.848 29.1611 41.0924 29.1611 44.7243V48.8248H34.8433V36.6035Z" fill="#2CBDB9"/>
<path d="M34.8441 36.6035C33.9344 36.9354 33.1069 37.4105 32.3809 37.996V48.8246H34.8441V36.6035Z" fill="#2CBDB9"/>
<path d="M29.1636 48.8252H34.8457V60.1264H29.1636V48.8252Z" fill="white"/>
<path d="M32.3809 48.8252H34.8441V60.1264H32.3809V48.8252Z" fill="white"/>
<path d="M57.3813 36.6035C60.7933 37.848 63.0635 41.0924 63.0635 44.7243V48.8248H57.3813V36.6035Z" fill="#2CBDB9"/>
<path d="M57.3813 36.6035V37.996C59.3782 39.6068 60.6002 42.0608 60.6002 44.7243V48.8248H63.0635V44.7243C63.0635 41.0925 60.7932 37.848 57.3813 36.6035Z" fill="#2CBDB9"/>
<path d="M57.3813 48.8252H63.0635V60.1264H57.3813V48.8252Z" fill="white"/>
<path d="M60.6011 48.8252H63.0643V60.1264H60.6011V48.8252Z" fill="white"/>
<path d="M50.7575 35.1815L53.8237 35.8402L57.3825 36.604V60.1265H34.845V36.604L38.41 35.8502L41.59 35.1777L50.7575 35.1815Z" fill="#2CBDB9"/>
<path d="M53.824 35.8402L50.7577 35.1815L41.5902 35.1777L41.5854 35.1787L48.2944 35.1815L51.3607 35.8402L54.9194 36.604V60.1265H57.3827V36.604L53.824 35.8402Z" fill="#2CBDB9"/>
<path d="M53.8207 35.8407C52.1707 38.3444 49.3332 39.997 46.1107 39.997C42.892 39.997 40.0582 38.3494 38.407 35.8507L41.587 35.1782C42.4695 34.9907 43.102 34.2119 43.102 33.3082V27.3413H49.2445V33.3132C49.2445 34.2144 49.8732 34.9932 50.7545 35.1819L53.8207 35.8407Z" fill="white"/>
<path d="M50.7566 35.1819C49.8754 34.9932 49.2466 34.2144 49.2466 33.3132V27.3413H46.7834V33.3132C46.7834 34.2144 47.4121 34.9932 48.2934 35.1819L51.3596 35.8407C49.9234 38.0199 47.5874 39.5538 44.8811 39.9148C45.2841 39.9686 45.6951 39.997 46.1129 39.997C49.3354 39.997 52.1729 38.3444 53.8229 35.8407L50.7566 35.1819Z" fill="white"/>
<path d="M17.9509 33.5966L15.4767 36.301C15.028 36.7913 14.2327 36.7066 13.8974 36.1327L11.5762 32.1591L14.8799 31.4604L17.9509 33.5966Z" fill="#2CBDB9"/>
<path d="M17.9526 33.5966L20.4269 36.301C20.8755 36.7913 21.6709 36.7066 22.0061 36.1327L24.3274 32.1591L21.0236 31.4604L17.9526 33.5966Z" fill="#2CBDB9"/>
<path d="M54.8083 18.8394V20.9719C54.8083 25.7402 50.9429 29.6057 46.1745 29.6057C41.4063 29.6057 37.5408 25.7403 37.5408 20.9719V18.8394C37.5408 18.8394 47.154 17.5869 49.8454 12.6851C49.8455 12.6851 51.1548 17.6029 54.8083 18.8394Z" fill="white"/>
<path d="M49.8449 12.6851C49.4313 13.4384 48.8538 14.1052 48.1733 14.6948C48.9211 16.2046 50.246 18.1292 52.3445 18.8394V20.9719C52.3445 25.3219 49.127 28.9188 44.9424 29.5167C45.3448 29.5742 45.7556 29.6056 46.174 29.6056C50.9423 29.6056 54.8076 25.7401 54.8076 20.9718V18.8393C51.1541 17.6029 49.8449 12.6851 49.8449 12.6851Z" fill="white"/>
<path d="M6.62061 52.5244C6.10286 52.5244 5.68311 52.9442 5.68311 53.4619V60.1268C5.68311 60.6445 6.10286 61.0643 6.62061 61.0643C7.13836 61.0643 7.55811 60.6445 7.55811 60.1268V53.4619C7.55811 52.9442 7.13836 52.5244 6.62061 52.5244Z" fill="#755DAB"/>
<path d="M58.3177 35.9741V24.0982C58.9686 23.5328 59.518 22.4955 59.5102 21.447C59.5102 20.3944 59.0486 19.448 58.3177 18.7982V16.7219C58.3418 10.9402 53.5301 6.26844 47.874 6.27819H44.349C38.5904 6.27819 33.9053 10.9632 33.9053 16.7219V18.9124C33.8956 18.9218 33.8855 18.9308 33.876 18.9403C33.2065 19.6098 32.8378 20.5 32.8378 21.4469C32.8378 23.4017 34.428 24.9919 36.3826 24.9919H37.491C38.4461 27.0468 40.1089 28.7074 42.1652 29.66V33.308C42.1652 33.7651 41.8404 34.1659 41.3937 34.2609L35.7803 35.4479V28.1439C35.7803 27.6261 35.3606 27.2064 34.8428 27.2064C34.3249 27.2064 33.9053 27.6261 33.9053 28.1439V35.6421C32.8413 34.1846 31.1465 32.883 29.3539 32.2903L21.9592 30.7003V27.146C25.0125 27.2899 27.6549 24.7005 27.5217 21.5947C29.4783 21.7202 31.2969 20.0809 31.287 18.0498C31.287 16.3668 30.1076 14.9548 28.5321 14.5947L28.5454 7.30456C28.5454 4.89494 26.585 2.93457 24.1754 2.93457H11.7258C9.31619 2.93457 7.35582 4.89494 7.35582 7.30281L7.34257 14.6008C5.78032 14.9707 4.61407 16.3762 4.61407 18.0498C4.6027 20.0305 6.34444 21.7028 8.37931 21.5947C8.24119 24.6499 10.8358 27.2834 13.9419 27.146V30.7003L6.42582 32.2896C2.65732 33.5649 -0.0172942 37.2944 0.000330734 41.3277V60.1267C0.000330734 60.6445 0.42008 61.0642 0.937829 61.0642C1.45558 61.0642 1.87533 60.6445 1.87533 60.1267V46.3657H5.68244V49.0589C5.68244 49.5766 6.10219 49.9964 6.61994 49.9964C7.13769 49.9964 7.55744 49.5766 7.55744 49.0589V33.967L11.1077 33.2163L13.0877 36.6055C13.6466 37.5796 15.2188 37.963 16.168 36.9336L17.0132 36.0099V41.5116C17.0132 42.0294 17.4329 42.4491 17.9507 42.4491C18.4684 42.4491 18.8882 42.0294 18.8882 41.5116V36.01L19.7333 36.9336C20.3715 37.714 22.1708 37.8051 22.8138 36.6055L24.787 33.2276L28.2198 33.9646V60.1267C28.2198 60.6445 28.6395 61.0642 29.1573 61.0642C29.1579 61.0642 29.1586 61.0641 29.1593 61.0641C29.1599 61.0641 29.1606 61.0642 29.1613 61.0642C29.679 61.0642 30.0988 60.6445 30.0988 60.1267V49.7629H33.906V60.1267C33.906 60.6445 34.3256 61.0642 34.8435 61.0642C35.3614 61.0642 35.781 60.6445 35.781 60.1267V43.7341C35.781 43.2164 35.3614 42.7966 34.8435 42.7966C34.3256 42.7966 33.906 43.2164 33.906 43.7341V47.8879H30.0988V44.7249C30.2723 39.6995 33.7796 37.401 37.9989 36.8954C39.4996 38.883 41.6547 40.2317 44.0576 40.7251L43.8099 40.9729C43.4437 41.339 43.4437 41.9326 43.81 42.2986C44.176 42.6649 44.7696 42.6647 45.1357 42.2986L46.1115 41.3227L47.0875 42.2986C47.2705 42.4817 47.5105 42.5732 47.7504 42.5732C47.9902 42.5732 48.2302 42.4817 48.4134 42.2986C48.7795 41.9325 48.7795 41.3389 48.4132 40.9729L48.1656 40.7252C50.572 40.2312 52.7292 38.8795 54.2305 36.8871L57.1143 37.5064C60.114 38.6266 62.1255 41.5195 62.1255 44.7251V47.8881H58.3183V43.7344C58.3183 43.2166 57.8987 42.7969 57.3808 42.7969C56.863 42.7969 56.4433 43.2166 56.4433 43.7344V60.127C56.4433 60.6447 56.863 61.0645 57.3808 61.0645C57.8987 61.0645 58.3183 60.6447 58.3183 60.127V49.7631H62.1255V60.127C62.1255 60.6447 62.5451 61.0645 63.063 61.0645C63.5808 61.0645 64.0005 60.6447 64.0005 60.127V44.7249C64.0002 40.9377 61.742 37.5019 58.3177 35.9741ZM29.4121 18.0499C29.4166 18.9675 28.5428 19.8163 27.5223 19.7198V16.3799C28.4024 16.2784 29.4111 17.0142 29.4121 18.0499ZM11.7258 4.80969H24.1753C25.551 4.80969 26.6703 5.92894 26.6703 7.30294L26.6589 13.5733L25.7498 11.8482C25.0614 10.5419 23.5287 9.87918 22.1054 10.2727L18.5523 11.2551C18.3373 11.3146 18.1093 11.3172 17.8928 11.2627L13.7448 10.2174C12.3239 9.85931 10.8539 10.5148 10.1707 11.8113L9.21944 13.6165L9.23094 7.30469C9.23081 5.92894 10.3502 4.80969 11.7258 4.80969ZM8.37894 19.7199C7.49294 19.8287 6.48532 19.065 6.48907 18.05C6.48619 17.1588 7.34369 16.272 8.37894 16.3802V19.7199ZM10.2544 21.8245V15.6744L11.8294 12.6855C12.1081 12.1569 12.7076 11.8897 13.2869 12.0356L17.435 13.0809C17.9658 13.2145 18.5249 13.208 19.0522 13.0624L22.6053 12.0801C23.1854 11.9196 23.8107 12.1898 24.0913 12.7224L25.6469 15.6744V21.8247C25.6469 23.7252 24.1008 25.2713 22.2004 25.2713H13.7012C11.8006 25.2712 10.2544 23.725 10.2544 21.8245ZM20.0843 27.1461V30.9705L17.9507 32.4545L15.817 30.9705V27.1461H20.0843ZM1.87533 44.4907V41.3277C1.87533 38.5728 3.36082 36.0481 5.68244 34.6816V44.4907H1.87533ZM14.7847 35.668C14.7784 35.6748 14.7683 35.6864 14.7436 35.6836C14.7191 35.681 14.7113 35.6678 14.7067 35.6598L13.0406 32.8076L14.6771 32.4616L16.5357 33.7544L14.7847 35.668ZM21.1947 35.6598C21.1899 35.6676 21.1822 35.681 21.1577 35.6836C21.1337 35.6866 21.1228 35.675 21.1165 35.6681L19.3657 33.7544L21.2229 32.4626L22.8574 32.8135L21.1947 35.6598ZM56.4427 35.4443L50.9515 34.2653C50.5061 34.1698 50.1827 33.7694 50.1827 33.3131V29.6601C52.2391 28.7075 53.9018 27.0469 54.8571 24.9919H55.9652C56.1263 24.9919 56.2857 24.9804 56.4427 24.9594V35.4443ZM55.9651 19.7769C56.886 19.7769 57.6351 20.5262 57.6351 21.4469C57.6638 22.3877 56.6636 23.304 55.4997 23.1169C55.7295 22.2804 55.7687 20.782 55.745 19.7769H55.9651ZM56.4427 16.7219V17.935C56.2583 17.8914 55.286 17.9027 54.9767 17.9019C52.2171 16.8667 50.9865 13.219 50.7825 12.5511V8.66231C54.0798 9.85593 56.4427 13.0178 56.4427 16.7219ZM35.7803 16.7219C35.7803 11.9972 39.6241 8.15318 44.349 8.15318H47.874C48.224 8.15318 48.5684 8.17668 48.9076 8.21768V12.4339C46.4276 16.5174 38.2385 17.7917 37.477 17.9018C36.7469 17.9195 36.5495 17.8547 35.7804 17.9535V16.7219H35.7803ZM36.3826 23.1169C35.4619 23.1169 34.7128 22.3678 34.7128 21.4469C34.7081 20.6259 35.4871 19.6655 36.6029 19.7769V20.9722C36.6029 21.7097 36.6895 22.4269 36.8481 23.1169H36.3826ZM38.4779 20.9722V19.6404C40.6459 19.2582 46.5214 17.9527 49.5727 14.6417C50.2765 16.2067 51.62 18.4257 53.8702 19.4724V20.9722C53.8702 25.2158 50.4177 28.6683 46.1741 28.6683C41.9305 28.6683 38.4779 25.2158 38.4779 20.9722ZM32.4286 36.7986C31.5233 37.415 30.736 38.179 30.0951 39.0501V34.6808C31.009 35.2173 31.8039 35.9385 32.4286 36.7986ZM52.1577 36.4421C50.6035 38.1009 48.4284 39.0594 46.1114 39.0594C43.8011 39.0594 41.631 38.106 40.0775 36.4558L41.7825 36.0953C43.0907 35.8173 44.0402 34.6451 44.0402 33.3081V30.3005C44.7269 30.4575 45.4405 30.5433 46.174 30.5433C46.9075 30.5433 47.621 30.4575 48.3076 30.3005V33.3131C48.3076 34.6478 49.2544 35.8193 50.5582 36.0985L52.1577 36.4421Z" fill="#755DAB"/>
</g>
<defs>
<clipPath id="clip0_7_5298">
<rect width="64" height="64" fill="white"/>
</clipPath>
</defs>
</svg>
