<svg width="64" height="64" viewBox="0 0 64 64" fill="none" xmlns="http://www.w3.org/2000/svg">
<g clip-path="url(#clip0_25_6405)">
<path d="M16.6052 21.182C16.6052 21.182 12.9572 16.2674 13.0602 9.25755C13.0602 9.25755 15.1227 9.74842 16.9431 9.25755C20.5111 8.29542 24.0217 1.2168 30.207 1.01055C36.3922 0.804299 37.5916 3.6908 37.5916 3.6908C37.5916 3.6908 39.867 2.3383 43.2646 2.79742C48.3502 3.48467 52.8172 11.2324 48.2771 21.8758" fill="#755DAB"/>
<path d="M42.6441 16.9657C40.4362 14.9288 37.9784 11.4052 36.9911 9.93357C36.7644 9.59569 36.2835 9.56419 36.0086 9.86432C31.0281 15.3041 24.5766 17.1168 21.6897 17.6807C20.8102 17.8524 20.1772 18.6241 20.1772 19.5202V25.3434C20.1772 31.8739 25.4712 37.1679 32.0017 37.1679C38.5322 37.1679 43.8262 31.8739 43.8262 25.3434V19.6984C43.8262 18.6634 43.4049 17.6674 42.6441 16.9657Z" fill="white"/>
<path d="M32.0017 34.9183C25.4712 34.9183 20.1772 29.6242 20.1772 23.0938V25.3438C20.1772 31.8743 25.4712 37.1683 32.0017 37.1683C38.5322 37.1683 43.8262 31.8743 43.8262 25.3438V23.0938C43.8262 29.6242 38.5322 34.9183 32.0017 34.9183Z" fill="white"/>
<path d="M20.1773 25.3437V21.1677C19.6517 20.8787 19.0479 20.7139 18.4057 20.7139C16.3719 20.7139 14.7231 22.3626 14.7231 24.3964C14.7231 26.4301 16.3719 28.0789 18.4057 28.0789C19.1304 28.0789 19.8057 27.8686 20.3754 27.5071C20.2458 26.8057 20.1773 26.0827 20.1773 25.3437Z" fill="white"/>
<path d="M43.8234 25.3437V21.1677C44.349 20.8787 44.9527 20.7139 45.595 20.7139C47.6287 20.7139 49.2775 22.3626 49.2775 24.3964C49.2775 26.4301 47.6287 28.0789 45.595 28.0789C44.8702 28.0789 44.195 27.8686 43.6252 27.5071C43.755 26.8057 43.8234 26.0827 43.8234 25.3437Z" fill="white"/>
<path d="M18.4057 25.829C16.7643 25.829 15.3744 24.7549 14.8988 23.2715C14.785 23.6262 14.7231 24.004 14.7231 24.3965C14.7231 26.4302 16.3719 28.079 18.4057 28.079C19.1304 28.079 19.8057 27.8687 20.3754 27.5072C20.2474 26.8151 20.1797 26.102 20.1779 25.3732C19.652 25.663 19.0485 25.829 18.4057 25.829Z" fill="white"/>
<path d="M45.595 25.829C44.9521 25.829 44.3486 25.663 43.8227 25.3732C43.821 26.102 43.7532 26.8151 43.6252 27.5072C44.195 27.8687 44.8702 28.079 45.595 28.079C47.6287 28.079 49.2775 26.4302 49.2775 24.3965C49.2775 24.004 49.2155 23.6262 49.1019 23.2715C48.6262 24.755 47.2364 25.829 45.595 25.829Z" fill="white"/>
<path d="M26.4626 35.793C28.1149 36.6705 29.9995 37.1683 32.0006 37.1683C34.0017 37.1683 35.8865 36.6705 37.5386 35.793C45.5179 37.4633 51.5107 44.5386 51.5107 53.0142V63.0001H12.4905V53.0142C12.4905 44.5386 18.4834 37.4635 26.4626 35.793Z" fill="#2CBDB9"/>
<path d="M12.4905 60.75H51.5109V63H12.4905V60.75Z" fill="white"/>
<path d="M31.9998 37.1683C34.0159 37.1683 35.9139 36.6632 37.5749 35.7734C37.5863 35.9188 37.5938 36.0652 37.5938 36.2136C37.5938 39.3029 35.0893 41.8074 31.9999 41.8074C28.9104 41.8074 26.406 39.3029 26.406 36.2136C26.406 36.0653 26.4135 35.9188 26.4249 35.7734C28.0858 36.6632 29.9836 37.1683 31.9998 37.1683Z" fill="white"/>
<path d="M33.8395 54.269L41.2349 63.0002H51.4771L40.4782 50.1134C40.4782 50.1134 43.0439 46.6477 41.4442 45.048C39.8446 43.4482 38.0961 45.8846 38.0961 45.8846C38.0961 45.8846 36.2814 41.8076 31.9975 41.8076C27.4559 41.8076 24.1419 50.5015 33.8395 54.269Z" fill="white"/>
<path d="M21.4543 63H12.4895V57.2959H21.4543V63Z" fill="white"/>
<path d="M21.4543 63H12.4895V60.75H21.4543V63Z" fill="white"/>
<path d="M39.3325 60.75L41.2383 63H51.4805L49.5601 60.75H39.3325Z" fill="white"/>
<path d="M51.5333 47.1676C51.3689 46.6753 50.8364 46.409 50.3436 46.5738C49.8511 46.7381 49.5853 47.2709 49.7498 47.7634C50.3176 49.4639 50.6056 51.244 50.6056 53.0543V60.5455L41.6703 50.0765C41.9078 49.6911 42.2049 49.1601 42.4488 48.571C43.3784 46.3251 42.7873 45.0675 42.1278 44.4079C41.3786 43.6589 40.5976 43.5539 40.075 43.5955C39.3745 43.6526 38.762 44.0013 38.2948 44.3753C37.7353 43.5666 36.8121 42.5049 35.4698 41.7659C37.1048 40.7384 38.2546 39.0091 38.4946 37.0033C42.5663 38.1644 46.087 40.8626 48.2731 44.5399C48.5401 44.9903 49.1229 45.1305 49.5618 44.8675C50.0081 44.6023 50.1548 44.0253 49.8894 43.5789C47.6029 39.7328 44.0025 36.8494 39.8138 35.4445C41.9471 33.7922 43.5448 31.4808 44.3006 28.8188C44.7264 28.9454 45.1703 29.0115 45.6204 29.0115C48.1733 29.0115 50.2501 26.9347 50.2501 24.3818C50.2501 23.3828 49.931 22.4575 49.3909 21.7003C51.7095 15.9444 51.7201 10.3448 49.4024 6.26517C47.9765 3.75517 45.7933 2.13092 43.4125 1.80917C40.9105 1.47142 38.956 2.03255 37.925 2.44755C37.6575 2.13642 37.2745 1.77455 36.7386 1.42717C35.1476 0.3953 32.939 -0.0803251 30.1724 0.0110498C27.1385 0.112175 24.8169 1.70905 23.3346 2.90142C22.93 3.2268 22.8658 3.81855 23.1913 4.2233C23.5168 4.6278 24.1086 4.69192 24.5131 4.36655C26.5354 2.73992 28.3536 1.95317 30.235 1.89042C35.417 1.7178 36.654 3.84942 36.7384 4.00792C36.9264 4.53767 37.6091 4.75017 38.0789 4.44655C38.0993 4.4348 40.1538 3.26642 43.1605 3.67255C44.9546 3.91492 46.6338 5.19842 47.7673 7.1938C48.7089 8.85129 50.5174 13.3424 47.8974 20.353C47.2244 19.9712 46.4476 19.7518 45.6201 19.7518C45.3395 19.7518 45.06 19.7784 44.7854 19.8288V19.6747C44.7854 18.3672 44.2433 17.1173 43.2983 16.2454C41.1515 14.265 38.7224 10.7754 37.7775 9.36692C37.2491 8.53204 35.9653 8.44167 35.319 9.18642C30.4466 14.5079 24.0218 16.2347 21.4856 16.73C20.1673 16.9877 19.2104 18.1509 19.2104 19.4959V19.8284C18.9358 19.778 18.6563 19.7514 18.3756 19.7514C17.8703 19.7514 17.384 19.8339 16.9284 19.9843C16.0821 18.6019 14.1818 15.0057 13.9795 10.313C14.8306 10.3997 16.0255 10.4264 17.1591 10.1207C18.8015 9.67792 20.3203 8.23004 21.789 6.8298C22.1649 6.47142 22.179 5.8763 21.8208 5.50055C21.4625 5.1248 20.8674 5.11067 20.4915 5.46867C19.193 6.70655 17.8503 7.98667 16.6696 8.30504C15.1076 8.72642 13.2586 8.30217 13.2416 8.29817C12.677 8.14867 12.0779 8.61529 12.0839 9.19892C12.0003 14.885 14.2443 19.2163 15.296 20.9279C14.3456 21.7764 13.7459 23.0097 13.7459 24.3809C13.7459 26.9338 15.8229 29.0107 18.3758 29.0107C18.8258 29.0107 19.2696 28.9445 19.6954 28.8179C20.4514 31.4799 22.049 33.7914 24.1824 35.4438C20.8974 36.5469 17.9474 38.5686 15.7254 41.2728C13.0071 44.5809 11.51 48.7646 11.51 53.0538V63.059C11.51 63.5784 11.931 63.9993 12.4503 63.9993H26.6538C27.173 63.9993 27.594 63.5784 27.594 63.059C27.594 62.5396 27.173 62.1188 26.6538 62.1188H22.3726V57.3439V51.9734C22.3726 51.454 21.9516 51.0331 21.4324 51.0331C20.9131 51.0331 20.4921 51.454 20.4921 51.9734V56.4041H13.3904V53.0541C13.3904 49.1994 14.7355 45.4395 17.1781 42.467C19.3375 39.8391 22.2606 37.9282 25.5014 37.0028C25.761 39.1735 27.0861 41.0206 28.9384 42.0045C27.8431 42.8859 27.029 44.2273 26.7324 45.8103C26.4064 47.5493 26.7809 49.3671 27.7866 50.9288C28.915 52.6808 30.7619 54.0829 33.2784 55.0988L39.2246 62.1193H30.4109C29.8916 62.1193 29.4706 62.5401 29.4706 63.0595C29.4706 63.5789 29.8916 63.9998 30.4109 63.9998H51.5459C52.0653 63.9998 52.4861 63.5789 52.4861 63.0595V53.0543C52.486 51.041 52.1655 49.0605 51.5333 47.1676ZM44.7855 25.3305V21.762C45.0541 21.6767 45.3361 21.632 45.6203 21.632C47.1363 21.632 48.3696 22.8654 48.3696 24.3814C48.3696 25.8974 47.1363 27.1308 45.6203 27.1308C45.2974 27.1308 44.9798 27.074 44.6803 26.9649C44.749 26.4295 44.7855 25.8843 44.7855 25.3305ZM18.3756 27.1308C16.8596 27.1308 15.6263 25.8974 15.6263 24.3814C15.6263 22.8654 16.8596 21.632 18.3756 21.632C18.6598 21.632 18.9418 21.6767 19.2104 21.762V25.3305C19.2104 25.8843 19.2469 26.4294 19.3155 26.9648C19.0161 27.074 18.6986 27.1308 18.3756 27.1308ZM20.4921 58.2846V62.1193H13.3904V58.2846H20.4921ZM21.0909 25.3305V19.496C21.0909 19.0483 21.4086 18.6613 21.8463 18.5758C24.5193 18.0537 31.2244 16.2524 36.4384 10.7438C37.5426 12.3677 39.886 15.656 42.0233 17.6277C42.5836 18.1445 42.905 18.8907 42.905 19.6747V25.3305C42.905 31.3447 38.0121 36.2375 31.9979 36.2375C25.9838 36.2377 21.0909 31.3448 21.0909 25.3305ZM27.4571 37.2843C28.869 37.8224 30.3995 38.118 31.998 38.118C33.5965 38.118 35.127 37.8223 36.5389 37.2842C36.0564 39.3455 34.2044 40.8858 31.998 40.8858C29.7918 40.8858 27.9396 39.3455 27.4571 37.2843ZM41.6889 62.1193L34.561 53.7036C34.4598 53.584 34.3301 53.4918 34.1841 53.4349C28.1578 51.0936 28.3715 47.2723 28.5806 46.1568C28.9429 44.2239 30.4121 42.7661 31.998 42.7661C35.6079 42.7661 37.1851 46.152 37.2494 46.2931C37.3858 46.5996 37.6764 46.8088 38.0101 46.8441C38.3454 46.88 38.6724 46.7329 38.87 46.4619C39.0939 46.1551 39.721 45.5088 40.2305 45.4693C40.3595 45.4589 40.5416 45.4808 40.798 45.7374C41.5638 46.503 40.3913 48.703 39.7394 49.5883C39.479 49.94 39.4958 50.425 39.7799 50.758L49.4765 62.1191H41.6889V62.1193Z" fill="#755DAB"/>
<path d="M26.9176 20.8408C25.9168 21.8238 24.7297 22.1719 24.703 22.1796C24.2042 22.3179 23.9107 22.8335 24.0471 23.3333C24.1612 23.7514 24.5401 24.0261 24.9536 24.0261C25.0356 24.0261 25.1188 24.0154 25.2017 23.9928C25.2691 23.9744 26.8659 23.5274 28.2353 22.1824C28.6058 21.8185 28.6111 21.2233 28.2472 20.8528C27.8834 20.4823 27.2881 20.4768 26.9176 20.8408Z" fill="#755DAB"/>
<path d="M38.7933 23.9937C38.876 24.0162 38.9591 24.027 39.0409 24.027C39.4525 24.027 39.8289 23.7538 39.9446 23.3377C40.0831 22.8389 39.7904 22.3214 39.2924 22.1807C39.2804 22.1773 38.0845 21.831 37.0774 20.8417C36.7069 20.4778 36.1119 20.4833 35.7478 20.8535C35.3839 21.224 35.3891 21.8193 35.7596 22.1832C37.129 23.5283 38.726 23.9753 38.7933 23.9937Z" fill="#755DAB"/>
<path d="M14.7266 36.1073C15.3927 36.1073 16.0284 35.7618 16.6441 35.4273C17.1172 35.17 17.6536 34.8785 18.0003 34.8785C18.7231 34.8785 19.1641 35.2497 19.1824 35.2654C19.3521 35.4319 19.5842 35.5348 19.8407 35.5348C20.3599 35.5348 20.7809 35.1138 20.7809 34.5945C20.7809 34.3012 20.6464 34.0394 20.4359 33.8669C20.2983 33.7424 19.4167 32.998 18.0003 32.998C17.1756 32.998 16.4161 33.4108 15.7461 33.775C15.4309 33.9463 14.9086 34.2359 14.7257 34.2268C14.2077 34.2053 13.7679 34.6062 13.7453 35.125C13.7226 35.6439 14.1248 36.0828 14.6436 36.1055C14.6714 36.1068 14.6989 36.1073 14.7266 36.1073Z" fill="#755DAB"/>
<path d="M23.8457 39.9611C23.5454 39.9571 22.4819 40.0068 21.4699 40.8404C20.8348 41.3635 20.511 42.1636 20.2508 42.8066C20.056 43.288 20.2883 43.8361 20.7697 44.0309C21.2388 44.2244 21.7993 43.9982 21.9939 43.512C22.1648 43.0897 22.3988 42.5115 22.6654 42.2917C23.2235 41.8321 23.8083 41.8389 23.8083 41.8389C24.342 41.8693 24.7948 41.4344 24.7932 40.9009C24.7932 40.4039 24.4073 39.998 23.9189 39.964C23.919 39.9641 23.8528 39.9604 23.8457 39.9611Z" fill="#755DAB"/>
<path d="M49.2688 36.1073C48.6027 36.1073 47.967 35.7618 47.3513 35.4273C46.8782 35.17 46.3418 34.8785 45.9951 34.8785C45.2723 34.8785 44.8313 35.2497 44.8131 35.2654C44.6435 35.4319 44.4112 35.5348 44.1548 35.5348C43.6356 35.5348 43.2146 35.1138 43.2146 34.5945C43.2146 34.3012 43.3491 34.0394 43.5596 33.8669C43.6972 33.7424 44.5788 32.998 45.9952 32.998C46.82 32.998 47.5795 33.4108 48.2495 33.775C48.5646 33.9463 49.087 34.2359 49.2698 34.2268C49.7878 34.2053 50.2276 34.6062 50.2502 35.125C50.273 35.6439 49.8707 36.0828 49.352 36.1055C49.3241 36.1068 49.2965 36.1073 49.2688 36.1073Z" fill="#755DAB"/>
<path d="M40.9282 39.9611C41.2285 39.9571 42.292 40.0068 43.304 40.8404C43.9391 41.3635 44.2628 42.1636 44.5231 42.8066C44.7178 43.288 44.4856 43.8361 44.0042 44.0309C43.5351 44.2244 42.9746 43.9982 42.78 43.512C42.6091 43.0897 42.3751 42.5115 42.1085 42.2917C41.5503 41.8321 40.9656 41.8389 40.9656 41.8389C40.4318 41.8693 39.9791 41.4344 39.9807 40.9009C39.9807 40.4039 40.3666 39.998 40.855 39.964C40.855 39.9641 40.9212 39.9604 40.9282 39.9611Z" fill="#755DAB"/>
</g>
<defs>
<clipPath id="clip0_25_6405">
<rect width="64" height="64" fill="white"/>
</clipPath>
</defs>
</svg>
