<svg width="64" height="64" viewBox="0 0 64 64" fill="none" xmlns="http://www.w3.org/2000/svg">
<g clip-path="url(#clip0_7_5352)">
<path fill-rule="evenodd" clip-rule="evenodd" d="M16.8213 2.81262C16.8213 1.78125 15.9777 0.9375 14.9463 0.9375H13.0713V4.6875H14.9463C15.9775 4.6875 16.8213 3.84387 16.8213 2.81262ZM29.9464 0.9375C28.915 0.9375 28.0714 1.78125 28.0714 2.81262C28.0714 3.84387 28.9152 4.68762 29.9464 4.68762H31.8214V2.81262V0.937625H29.9464V0.9375Z" fill="#2CBDB9"/>
<path fill-rule="evenodd" clip-rule="evenodd" d="M14.9447 28.2502C11.8546 28.2502 9.3197 25.7148 9.3197 22.6252V12.9183C9.3197 11.9558 8.61457 11.1114 7.65795 11.0059C6.52695 10.8812 5.56982 11.7633 5.56982 12.8692V22.6252C5.56982 27.7851 9.78482 32.0002 14.9448 32.0003V28.2502H14.9447ZM29.9446 28.2502V32.0002C35.1045 32.0002 39.3196 27.7851 39.3196 22.6252V12.9183C39.3196 11.9558 38.6144 11.1114 37.6578 11.0059C36.5268 10.8812 35.5697 11.7633 35.5697 12.8692V22.6252C35.5696 25.7148 33.0347 28.2502 29.9446 28.2502Z" fill="white"/>
<path fill-rule="evenodd" clip-rule="evenodd" d="M14.9449 28.2502C13.9459 28.2502 13.0052 27.985 12.1892 27.522C12.011 28.6577 12.1324 30.3751 12.1324 31.5671C13.021 31.8482 13.9659 32.0003 14.9449 32.0003V28.2502ZM29.9448 28.2502C30.9438 28.2502 31.8845 27.985 32.7005 27.522C32.8787 28.6577 32.7573 30.3751 32.7573 31.5671C31.8687 31.8482 30.9238 32.0003 29.9448 32.0003V28.2502Z" fill="white"/>
<path fill-rule="evenodd" clip-rule="evenodd" d="M14.9438 28.25V32C14.9438 33.0312 15.7876 33.875 16.8188 33.875C17.8501 33.875 18.6938 34.7188 18.6938 35.75C18.6938 36.7812 19.5376 37.625 20.5688 37.625H24.3188C25.3501 37.625 26.1938 36.7812 26.1938 35.75C26.1938 34.7188 27.0376 33.875 28.0688 33.875C29.1001 33.875 29.9438 33.0312 29.9438 32V28.25C29.9438 27.2188 29.1001 26.375 28.0688 26.375H16.8188C15.7875 26.3751 14.9438 27.2188 14.9438 28.25Z" fill="white"/>
<path fill-rule="evenodd" clip-rule="evenodd" d="M47.1848 16.619C47.1848 19.7984 49.8226 22.3616 53.0289 22.2399C55.9443 22.1291 58.3199 19.7536 58.4306 16.8383C58.5523 13.6318 55.9891 10.9941 52.8097 10.9941C49.7032 10.994 47.1848 13.5124 47.1848 16.619ZM53.0532 18.4788C51.8254 18.6326 50.7963 17.6034 50.9501 16.3756C51.0548 15.5394 51.7302 14.864 52.5664 14.7593C53.7942 14.6054 54.8233 15.6346 54.6696 16.8624C54.5648 17.6986 53.8894 18.374 53.0532 18.4788Z" fill="white"/>
<path d="M52.8098 18.4936C53.8453 18.4936 54.6848 17.6542 54.6848 16.6186C54.6848 15.5831 53.8453 14.7437 52.8098 14.7437C51.7743 14.7437 50.9348 15.5831 50.9348 16.6186C50.9348 17.6542 51.7743 18.4936 52.8098 18.4936Z" fill="#2CBDB9"/>
<path fill-rule="evenodd" clip-rule="evenodd" d="M14.9438 28.25V32C14.9438 33.0312 15.7876 33.875 16.8188 33.875C17.8501 33.875 18.6938 34.7188 18.6938 35.75C18.6938 36.7812 19.5376 37.625 20.5688 37.625H24.3188C25.3501 37.625 26.1938 36.7812 26.1938 35.75C26.1938 34.7188 27.0376 33.875 28.0688 33.875C29.1001 33.875 29.9438 33.0312 29.9438 32V28.25C29.9438 27.2188 29.1001 26.375 28.0688 26.375H16.8188C15.7875 26.3751 14.9438 27.2188 14.9438 28.25Z" fill="#2CBDB9"/>
<path fill-rule="evenodd" clip-rule="evenodd" d="M17.7588 26.375H16.8213C15.79 26.375 14.9463 27.2188 14.9463 28.25V32C14.9463 33.0312 15.79 33.875 16.8213 33.875C17.1622 33.875 17.4825 33.9672 17.7588 34.128V26.375Z" fill="#2CBDB9"/>
<path d="M25.2563 31.0625H23.3813V29.1875H25.2563V31.0625ZM21.5063 31.0625H19.6313V29.1875H21.5063V31.0625Z" fill="white"/>
<path d="M51.8723 41.3174H53.7473V43.1924H51.8723V41.3174Z" fill="#755DAB"/>
<path d="M51.8721 47.8797C51.8721 55.7346 45.4816 62.1251 37.6267 62.1251C29.7718 62.1251 23.3813 55.7346 23.3813 47.8797V38.5626H24.3188C25.8696 38.5626 27.1313 37.301 27.1313 35.7501C27.1313 35.2332 27.552 34.8126 28.0688 34.8126C29.3033 34.8126 30.3538 34.0129 30.7313 32.9045C36.0507 32.5005 40.2563 28.0463 40.2563 22.6251V12.8691C40.2563 11.647 39.4725 10.6049 38.3813 10.218V8.43762C38.3813 5.1375 35.9323 2.39963 32.7563 1.94325V0.000125H29.9438C28.3931 0.000125 27.1313 1.26187 27.1313 2.81275C27.1313 4.3635 28.393 5.62525 29.9438 5.62525H32.7563V3.8445C34.8933 4.28 36.5063 6.17387 36.5063 8.43762V10.2179C35.4152 10.6049 34.6313 11.6469 34.6313 12.869V22.6251C34.6313 24.9533 32.925 26.8896 30.6975 27.2513C30.2937 26.1923 29.268 25.4376 28.0688 25.4376H16.8188C15.6197 25.4376 14.5941 26.1923 14.1902 27.2513C11.9626 26.8896 10.2563 24.9533 10.2563 22.6251V12.8691C10.2563 11.647 9.47247 10.6049 8.38135 10.218V8.43762C8.38135 6.174 9.99435 4.28 12.1313 3.8445V5.62512H14.9438C16.4947 5.62512 17.7563 4.3635 17.7563 2.81262C17.7563 1.26175 16.4947 0 14.9438 0H12.1313V1.94313C8.95547 2.3995 6.50635 5.13737 6.50635 8.4375V10.2177C5.41522 10.6047 4.63135 11.6467 4.63135 12.8689V16.6189H6.50635V12.8689C6.50635 12.352 6.92685 11.9314 7.44385 11.9314C7.96085 11.9314 8.38135 12.3519 8.38135 12.8689V22.6251C8.38135 25.9254 10.8305 28.6632 14.0063 29.1196V31.0093C9.79372 30.5413 6.50635 26.9605 6.50635 22.6251V18.494H4.63135V22.6251C4.63135 28.0463 8.83697 32.5005 14.1563 32.9045C14.5338 34.0129 15.5843 34.8126 16.8188 34.8126C17.3357 34.8126 17.7563 35.2331 17.7563 35.7501C17.7563 37.301 19.018 38.5626 20.5688 38.5626H21.5063V47.8797C21.5063 56.7685 28.7379 64.0001 37.6267 64.0001C46.5155 64.0001 53.7471 56.7685 53.7471 47.8797V45.0672H51.8721V47.8797ZM30.8813 3.75012H29.9438C29.427 3.75012 29.0063 3.32962 29.0063 2.81262C29.0063 2.29562 29.4268 1.875 29.9438 1.875H30.8813V3.75012ZM14.0063 1.87513H14.9438C15.4607 1.87513 15.8813 2.29575 15.8813 2.81275C15.8813 3.32962 15.4607 3.75025 14.9438 3.75025H14.0063V1.87513ZM36.5063 22.6251V12.8691C36.5063 12.3523 36.9268 11.9316 37.4438 11.9316C37.9608 11.9316 38.3813 12.3521 38.3813 12.8691V22.6251C38.3813 26.9606 35.0941 30.5413 30.8813 31.0093V29.1196C34.0572 28.6632 36.5063 25.9254 36.5063 22.6251ZM19.6313 35.7501C19.6313 34.1994 18.3697 32.9376 16.8188 32.9376C16.302 32.9376 15.8813 32.5171 15.8813 32.0001V28.2501C15.8813 27.7333 16.302 27.3126 16.8188 27.3126H28.0688C28.5857 27.3126 29.0063 27.7333 29.0063 28.2501V32.0001C29.0063 32.5171 28.5857 32.9376 28.0688 32.9376C26.518 32.9376 25.2563 34.1992 25.2563 35.7501C25.2563 36.267 24.8358 36.6876 24.3188 36.6876H20.5688C20.0518 36.6876 19.6313 36.267 19.6313 35.7501Z" fill="#755DAB"/>
<path d="M59.3723 16.6191C59.3723 13.0005 56.4284 10.0566 52.8098 10.0566C49.1912 10.0566 46.2473 13.0005 46.2473 16.6191C46.2473 19.9194 48.6964 22.6571 51.8723 23.1136V39.4423H53.7473V23.1136C56.9232 22.6573 59.3723 19.9194 59.3723 16.6191ZM52.8098 21.3066C50.2251 21.3066 48.1223 19.2039 48.1223 16.6191C48.1223 14.0344 50.2251 11.9316 52.8098 11.9316C55.3946 11.9316 57.4973 14.0344 57.4973 16.6191C57.4973 19.2039 55.3946 21.3066 52.8098 21.3066Z" fill="#755DAB"/>
<path d="M52.8098 13.8066C51.2589 13.8066 49.9973 15.0684 49.9973 16.6191C49.9973 18.1699 51.2589 19.4316 52.8098 19.4316C54.3607 19.4316 55.6223 18.17 55.6223 16.6191C55.6223 15.0683 54.3607 13.8066 52.8098 13.8066ZM52.8098 17.5566C52.2928 17.5566 51.8723 17.1361 51.8723 16.6191C51.8723 16.1021 52.2928 15.6816 52.8098 15.6816C53.3268 15.6816 53.7473 16.1023 53.7473 16.6191C53.7473 17.136 53.3268 17.5566 52.8098 17.5566Z" fill="#755DAB"/>
</g>
<defs>
<clipPath id="clip0_7_5352">
<rect width="64" height="64" fill="white"/>
</clipPath>
</defs>
</svg>
