<svg width="47" height="58" viewBox="0 0 47 58" fill="none" xmlns="http://www.w3.org/2000/svg">
<path d="M15.0441 57.6564C9.04694 55.8155 3.40339 48.6129 1.02309 39.7618C-0.339635 34.6946 -0.341352 27.4367 1.01987 23.9849C2.28564 20.7741 4.80771 17.9866 7.76646 16.5283C9.82847 15.5118 10.6781 15.342 13.5648 15.3693C15.7092 15.3901 17.6436 15.6731 18.8498 16.1445C22.8245 17.6978 24.1204 17.6999 28.1513 16.1606C31.1451 15.0165 36.2883 15.1083 39.0507 16.3551C41.864 17.6252 44.7062 20.7491 45.9725 23.9629C47.3328 27.4154 47.344 34.6828 45.9968 39.6879C43.8451 47.6818 39.3945 54.1022 34.2847 56.5836C31.2829 58.0413 29.1976 58.2518 25.9278 57.4273C23.381 56.7852 22.9723 56.782 21.1917 57.3904C19.1306 58.094 16.7959 58.1957 15.0446 57.6581L15.0441 57.6564ZM23.5 55.4199C25.0115 55.4359 27.4849 55.5002 28.9963 55.5773C32.2552 55.7425 34.0129 55.0156 36.7582 52.3675C39.9641 49.2749 42.0392 45.5909 43.8615 39.7565C44.6691 37.1709 44.8512 35.6497 44.8512 31.4872C44.8512 26.8706 44.7459 26.1606 43.7427 24.0098C40.9657 18.0559 35.3016 15.9137 28.5418 18.2604C24.5547 19.6447 22.4084 19.6569 18.6379 18.3167C15.0384 17.0374 12.4188 16.974 9.44074 18.0943C6.74587 19.1081 4.4545 21.3444 3.12247 24.2607C2.2817 26.1015 2.15152 27.069 2.15032 31.487C2.14918 35.6491 2.33124 37.1747 3.13954 39.7759C4.65254 44.6452 7.24416 49.3023 9.99365 52.0925C12.9559 55.0988 15.1221 56.0138 18.4265 55.6554C19.7055 55.5172 21.9885 55.4102 23.5 55.4199ZM22.6544 15.2765C22.6544 12.4555 26.3223 7.21687 28.0617 7.55377C29.1106 7.75685 28.9488 9.27527 27.8178 9.84207C26.0637 10.7214 24.869 12.1788 24.3372 14.0884C23.8332 15.8982 22.6544 16.7306 22.6544 15.2765ZM11.9212 12.5224C7.2726 11.4253 4.99564 8.76474 4.43964 3.78027C4.23708 1.96417 4.22933 0.319494 4.42238 0.125417C4.61547 -0.0686601 6.99816 -0.0337163 9.71724 0.20406C13.8137 0.561689 15.0374 0.838939 16.8571 1.82105C19.8966 3.46155 21.8088 6.40712 21.8088 9.44905C21.8088 10.6601 21.9244 11.9535 22.0655 12.3234C22.2899 12.9114 21.7729 12.9902 17.9432 12.9529C15.5348 12.9288 12.8249 12.7356 11.9212 12.5224Z" fill="#755DAB"/>
<path d="M15.8565 45.7263C16.0737 46.0771 16.3544 46.6986 16.4801 47.1078C16.82 48.2136 18.3391 48.0537 18.5027 46.8948C18.5978 46.2221 19.359 45.5602 21.069 44.6632L23.5 43.388L25.9311 44.6632C27.641 45.5602 28.4022 46.2221 28.4972 46.8948C28.6609 48.0537 30.18 48.2132 30.5199 47.1074C30.6456 46.6982 30.9263 46.0767 31.1435 45.726C32.0308 44.2935 32.0656 43.8823 31.3442 43.352C30.798 42.9495 30.4 42.9228 29.8753 43.2523C29.3366 43.5905 28.7944 43.5165 27.721 42.9585L26.2866 42.2127L28.7606 40.955C30.9467 39.8436 31.3536 39.7612 32.2569 40.2472C33.1135 40.7085 33.3423 40.6976 33.6681 40.1797C34.2264 39.2923 34.1586 38.592 33.4764 38.2013C33.1499 38.0143 32.817 37.3833 32.7365 36.7987C32.5458 35.4151 31.0347 35.333 30.7066 36.6894C30.5435 37.3634 29.5695 38.0781 27.3764 39.1335C25.6715 39.9539 23.9287 40.6253 23.5033 40.6253C23.0778 40.6253 21.2985 39.9515 19.5493 39.1278C17.151 37.9987 16.3358 37.3974 16.2349 36.6836C16.0406 35.3085 14.4561 35.4017 14.2636 36.7993C14.1831 37.3839 13.8501 38.0151 13.5236 38.2021C12.1368 38.9964 13.3183 40.8164 14.7847 40.1446C15.4792 39.8264 16.2554 39.9902 18.1197 40.8483C19.4561 41.4635 20.4564 42.1182 20.3426 42.3033C19.8712 43.0701 17.587 43.7097 17.0173 43.2345C16.6018 42.8881 16.2519 42.9141 15.6806 43.3341C14.9344 43.8828 14.964 44.2856 15.8565 45.7263Z" fill="#2CBDB9"/>
<path d="M20.1176 37.6994C20.1176 38.1008 20.3083 38.4925 20.5414 38.5712V38.57C20.7745 38.6487 22.0587 38.6729 23.3953 38.6247C24.7318 38.5765 26.0632 38.5347 26.3539 38.5186C26.6445 38.5083 26.8823 38.1557 26.8823 37.7347C26.8823 36.7007 27.6995 35.9495 28.8243 35.9495C29.9021 35.9495 30.2656 35.2156 30.2624 33.0456C30.2549 28.1104 27.5802 24.8975 23.4792 24.8975C21.1673 24.8975 19.0547 25.9483 18.0471 27.5994C17.1744 29.0296 16.9937 30.1911 17.0943 33.7179C17.1522 35.7446 17.2474 35.9495 18.1305 35.9495C19.2829 35.9495 20.1176 36.6847 20.1176 37.6994Z" fill="#2CBDB9"/>
<circle cx="21" cy="32" r="2" fill="#F8F9FC"/>
<circle cx="26" cy="32" r="2" fill="#F8F9FC"/>
</svg>
