<svg width="93" height="34" viewBox="0 0 93 34" fill="none" xmlns="http://www.w3.org/2000/svg">
<path d="M92.5399 28.0735C92.1601 29.1406 91.5111 30.0126 90.612 30.6639C89.1513 31.7221 91.2736 31.6594 56.9229 31.6594L25.6033 31.6594V32.2477C25.6033 32.9054 25.179 33.4398 24.527 33.6034C24.3001 33.6603 22.2369 33.6773 19.9421 33.641C16.133 33.5809 15.6884 33.543 14.8379 33.2066C12.8218 32.409 11.0981 30.4658 10.564 28.3882C10.2559 27.1899 10.2125 23.2159 10.4928 21.876C10.9308 19.7826 12.416 17.9556 14.4713 16.982L15.6015 16.4466L20.1515 16.3949C24.3894 16.3467 24.7283 16.3648 25.0897 16.6575C25.3202 16.8441 25.5215 17.2405 25.5854 17.6337L25.693 18.2957L57.3765 18.3797C86.5321 18.457 89.1094 18.4862 89.6801 18.7451C90.5873 19.1566 91.7996 20.3441 92.3034 21.3146C92.711 22.0998 92.7471 22.3468 92.7961 24.6833C92.8405 26.7971 92.7993 27.3453 92.5399 28.0735ZM89.754 22.7028C89.6272 22.4053 89.3185 21.9728 89.068 21.7417L88.6126 21.3214L25.6033 21.2348L25.6033 28.8044L88.3875 28.7177L88.9103 28.3448C89.7713 27.7307 89.9763 27.1007 89.9806 25.0562C89.9832 23.8879 89.9025 23.0515 89.754 22.7028ZM19.5938 19.2221C16.6358 19.2234 16.3895 19.2482 15.5896 19.6207C14.5503 20.1046 13.7416 21.044 13.4114 22.1507C13.1146 23.1457 13.0762 26.7139 13.3517 27.7062C13.6449 28.7623 14.3861 29.6895 15.3749 30.2372C16.2712 30.7337 16.2836 30.7353 19.5097 30.79L22.7456 30.8449V19.2205L19.5938 19.2221Z" fill="#755DAB"/>
<path d="M87.9882 9.31612C88.3925 9.24008 89.0914 8.92116 89.5413 8.60739C90.1977 8.14954 90.4604 7.84129 90.8708 7.04567C92.0639 4.73417 91.2987 2.31581 88.9951 1.11716C88.0359 0.618076 87.8518 0.58937 85.6555 0.596531C78.2583 0.620619 62.0004 0.968628 61.317 1.11748C60.2347 1.35321 59.3398 2.01889 58.6408 3.10814L58.0613 4.01123L42.6862 4.24393C34.2298 4.37192 24.8706 4.51551 21.8878 4.563C16.8977 4.64243 16.4362 4.61913 16.1086 4.2714C15.5704 3.70017 15.0248 3.6128 12.257 3.65469C10.86 3.67584 8.2128 3.71624 6.37426 3.74446C4.53573 3.77268 2.80613 3.85737 2.53071 3.93267C1.03822 4.34068 0.368765 6.37815 1.29516 7.69304C2.03898 8.74879 2.45719 8.80326 9.00805 8.69754L15.1231 8.59883L15.9312 8.05528C16.652 7.57048 16.9295 7.50956 18.4984 7.49161C19.4659 7.48055 22.9233 7.42846 26.1815 7.37586C29.4397 7.32325 37.9741 7.19007 45.1469 7.07989L58.1884 6.87955L58.5598 7.54928C59.0721 8.47283 60.2086 9.38209 61.1606 9.63006C61.9579 9.83775 86.7576 9.54754 87.9882 9.31612Z" fill="#755DAB"/>
<path d="M85.8035 26.4529L86.2971 25.9593C86.9263 25.3301 86.9572 24.5826 86.378 24.0034L85.9654 23.5908L49.5317 23.5908L49.133 24.0152C48.622 24.5591 48.6185 25.5004 49.1255 26.0075L49.4823 26.3644L85.8035 26.4529Z" fill="#2CBDB9"/>
<path d="M41.8299 26.4487C42.6504 26.4487 42.8398 26.3839 43.2664 25.9574C43.814 25.4098 43.8766 24.9809 43.5118 24.2755C43.207 23.6859 42.967 23.5911 41.7797 23.5911C40.575 23.5911 40.0596 24.005 40.0596 24.9728C40.0596 25.9763 40.6263 26.4487 41.8299 26.4487Z" fill="#2CBDB9"/>
<path d="M34.2656 26.4487C35.086 26.4487 35.2755 26.3839 35.702 25.9574C36.329 25.3304 36.3591 24.582 35.7808 24.0037C35.4277 23.6506 35.2112 23.5911 34.2801 23.5911C33.3049 23.5911 33.1559 23.637 32.8437 24.034C32.36 24.6489 32.3878 25.5161 32.9079 26.0361C33.2481 26.3764 33.4862 26.4487 34.2656 26.4487Z" fill="#2CBDB9"/>
</svg>
